<svg width="648" height="837" viewBox="0 0 648 837" fill="none" xmlns="http://www.w3.org/2000/svg">
<mask id="mask0_67_152" style="mask-type:alpha" maskUnits="userSpaceOnUse" x="0" y="0" width="515" height="837">
<path d="M74.6031 32.3382C83.6563 29.4334 91.5778 23.8659 94.4069 21.4452C98.9336 12.7309 140.301 4.50069 160.419 1.47488C172.993 5.40844 213.04 10.9154 272.64 1.47488C332.24 -7.96565 459.047 30.2201 515 50.493V165.776V836.599C421.011 836.902 229.261 837.325 214.172 836.599C195.311 835.691 201.913 836.599 201.913 813.905C212.915 800.592 234.542 774.328 233.033 775.78C231.147 777.596 224.545 763.979 208.514 744.009C192.482 724.039 175.508 718.592 166.077 718.592H101.951C91.5775 718.592 83.0902 714.054 74.6031 709.515C66.1161 704.976 65.1725 675.928 61.4004 657.773C57.6283 639.619 41.5967 613.294 37.8245 609.663C34.0524 606.032 17.078 537.951 17.078 530.689V497.103C17.078 494.38 1.98937 482.579 1.98937 475.317C1.98937 468.055 10.4767 434.469 10.4767 427.207C10.4767 421.397 14.8776 416.314 17.078 414.498C17.078 406.329 15.7577 388.355 10.4767 381.819C3.87535 373.65 -3.66854 356.403 1.98937 341.879C7.64728 327.355 -6.49764 312.831 10.4767 293.768C18.964 283.783 10.4767 274.706 10.4767 269.259C10.4767 263.813 10.4767 247.473 17.078 242.935C23.6793 238.396 17.078 224.78 17.078 214.795C17.078 204.809 -3.66884 184.839 1.98937 180.3C6.51594 176.669 3.87544 169.105 1.98937 165.776V146.714C1.98937 138.544 7.64758 127.651 10.4767 118.574C13.3058 109.496 10.4768 102.234 17.078 97.6957C23.6793 93.157 16.135 81.3563 17.078 75.9099C18.0211 70.4634 19.9071 57.755 25.5653 50.493C31.2235 43.2311 35.9387 45.0466 47.2551 40.5079C58.5715 35.9691 63.2867 35.9691 74.6031 32.3382Z" fill="#D9D9D9"/>
</mask>
<g mask="url(#mask0_67_152)">
<rect x="-20.9834" width="480.983" height="8" fill="url(#paint0_linear_67_152)"/>
<rect x="-23" y="264" width="483" height="16" fill="url(#paint1_linear_67_152)"/>
<rect x="-23" y="84" width="483" height="32" fill="url(#paint2_linear_67_152)"/>
<rect x="-23" y="224" width="483" height="32" fill="url(#paint3_linear_67_152)"/>
<rect x="-20.9834" y="764" width="480.983" height="16" fill="url(#paint4_linear_67_152)"/>
<rect x="-20.9834" y="820" width="480.983" height="16" fill="url(#paint5_linear_67_152)"/>
<rect x="-20.9834" y="724" width="480.983" height="32" fill="url(#paint6_linear_67_152)"/>
<rect x="-20.9834" y="640" width="480.983" height="32" fill="url(#paint7_linear_67_152)"/>
<rect x="-23" y="152" width="483" height="64" fill="url(#paint8_linear_67_152)"/>
<rect x="-21" y="336" width="481" height="52" fill="url(#paint9_linear_67_152)"/>
<rect x="-20.9834" y="424" width="480.983" height="64" fill="url(#paint10_linear_67_152)"/>
<rect x="-20.9834" y="16" width="480.983" height="64" fill="url(#paint11_linear_67_152)"/>
<rect x="-23" y="288" width="483" height="32" fill="url(#paint12_linear_67_152)"/>
<rect x="-20.9834" y="796" width="480.983" height="7.99996" fill="url(#paint13_linear_67_152)"/>
<rect x="-20.9834" y="684" width="480.983" height="16" fill="url(#paint14_linear_67_152)"/>
<rect x="-20.9834" y="508" width="480.983" height="32" fill="url(#paint15_linear_67_152)"/>
<rect x="-20.9834" y="592" width="480.983" height="32" fill="url(#paint16_linear_67_152)"/>
<rect x="-20.9834" y="564" width="480.983" height="16" fill="url(#paint17_linear_67_152)"/>
</g>
<rect x="455" y="16" width="192" height="8" fill="#161616"/>
<rect x="455" y="272" width="192" height="8" fill="#161616"/>
<rect x="455" y="80" width="192" height="4" fill="#161616"/>
<rect x="455" y="112" width="192" height="4" fill="#161616"/>
<rect x="456" y="212" width="192" height="4" fill="#161616"/>
<rect x="455" y="316" width="192" height="4" fill="#161616"/>
<rect x="455" y="288" width="192" height="4" fill="#161616"/>
<rect x="456" y="400" width="192" height="4" fill="#161616"/>
<rect x="456" y="408" width="192" height="4" fill="#161616"/>
<rect x="456" y="388" width="192" height="4" fill="#161616"/>
<rect x="460" y="48" width="187" height="16" fill="#161616"/>
<rect x="456" y="464" width="192" height="4" fill="#161616"/>
<rect x="456" y="484" width="192" height="4" fill="#161616"/>
<rect x="456" y="432" width="192" height="16" fill="#161616"/>
<rect x="455" y="224" width="192" height="16" fill="#161616"/>
<rect x="455" y="248" width="192" height="16" fill="#161616"/>
<rect x="455" y="168" width="192" height="16" fill="#161616"/>
<rect x="455" y="128" width="192" height="32" fill="#161616"/>
<rect x="455" y="336" width="192" height="32" fill="#161616"/>
<rect x="648" y="672" width="192" height="8" transform="rotate(-180 648 672)" fill="#161616"/>
<rect x="648" y="836" width="192" height="4" transform="rotate(-180 648 836)" fill="#161616"/>
<rect x="648" y="624" width="192" height="4" transform="rotate(-180 648 624)" fill="#161616"/>
<rect x="647" y="548" width="192" height="4" transform="rotate(-180 647 548)" fill="#161616"/>
<rect x="647" y="540" width="192" height="4" transform="rotate(-180 647 540)" fill="#161616"/>
<rect x="647" y="560" width="192" height="4" transform="rotate(-180 647 560)" fill="#161616"/>
<rect x="648" y="724" width="192" height="16" transform="rotate(-180 648 724)" fill="#161616"/>
<rect x="648" y="700" width="192" height="16" transform="rotate(-180 648 700)" fill="#161616"/>
<rect x="648" y="780" width="192" height="16" transform="rotate(-180 648 780)" fill="#161616"/>
<rect x="648" y="820" width="192" height="32" transform="rotate(-180 648 820)" fill="#161616"/>
<rect x="648" y="612" width="192" height="32" transform="rotate(-180 648 612)" fill="#161616"/>
<path d="M596.883 747.203C596.883 746.891 596.831 746.612 596.727 746.367C596.622 746.122 596.451 745.904 596.211 745.711C595.977 745.513 595.659 745.331 595.258 745.164C594.862 744.992 594.367 744.823 593.773 744.656C593.206 744.495 592.693 744.318 592.234 744.125C591.776 743.932 591.383 743.711 591.055 743.461C590.732 743.211 590.484 742.919 590.312 742.586C590.141 742.247 590.055 741.854 590.055 741.406C590.055 740.969 590.148 740.57 590.336 740.211C590.523 739.852 590.786 739.542 591.125 739.281C591.469 739.021 591.872 738.82 592.336 738.68C592.805 738.539 593.318 738.469 593.875 738.469C594.672 738.469 595.359 738.62 595.938 738.922C596.521 739.224 596.971 739.633 597.289 740.148C597.612 740.659 597.773 741.232 597.773 741.867H596.812C596.812 741.372 596.695 740.932 596.461 740.547C596.232 740.156 595.898 739.852 595.461 739.633C595.029 739.409 594.5 739.297 593.875 739.297C593.25 739.297 592.724 739.393 592.297 739.586C591.875 739.773 591.555 740.026 591.336 740.344C591.122 740.656 591.016 741.005 591.016 741.391C591.016 741.661 591.068 741.911 591.172 742.141C591.276 742.365 591.445 742.576 591.68 742.773C591.919 742.966 592.234 743.148 592.625 743.32C593.016 743.487 593.497 743.646 594.07 743.797C594.674 743.964 595.211 744.148 595.68 744.352C596.148 744.555 596.544 744.789 596.867 745.055C597.19 745.315 597.435 745.62 597.602 745.969C597.768 746.318 597.852 746.724 597.852 747.188C597.852 747.651 597.753 748.068 597.555 748.438C597.362 748.802 597.089 749.112 596.734 749.367C596.385 749.622 595.971 749.818 595.492 749.953C595.018 750.089 594.5 750.156 593.938 750.156C593.432 750.156 592.93 750.091 592.43 749.961C591.93 749.831 591.471 749.63 591.055 749.359C590.643 749.083 590.312 748.729 590.062 748.297C589.818 747.865 589.695 747.349 589.695 746.75H590.648C590.648 747.229 590.745 747.633 590.938 747.961C591.13 748.289 591.385 748.555 591.703 748.758C592.026 748.961 592.38 749.109 592.766 749.203C593.156 749.292 593.547 749.336 593.938 749.336C594.536 749.336 595.055 749.247 595.492 749.07C595.935 748.893 596.276 748.646 596.516 748.328C596.76 748.005 596.883 747.63 596.883 747.203ZM606.797 738.625H607.758V746.328C607.758 747.182 607.578 747.893 607.219 748.461C606.859 749.029 606.375 749.453 605.766 749.734C605.161 750.016 604.492 750.156 603.758 750.156C603.003 750.156 602.323 750.016 601.719 749.734C601.115 749.453 600.635 749.029 600.281 748.461C599.932 747.893 599.758 747.182 599.758 746.328V738.625H600.711V746.328C600.711 746.99 600.841 747.544 601.102 747.992C601.362 748.44 601.721 748.776 602.18 749C602.638 749.224 603.164 749.336 603.758 749.336C604.346 749.336 604.87 749.224 605.328 749C605.786 748.776 606.146 748.44 606.406 747.992C606.667 747.544 606.797 746.99 606.797 746.328V738.625ZM611.633 738.625V750H610.672V738.625H611.633ZM621.812 746.453H622.773C622.695 747.219 622.484 747.88 622.141 748.438C621.797 748.99 621.328 749.414 620.734 749.711C620.141 750.008 619.424 750.156 618.586 750.156C617.94 750.156 617.354 750.034 616.828 749.789C616.307 749.544 615.859 749.198 615.484 748.75C615.109 748.297 614.82 747.755 614.617 747.125C614.414 746.495 614.312 745.794 614.312 745.023V743.602C614.312 742.831 614.414 742.133 614.617 741.508C614.82 740.878 615.112 740.336 615.492 739.883C615.872 739.43 616.328 739.081 616.859 738.836C617.391 738.591 617.99 738.469 618.656 738.469C619.464 738.469 620.161 738.617 620.75 738.914C621.339 739.206 621.802 739.628 622.141 740.18C622.484 740.732 622.695 741.398 622.773 742.18H621.812C621.74 741.565 621.578 741.044 621.328 740.617C621.078 740.19 620.732 739.865 620.289 739.641C619.852 739.411 619.307 739.297 618.656 739.297C618.125 739.297 617.651 739.398 617.234 739.602C616.818 739.805 616.464 740.096 616.172 740.477C615.88 740.852 615.656 741.302 615.5 741.828C615.349 742.354 615.273 742.94 615.273 743.586V745.023C615.273 745.648 615.346 746.224 615.492 746.75C615.638 747.276 615.852 747.732 616.133 748.117C616.419 748.503 616.768 748.802 617.18 749.016C617.591 749.229 618.06 749.336 618.586 749.336C619.258 749.336 619.818 749.229 620.266 749.016C620.719 748.797 621.07 748.474 621.32 748.047C621.57 747.62 621.734 747.089 621.812 746.453ZM626.289 738.625V750H625.328V738.625H626.289ZM632.492 750H629.914L629.93 749.18H632.492C633.31 749.18 634.013 748.997 634.602 748.633C635.195 748.263 635.654 747.753 635.977 747.102C636.299 746.451 636.461 745.695 636.461 744.836V743.773C636.461 743.117 636.367 742.523 636.18 741.992C635.997 741.461 635.734 741.008 635.391 740.633C635.047 740.253 634.635 739.961 634.156 739.758C633.682 739.555 633.151 739.453 632.562 739.453H629.867V738.625H632.562C633.271 738.625 633.919 738.747 634.508 738.992C635.102 739.232 635.615 739.581 636.047 740.039C636.484 740.492 636.82 741.036 637.055 741.672C637.294 742.307 637.414 743.016 637.414 743.797V744.836C637.414 745.617 637.294 746.326 637.055 746.961C636.82 747.596 636.484 748.141 636.047 748.594C635.609 749.047 635.091 749.396 634.492 749.641C633.893 749.88 633.227 750 632.492 750ZM630.344 738.625V750H629.383V738.625H630.344ZM646.938 749.18V750H640.539V749.18H646.938ZM640.828 738.625V750H639.867V738.625H640.828ZM646.141 743.727V744.547H640.539V743.727H646.141ZM646.898 738.625V739.453H640.539V738.625H646.898Z" fill="#161616"/>
<path d="M591.469 515.609V507.625H592.43V515.609C592.43 516.375 592.279 517.021 591.977 517.547C591.68 518.073 591.273 518.474 590.758 518.75C590.242 519.021 589.654 519.156 588.992 519.156C588.315 519.156 587.716 519.036 587.195 518.797C586.68 518.557 586.279 518.195 585.992 517.711C585.706 517.221 585.562 516.604 585.562 515.859H586.523C586.523 516.406 586.62 516.865 586.812 517.234C587.01 517.599 587.294 517.875 587.664 518.062C588.034 518.245 588.477 518.336 588.992 518.336C589.456 518.336 589.872 518.234 590.242 518.031C590.617 517.823 590.914 517.518 591.133 517.117C591.357 516.711 591.469 516.208 591.469 515.609ZM602.125 507.625H603.086V515.328C603.086 516.182 602.906 516.893 602.547 517.461C602.188 518.029 601.703 518.453 601.094 518.734C600.49 519.016 599.82 519.156 599.086 519.156C598.331 519.156 597.651 519.016 597.047 518.734C596.443 518.453 595.964 518.029 595.609 517.461C595.26 516.893 595.086 516.182 595.086 515.328V507.625H596.039V515.328C596.039 515.99 596.169 516.544 596.43 516.992C596.69 517.44 597.049 517.776 597.508 518C597.966 518.224 598.492 518.336 599.086 518.336C599.674 518.336 600.198 518.224 600.656 518C601.115 517.776 601.474 517.44 601.734 516.992C601.995 516.544 602.125 515.99 602.125 515.328V507.625ZM612.227 516.203C612.227 515.891 612.174 515.612 612.07 515.367C611.966 515.122 611.794 514.904 611.555 514.711C611.32 514.513 611.003 514.331 610.602 514.164C610.206 513.992 609.711 513.823 609.117 513.656C608.549 513.495 608.036 513.318 607.578 513.125C607.12 512.932 606.727 512.711 606.398 512.461C606.076 512.211 605.828 511.919 605.656 511.586C605.484 511.247 605.398 510.854 605.398 510.406C605.398 509.969 605.492 509.57 605.68 509.211C605.867 508.852 606.13 508.542 606.469 508.281C606.812 508.021 607.216 507.82 607.68 507.68C608.148 507.539 608.661 507.469 609.219 507.469C610.016 507.469 610.703 507.62 611.281 507.922C611.865 508.224 612.315 508.633 612.633 509.148C612.956 509.659 613.117 510.232 613.117 510.867H612.156C612.156 510.372 612.039 509.932 611.805 509.547C611.576 509.156 611.242 508.852 610.805 508.633C610.372 508.409 609.844 508.297 609.219 508.297C608.594 508.297 608.068 508.393 607.641 508.586C607.219 508.773 606.898 509.026 606.68 509.344C606.466 509.656 606.359 510.005 606.359 510.391C606.359 510.661 606.411 510.911 606.516 511.141C606.62 511.365 606.789 511.576 607.023 511.773C607.263 511.966 607.578 512.148 607.969 512.32C608.359 512.487 608.841 512.646 609.414 512.797C610.018 512.964 610.555 513.148 611.023 513.352C611.492 513.555 611.888 513.789 612.211 514.055C612.534 514.315 612.779 514.62 612.945 514.969C613.112 515.318 613.195 515.724 613.195 516.188C613.195 516.651 613.096 517.068 612.898 517.438C612.706 517.802 612.432 518.112 612.078 518.367C611.729 518.622 611.315 518.818 610.836 518.953C610.362 519.089 609.844 519.156 609.281 519.156C608.776 519.156 608.273 519.091 607.773 518.961C607.273 518.831 606.815 518.63 606.398 518.359C605.987 518.083 605.656 517.729 605.406 517.297C605.161 516.865 605.039 516.349 605.039 515.75H605.992C605.992 516.229 606.089 516.633 606.281 516.961C606.474 517.289 606.729 517.555 607.047 517.758C607.37 517.961 607.724 518.109 608.109 518.203C608.5 518.292 608.891 518.336 609.281 518.336C609.88 518.336 610.398 518.247 610.836 518.07C611.279 517.893 611.62 517.646 611.859 517.328C612.104 517.005 612.227 516.63 612.227 516.203ZM619.086 507.625V519H618.133V507.625H619.086ZM622.984 507.625V508.453H614.242V507.625H622.984ZM626.008 507.625V519H625.047V507.625H626.008ZM636.188 515.453H637.148C637.07 516.219 636.859 516.88 636.516 517.438C636.172 517.99 635.703 518.414 635.109 518.711C634.516 519.008 633.799 519.156 632.961 519.156C632.315 519.156 631.729 519.034 631.203 518.789C630.682 518.544 630.234 518.198 629.859 517.75C629.484 517.297 629.195 516.755 628.992 516.125C628.789 515.495 628.688 514.794 628.688 514.023V512.602C628.688 511.831 628.789 511.133 628.992 510.508C629.195 509.878 629.487 509.336 629.867 508.883C630.247 508.43 630.703 508.081 631.234 507.836C631.766 507.591 632.365 507.469 633.031 507.469C633.839 507.469 634.536 507.617 635.125 507.914C635.714 508.206 636.177 508.628 636.516 509.18C636.859 509.732 637.07 510.398 637.148 511.18H636.188C636.115 510.565 635.953 510.044 635.703 509.617C635.453 509.19 635.107 508.865 634.664 508.641C634.227 508.411 633.682 508.297 633.031 508.297C632.5 508.297 632.026 508.398 631.609 508.602C631.193 508.805 630.839 509.096 630.547 509.477C630.255 509.852 630.031 510.302 629.875 510.828C629.724 511.354 629.648 511.94 629.648 512.586V514.023C629.648 514.648 629.721 515.224 629.867 515.75C630.013 516.276 630.227 516.732 630.508 517.117C630.794 517.503 631.143 517.802 631.555 518.016C631.966 518.229 632.435 518.336 632.961 518.336C633.633 518.336 634.193 518.229 634.641 518.016C635.094 517.797 635.445 517.474 635.695 517.047C635.945 516.62 636.109 516.089 636.188 515.453ZM646.562 518.18V519H640.164V518.18H646.562ZM640.453 507.625V519H639.492V507.625H640.453ZM645.766 512.727V513.547H640.164V512.727H645.766ZM646.523 507.625V508.453H640.164V507.625H646.523Z" fill="#161616"/>
<path d="M558.312 647.367H555.07V646.547H558.312C558.99 646.547 559.539 646.438 559.961 646.219C560.388 645.995 560.698 645.693 560.891 645.312C561.089 644.932 561.188 644.505 561.188 644.031C561.188 643.568 561.089 643.141 560.891 642.75C560.698 642.359 560.388 642.047 559.961 641.812C559.539 641.573 558.99 641.453 558.312 641.453H555.406V652H554.445V640.625H558.312C559.146 640.625 559.846 640.768 560.414 641.055C560.987 641.341 561.419 641.74 561.711 642.25C562.003 642.76 562.148 643.349 562.148 644.016C562.148 644.714 562.003 645.315 561.711 645.82C561.419 646.32 560.99 646.703 560.422 646.969C559.854 647.234 559.151 647.367 558.312 647.367ZM571.375 651.18V652H564.977V651.18H571.375ZM565.266 640.625V652H564.305V640.625H565.266ZM570.578 645.727V646.547H564.977V645.727H570.578ZM571.336 640.625V641.453H564.977V640.625H571.336ZM573.391 640.625H577.086C577.872 640.625 578.555 640.753 579.133 641.008C579.711 641.263 580.156 641.641 580.469 642.141C580.786 642.635 580.945 643.245 580.945 643.969C580.945 644.505 580.831 644.992 580.602 645.43C580.378 645.867 580.068 646.234 579.672 646.531C579.276 646.823 578.818 647.023 578.297 647.133L577.961 647.258H574.016L574 646.438H577.305C577.898 646.438 578.393 646.323 578.789 646.094C579.185 645.865 579.482 645.562 579.68 645.188C579.883 644.807 579.984 644.401 579.984 643.969C579.984 643.453 579.872 643.008 579.648 642.633C579.43 642.253 579.104 641.961 578.672 641.758C578.24 641.555 577.711 641.453 577.086 641.453H574.352V652H573.391V640.625ZM580.414 652L577.469 646.914L578.5 646.906L581.438 651.898V652H580.414ZM590.672 648.453H591.633C591.555 649.219 591.344 649.88 591 650.438C590.656 650.99 590.188 651.414 589.594 651.711C589 652.008 588.284 652.156 587.445 652.156C586.799 652.156 586.214 652.034 585.688 651.789C585.167 651.544 584.719 651.198 584.344 650.75C583.969 650.297 583.68 649.755 583.477 649.125C583.273 648.495 583.172 647.794 583.172 647.023V645.602C583.172 644.831 583.273 644.133 583.477 643.508C583.68 642.878 583.971 642.336 584.352 641.883C584.732 641.43 585.188 641.081 585.719 640.836C586.25 640.591 586.849 640.469 587.516 640.469C588.323 640.469 589.021 640.617 589.609 640.914C590.198 641.206 590.661 641.628 591 642.18C591.344 642.732 591.555 643.398 591.633 644.18H590.672C590.599 643.565 590.438 643.044 590.188 642.617C589.938 642.19 589.591 641.865 589.148 641.641C588.711 641.411 588.167 641.297 587.516 641.297C586.984 641.297 586.51 641.398 586.094 641.602C585.677 641.805 585.323 642.096 585.031 642.477C584.74 642.852 584.516 643.302 584.359 643.828C584.208 644.354 584.133 644.94 584.133 645.586V647.023C584.133 647.648 584.206 648.224 584.352 648.75C584.497 649.276 584.711 649.732 584.992 650.117C585.279 650.503 585.628 650.802 586.039 651.016C586.451 651.229 586.919 651.336 587.445 651.336C588.117 651.336 588.677 651.229 589.125 651.016C589.578 650.797 589.93 650.474 590.18 650.047C590.43 649.62 590.594 649.089 590.672 648.453ZM601.047 651.18V652H594.648V651.18H601.047ZM594.938 640.625V652H593.977V640.625H594.938ZM600.25 645.727V646.547H594.648V645.727H600.25ZM601.008 640.625V641.453H594.648V640.625H601.008ZM606.953 647.367H603.711V646.547H606.953C607.63 646.547 608.18 646.438 608.602 646.219C609.029 645.995 609.339 645.693 609.531 645.312C609.729 644.932 609.828 644.505 609.828 644.031C609.828 643.568 609.729 643.141 609.531 642.75C609.339 642.359 609.029 642.047 608.602 641.812C608.18 641.573 607.63 641.453 606.953 641.453H604.047V652H603.086V640.625H606.953C607.786 640.625 608.487 640.768 609.055 641.055C609.628 641.341 610.06 641.74 610.352 642.25C610.643 642.76 610.789 643.349 610.789 644.016C610.789 644.714 610.643 645.315 610.352 645.82C610.06 646.32 609.63 646.703 609.062 646.969C608.495 647.234 607.792 647.367 606.953 647.367ZM616.758 640.625V652H615.805V640.625H616.758ZM620.656 640.625V641.453H611.914V640.625H620.656ZM623.68 640.625V652H622.719V640.625H623.68ZM635.172 645.703V646.922C635.172 647.719 635.068 648.44 634.859 649.086C634.656 649.727 634.359 650.276 633.969 650.734C633.583 651.193 633.12 651.544 632.578 651.789C632.036 652.034 631.427 652.156 630.75 652.156C630.089 652.156 629.484 652.034 628.938 651.789C628.396 651.544 627.93 651.193 627.539 650.734C627.148 650.276 626.846 649.727 626.633 649.086C626.419 648.44 626.312 647.719 626.312 646.922V645.703C626.312 644.906 626.417 644.188 626.625 643.547C626.839 642.901 627.141 642.349 627.531 641.891C627.922 641.432 628.388 641.081 628.93 640.836C629.471 640.591 630.073 640.469 630.734 640.469C631.411 640.469 632.021 640.591 632.562 640.836C633.104 641.081 633.57 641.432 633.961 641.891C634.352 642.349 634.651 642.901 634.859 643.547C635.068 644.188 635.172 644.906 635.172 645.703ZM634.219 646.922V645.688C634.219 645.016 634.141 644.411 633.984 643.875C633.833 643.339 633.607 642.88 633.305 642.5C633.008 642.12 632.643 641.828 632.211 641.625C631.779 641.422 631.286 641.32 630.734 641.32C630.198 641.32 629.716 641.422 629.289 641.625C628.862 641.828 628.497 642.12 628.195 642.5C627.898 642.88 627.669 643.339 627.508 643.875C627.352 644.411 627.273 645.016 627.273 645.688V646.922C627.273 647.599 627.352 648.208 627.508 648.75C627.669 649.286 627.901 649.747 628.203 650.133C628.505 650.513 628.87 650.805 629.297 651.008C629.729 651.211 630.214 651.312 630.75 651.312C631.307 651.312 631.799 651.211 632.227 651.008C632.654 650.805 633.016 650.513 633.312 650.133C633.609 649.747 633.833 649.286 633.984 648.75C634.141 648.208 634.219 647.599 634.219 646.922ZM646.07 640.625V652H645.102L638.562 642.281V652H637.602V640.625H638.562L645.117 650.344V640.625H646.07Z" fill="#161616"/>
<path d="M556.312 306.367H553.07V305.547H556.312C556.99 305.547 557.539 305.438 557.961 305.219C558.388 304.995 558.698 304.693 558.891 304.312C559.089 303.932 559.188 303.505 559.188 303.031C559.188 302.568 559.089 302.141 558.891 301.75C558.698 301.359 558.388 301.047 557.961 300.812C557.539 300.573 556.99 300.453 556.312 300.453H553.406V311H552.445V299.625H556.312C557.146 299.625 557.846 299.768 558.414 300.055C558.987 300.341 559.419 300.74 559.711 301.25C560.003 301.76 560.148 302.349 560.148 303.016C560.148 303.714 560.003 304.315 559.711 304.82C559.419 305.32 558.99 305.703 558.422 305.969C557.854 306.234 557.151 306.367 556.312 306.367ZM562.281 299.625H565.977C566.763 299.625 567.445 299.753 568.023 300.008C568.602 300.263 569.047 300.641 569.359 301.141C569.677 301.635 569.836 302.245 569.836 302.969C569.836 303.505 569.721 303.992 569.492 304.43C569.268 304.867 568.958 305.234 568.562 305.531C568.167 305.823 567.708 306.023 567.188 306.133L566.852 306.258H562.906L562.891 305.438H566.195C566.789 305.438 567.284 305.323 567.68 305.094C568.076 304.865 568.372 304.562 568.57 304.188C568.773 303.807 568.875 303.401 568.875 302.969C568.875 302.453 568.763 302.008 568.539 301.633C568.32 301.253 567.995 300.961 567.562 300.758C567.13 300.555 566.602 300.453 565.977 300.453H563.242V311H562.281V299.625ZM569.305 311L566.359 305.914L567.391 305.906L570.328 310.898V311H569.305ZM573.648 299.625V311H572.688V299.625H573.648ZM583.18 308.203C583.18 307.891 583.128 307.612 583.023 307.367C582.919 307.122 582.747 306.904 582.508 306.711C582.273 306.513 581.956 306.331 581.555 306.164C581.159 305.992 580.664 305.823 580.07 305.656C579.503 305.495 578.99 305.318 578.531 305.125C578.073 304.932 577.68 304.711 577.352 304.461C577.029 304.211 576.781 303.919 576.609 303.586C576.438 303.247 576.352 302.854 576.352 302.406C576.352 301.969 576.445 301.57 576.633 301.211C576.82 300.852 577.083 300.542 577.422 300.281C577.766 300.021 578.169 299.82 578.633 299.68C579.102 299.539 579.615 299.469 580.172 299.469C580.969 299.469 581.656 299.62 582.234 299.922C582.818 300.224 583.268 300.633 583.586 301.148C583.909 301.659 584.07 302.232 584.07 302.867H583.109C583.109 302.372 582.992 301.932 582.758 301.547C582.529 301.156 582.195 300.852 581.758 300.633C581.326 300.409 580.797 300.297 580.172 300.297C579.547 300.297 579.021 300.393 578.594 300.586C578.172 300.773 577.852 301.026 577.633 301.344C577.419 301.656 577.312 302.005 577.312 302.391C577.312 302.661 577.365 302.911 577.469 303.141C577.573 303.365 577.742 303.576 577.977 303.773C578.216 303.966 578.531 304.148 578.922 304.32C579.312 304.487 579.794 304.646 580.367 304.797C580.971 304.964 581.508 305.148 581.977 305.352C582.445 305.555 582.841 305.789 583.164 306.055C583.487 306.315 583.732 306.62 583.898 306.969C584.065 307.318 584.148 307.724 584.148 308.188C584.148 308.651 584.049 309.068 583.852 309.438C583.659 309.802 583.385 310.112 583.031 310.367C582.682 310.622 582.268 310.818 581.789 310.953C581.315 311.089 580.797 311.156 580.234 311.156C579.729 311.156 579.227 311.091 578.727 310.961C578.227 310.831 577.768 310.63 577.352 310.359C576.94 310.083 576.609 309.729 576.359 309.297C576.115 308.865 575.992 308.349 575.992 307.75H576.945C576.945 308.229 577.042 308.633 577.234 308.961C577.427 309.289 577.682 309.555 578 309.758C578.323 309.961 578.677 310.109 579.062 310.203C579.453 310.292 579.844 310.336 580.234 310.336C580.833 310.336 581.352 310.247 581.789 310.07C582.232 309.893 582.573 309.646 582.812 309.328C583.057 309.005 583.18 308.63 583.18 308.203ZM594.625 304.703V305.922C594.625 306.719 594.521 307.44 594.312 308.086C594.109 308.727 593.812 309.276 593.422 309.734C593.036 310.193 592.573 310.544 592.031 310.789C591.49 311.034 590.88 311.156 590.203 311.156C589.542 311.156 588.938 311.034 588.391 310.789C587.849 310.544 587.383 310.193 586.992 309.734C586.602 309.276 586.299 308.727 586.086 308.086C585.872 307.44 585.766 306.719 585.766 305.922V304.703C585.766 303.906 585.87 303.188 586.078 302.547C586.292 301.901 586.594 301.349 586.984 300.891C587.375 300.432 587.841 300.081 588.383 299.836C588.924 299.591 589.526 299.469 590.188 299.469C590.865 299.469 591.474 299.591 592.016 299.836C592.557 300.081 593.023 300.432 593.414 300.891C593.805 301.349 594.104 301.901 594.312 302.547C594.521 303.188 594.625 303.906 594.625 304.703ZM593.672 305.922V304.688C593.672 304.016 593.594 303.411 593.438 302.875C593.286 302.339 593.06 301.88 592.758 301.5C592.461 301.12 592.096 300.828 591.664 300.625C591.232 300.422 590.74 300.32 590.188 300.32C589.651 300.32 589.169 300.422 588.742 300.625C588.315 300.828 587.951 301.12 587.648 301.5C587.352 301.88 587.122 302.339 586.961 302.875C586.805 303.411 586.727 304.016 586.727 304.688V305.922C586.727 306.599 586.805 307.208 586.961 307.75C587.122 308.286 587.354 308.747 587.656 309.133C587.958 309.513 588.323 309.805 588.75 310.008C589.182 310.211 589.667 310.312 590.203 310.312C590.76 310.312 591.253 310.211 591.68 310.008C592.107 309.805 592.469 309.513 592.766 309.133C593.062 308.747 593.286 308.286 593.438 307.75C593.594 307.208 593.672 306.599 593.672 305.922ZM605.523 299.625V311H604.555L598.016 301.281V311H597.055V299.625H598.016L604.57 309.344V299.625H605.523ZM615.836 299.625V311H614.883V299.625H615.836ZM619.734 299.625V300.453H610.992V299.625H619.734ZM622.758 299.625V311H621.797V299.625H622.758ZM626.148 299.625H627.117L631.32 309.641L635.531 299.625H636.492L631.688 311H630.953L626.148 299.625ZM625.852 299.625H626.703L626.805 306.031V311H625.852V299.625ZM635.953 299.625H636.805V311H635.844V306.031L635.953 299.625ZM646.766 310.18V311H640.367V310.18H646.766ZM640.656 299.625V311H639.695V299.625H640.656ZM645.969 304.727V305.547H640.367V304.727H645.969ZM646.727 299.625V300.453H640.367V299.625H646.727Z" fill="#161616"/>
<path d="M558.531 101.453H559.492C559.414 102.219 559.203 102.88 558.859 103.438C558.516 103.99 558.047 104.414 557.453 104.711C556.859 105.008 556.143 105.156 555.305 105.156C554.659 105.156 554.073 105.034 553.547 104.789C553.026 104.544 552.578 104.198 552.203 103.75C551.828 103.297 551.539 102.755 551.336 102.125C551.133 101.495 551.031 100.794 551.031 100.023V98.6016C551.031 97.8307 551.133 97.1328 551.336 96.5078C551.539 95.8776 551.831 95.3359 552.211 94.8828C552.591 94.4297 553.047 94.0807 553.578 93.8359C554.109 93.5911 554.708 93.4688 555.375 93.4688C556.182 93.4688 556.88 93.6172 557.469 93.9141C558.057 94.2057 558.521 94.6276 558.859 95.1797C559.203 95.7318 559.414 96.3984 559.492 97.1797H558.531C558.458 96.5651 558.297 96.0443 558.047 95.6172C557.797 95.1901 557.451 94.8646 557.008 94.6406C556.57 94.4115 556.026 94.2969 555.375 94.2969C554.844 94.2969 554.37 94.3984 553.953 94.6016C553.536 94.8047 553.182 95.0964 552.891 95.4766C552.599 95.8516 552.375 96.3021 552.219 96.8281C552.068 97.3542 551.992 97.9401 551.992 98.5859V100.023C551.992 100.648 552.065 101.224 552.211 101.75C552.357 102.276 552.57 102.732 552.852 103.117C553.138 103.503 553.487 103.802 553.898 104.016C554.31 104.229 554.779 104.336 555.305 104.336C555.977 104.336 556.536 104.229 556.984 104.016C557.438 103.797 557.789 103.474 558.039 103.047C558.289 102.62 558.453 102.089 558.531 101.453ZM570.234 98.7031V99.9219C570.234 100.719 570.13 101.44 569.922 102.086C569.719 102.727 569.422 103.276 569.031 103.734C568.646 104.193 568.182 104.544 567.641 104.789C567.099 105.034 566.49 105.156 565.812 105.156C565.151 105.156 564.547 105.034 564 104.789C563.458 104.544 562.992 104.193 562.602 103.734C562.211 103.276 561.909 102.727 561.695 102.086C561.482 101.44 561.375 100.719 561.375 99.9219V98.7031C561.375 97.9062 561.479 97.1875 561.688 96.5469C561.901 95.901 562.203 95.349 562.594 94.8906C562.984 94.4323 563.451 94.0807 563.992 93.8359C564.534 93.5911 565.135 93.4688 565.797 93.4688C566.474 93.4688 567.083 93.5911 567.625 93.8359C568.167 94.0807 568.633 94.4323 569.023 94.8906C569.414 95.349 569.714 95.901 569.922 96.5469C570.13 97.1875 570.234 97.9062 570.234 98.7031ZM569.281 99.9219V98.6875C569.281 98.0156 569.203 97.4115 569.047 96.875C568.896 96.3385 568.669 95.8802 568.367 95.5C568.07 95.1198 567.706 94.8281 567.273 94.625C566.841 94.4219 566.349 94.3203 565.797 94.3203C565.26 94.3203 564.779 94.4219 564.352 94.625C563.924 94.8281 563.56 95.1198 563.258 95.5C562.961 95.8802 562.732 96.3385 562.57 96.875C562.414 97.4115 562.336 98.0156 562.336 98.6875V99.9219C562.336 100.599 562.414 101.208 562.57 101.75C562.732 102.286 562.964 102.747 563.266 103.133C563.568 103.513 563.932 103.805 564.359 104.008C564.792 104.211 565.276 104.312 565.812 104.312C566.37 104.312 566.862 104.211 567.289 104.008C567.716 103.805 568.078 103.513 568.375 103.133C568.672 102.747 568.896 102.286 569.047 101.75C569.203 101.208 569.281 100.599 569.281 99.9219ZM572.641 93.625H576.336C577.122 93.625 577.805 93.7526 578.383 94.0078C578.961 94.263 579.406 94.6406 579.719 95.1406C580.036 95.6354 580.195 96.2448 580.195 96.9688C580.195 97.5052 580.081 97.9922 579.852 98.4297C579.628 98.8672 579.318 99.2344 578.922 99.5312C578.526 99.8229 578.068 100.023 577.547 100.133L577.211 100.258H573.266L573.25 99.4375H576.555C577.148 99.4375 577.643 99.3229 578.039 99.0938C578.435 98.8646 578.732 98.5625 578.93 98.1875C579.133 97.8073 579.234 97.401 579.234 96.9688C579.234 96.4531 579.122 96.0078 578.898 95.6328C578.68 95.2526 578.354 94.9609 577.922 94.7578C577.49 94.5547 576.961 94.4531 576.336 94.4531H573.602V105H572.641V93.625ZM579.664 105L576.719 99.9141L577.75 99.9062L580.688 104.898V105H579.664ZM582.812 93.625H586.508C587.294 93.625 587.977 93.7526 588.555 94.0078C589.133 94.263 589.578 94.6406 589.891 95.1406C590.208 95.6354 590.367 96.2448 590.367 96.9688C590.367 97.5052 590.253 97.9922 590.023 98.4297C589.799 98.8672 589.49 99.2344 589.094 99.5312C588.698 99.8229 588.24 100.023 587.719 100.133L587.383 100.258H583.438L583.422 99.4375H586.727C587.32 99.4375 587.815 99.3229 588.211 99.0938C588.607 98.8646 588.904 98.5625 589.102 98.1875C589.305 97.8073 589.406 97.401 589.406 96.9688C589.406 96.4531 589.294 96.0078 589.07 95.6328C588.852 95.2526 588.526 94.9609 588.094 94.7578C587.661 94.5547 587.133 94.4531 586.508 94.4531H583.773V105H582.812V93.625ZM589.836 105L586.891 99.9141L587.922 99.9062L590.859 104.898V105H589.836ZM599.875 93.625H600.836V101.328C600.836 102.182 600.656 102.893 600.297 103.461C599.938 104.029 599.453 104.453 598.844 104.734C598.24 105.016 597.57 105.156 596.836 105.156C596.081 105.156 595.401 105.016 594.797 104.734C594.193 104.453 593.714 104.029 593.359 103.461C593.01 102.893 592.836 102.182 592.836 101.328V93.625H593.789V101.328C593.789 101.99 593.919 102.544 594.18 102.992C594.44 103.44 594.799 103.776 595.258 104C595.716 104.224 596.242 104.336 596.836 104.336C597.424 104.336 597.948 104.224 598.406 104C598.865 103.776 599.224 103.44 599.484 102.992C599.745 102.544 599.875 101.99 599.875 101.328V93.625ZM607.406 100.367H604.164V99.5469H607.406C608.083 99.5469 608.633 99.4375 609.055 99.2188C609.482 98.9948 609.792 98.6927 609.984 98.3125C610.182 97.9323 610.281 97.5052 610.281 97.0312C610.281 96.5677 610.182 96.1406 609.984 95.75C609.792 95.3594 609.482 95.0469 609.055 94.8125C608.633 94.5729 608.083 94.4531 607.406 94.4531H604.5V105H603.539V93.625H607.406C608.24 93.625 608.94 93.7682 609.508 94.0547C610.081 94.3411 610.513 94.7396 610.805 95.25C611.096 95.7604 611.242 96.349 611.242 97.0156C611.242 97.7135 611.096 98.3151 610.805 98.8203C610.513 99.3203 610.083 99.7031 609.516 99.9688C608.948 100.234 608.245 100.367 607.406 100.367ZM617.211 93.625V105H616.258V93.625H617.211ZM621.109 93.625V94.4531H612.367V93.625H621.109ZM624.133 93.625V105H623.172V93.625H624.133ZM635.625 98.7031V99.9219C635.625 100.719 635.521 101.44 635.312 102.086C635.109 102.727 634.812 103.276 634.422 103.734C634.036 104.193 633.573 104.544 633.031 104.789C632.49 105.034 631.88 105.156 631.203 105.156C630.542 105.156 629.938 105.034 629.391 104.789C628.849 104.544 628.383 104.193 627.992 103.734C627.602 103.276 627.299 102.727 627.086 102.086C626.872 101.44 626.766 100.719 626.766 99.9219V98.7031C626.766 97.9062 626.87 97.1875 627.078 96.5469C627.292 95.901 627.594 95.349 627.984 94.8906C628.375 94.4323 628.841 94.0807 629.383 93.8359C629.924 93.5911 630.526 93.4688 631.188 93.4688C631.865 93.4688 632.474 93.5911 633.016 93.8359C633.557 94.0807 634.023 94.4323 634.414 94.8906C634.805 95.349 635.104 95.901 635.312 96.5469C635.521 97.1875 635.625 97.9062 635.625 98.7031ZM634.672 99.9219V98.6875C634.672 98.0156 634.594 97.4115 634.438 96.875C634.286 96.3385 634.06 95.8802 633.758 95.5C633.461 95.1198 633.096 94.8281 632.664 94.625C632.232 94.4219 631.74 94.3203 631.188 94.3203C630.651 94.3203 630.169 94.4219 629.742 94.625C629.315 94.8281 628.951 95.1198 628.648 95.5C628.352 95.8802 628.122 96.3385 627.961 96.875C627.805 97.4115 627.727 98.0156 627.727 98.6875V99.9219C627.727 100.599 627.805 101.208 627.961 101.75C628.122 102.286 628.354 102.747 628.656 103.133C628.958 103.513 629.323 103.805 629.75 104.008C630.182 104.211 630.667 104.312 631.203 104.312C631.76 104.312 632.253 104.211 632.68 104.008C633.107 103.805 633.469 103.513 633.766 103.133C634.062 102.747 634.286 102.286 634.438 101.75C634.594 101.208 634.672 100.599 634.672 99.9219ZM646.523 93.625V105H645.555L639.016 95.2812V105H638.055V93.625H639.016L645.57 103.344V93.625H646.523Z" fill="#161616"/>
<rect x="396" y="16" width="92" height="8" fill="#161616"/>
<path d="M199.312 126.625H200.273V134.328C200.273 135.182 200.094 135.893 199.734 136.461C199.375 137.029 198.891 137.453 198.281 137.734C197.677 138.016 197.008 138.156 196.273 138.156C195.518 138.156 194.839 138.016 194.234 137.734C193.63 137.453 193.151 137.029 192.797 136.461C192.448 135.893 192.273 135.182 192.273 134.328V126.625H193.227V134.328C193.227 134.99 193.357 135.544 193.617 135.992C193.878 136.44 194.237 136.776 194.695 137C195.154 137.224 195.68 137.336 196.273 137.336C196.862 137.336 197.385 137.224 197.844 137C198.302 136.776 198.661 136.44 198.922 135.992C199.182 135.544 199.312 134.99 199.312 134.328V126.625ZM211.445 126.625V138H210.477L203.938 128.281V138H202.977V126.625H203.938L210.492 136.344V126.625H211.445ZM220.789 135.203C220.789 134.891 220.737 134.612 220.633 134.367C220.529 134.122 220.357 133.904 220.117 133.711C219.883 133.513 219.565 133.331 219.164 133.164C218.768 132.992 218.273 132.823 217.68 132.656C217.112 132.495 216.599 132.318 216.141 132.125C215.682 131.932 215.289 131.711 214.961 131.461C214.638 131.211 214.391 130.919 214.219 130.586C214.047 130.247 213.961 129.854 213.961 129.406C213.961 128.969 214.055 128.57 214.242 128.211C214.43 127.852 214.693 127.542 215.031 127.281C215.375 127.021 215.779 126.82 216.242 126.68C216.711 126.539 217.224 126.469 217.781 126.469C218.578 126.469 219.266 126.62 219.844 126.922C220.427 127.224 220.878 127.633 221.195 128.148C221.518 128.659 221.68 129.232 221.68 129.867H220.719C220.719 129.372 220.602 128.932 220.367 128.547C220.138 128.156 219.805 127.852 219.367 127.633C218.935 127.409 218.406 127.297 217.781 127.297C217.156 127.297 216.63 127.393 216.203 127.586C215.781 127.773 215.461 128.026 215.242 128.344C215.029 128.656 214.922 129.005 214.922 129.391C214.922 129.661 214.974 129.911 215.078 130.141C215.182 130.365 215.352 130.576 215.586 130.773C215.826 130.966 216.141 131.148 216.531 131.32C216.922 131.487 217.404 131.646 217.977 131.797C218.581 131.964 219.117 132.148 219.586 132.352C220.055 132.555 220.451 132.789 220.773 133.055C221.096 133.315 221.341 133.62 221.508 133.969C221.674 134.318 221.758 134.724 221.758 135.188C221.758 135.651 221.659 136.068 221.461 136.438C221.268 136.802 220.995 137.112 220.641 137.367C220.292 137.622 219.878 137.818 219.398 137.953C218.924 138.089 218.406 138.156 217.844 138.156C217.339 138.156 216.836 138.091 216.336 137.961C215.836 137.831 215.378 137.63 214.961 137.359C214.549 137.083 214.219 136.729 213.969 136.297C213.724 135.865 213.602 135.349 213.602 134.75H214.555C214.555 135.229 214.651 135.633 214.844 135.961C215.036 136.289 215.292 136.555 215.609 136.758C215.932 136.961 216.286 137.109 216.672 137.203C217.062 137.292 217.453 137.336 217.844 137.336C218.443 137.336 218.961 137.247 219.398 137.07C219.841 136.893 220.182 136.646 220.422 136.328C220.667 136.005 220.789 135.63 220.789 135.203ZM230.906 137.18V138H224.508V137.18H230.906ZM224.797 126.625V138H223.836V126.625H224.797ZM230.109 131.727V132.547H224.508V131.727H230.109ZM230.867 126.625V127.453H224.508V126.625H230.867ZM241.414 126.625V138H240.445L233.906 128.281V138H232.945V126.625H233.906L240.461 136.344V126.625H241.414ZM247.898 126.625V138H246.945V126.625H247.898ZM251.797 126.625V127.453H243.055V126.625H251.797ZM260.719 137.18V138H254.32V137.18H260.719ZM254.609 126.625V138H253.648V126.625H254.609ZM259.922 131.727V132.547H254.32V131.727H259.922ZM260.68 126.625V127.453H254.32V126.625H260.68ZM271.227 126.625V138H270.258L263.719 128.281V138H262.758V126.625H263.719L270.273 136.344V126.625H271.227ZM281.219 134.453H282.18C282.102 135.219 281.891 135.88 281.547 136.438C281.203 136.99 280.734 137.414 280.141 137.711C279.547 138.008 278.831 138.156 277.992 138.156C277.346 138.156 276.76 138.034 276.234 137.789C275.714 137.544 275.266 137.198 274.891 136.75C274.516 136.297 274.227 135.755 274.023 135.125C273.82 134.495 273.719 133.794 273.719 133.023V131.602C273.719 130.831 273.82 130.133 274.023 129.508C274.227 128.878 274.518 128.336 274.898 127.883C275.279 127.43 275.734 127.081 276.266 126.836C276.797 126.591 277.396 126.469 278.062 126.469C278.87 126.469 279.568 126.617 280.156 126.914C280.745 127.206 281.208 127.628 281.547 128.18C281.891 128.732 282.102 129.398 282.18 130.18H281.219C281.146 129.565 280.984 129.044 280.734 128.617C280.484 128.19 280.138 127.865 279.695 127.641C279.258 127.411 278.714 127.297 278.062 127.297C277.531 127.297 277.057 127.398 276.641 127.602C276.224 127.805 275.87 128.096 275.578 128.477C275.286 128.852 275.062 129.302 274.906 129.828C274.755 130.354 274.68 130.94 274.68 131.586V133.023C274.68 133.648 274.753 134.224 274.898 134.75C275.044 135.276 275.258 135.732 275.539 136.117C275.826 136.503 276.174 136.802 276.586 137.016C276.997 137.229 277.466 137.336 277.992 137.336C278.664 137.336 279.224 137.229 279.672 137.016C280.125 136.797 280.477 136.474 280.727 136.047C280.977 135.62 281.141 135.089 281.219 134.453ZM291.594 137.18V138H285.195V137.18H291.594ZM285.484 126.625V138H284.523V126.625H285.484ZM290.797 131.727V132.547H285.195V131.727H290.797ZM291.555 126.625V127.453H285.195V126.625H291.555ZM296.742 138H294.164L294.18 137.18H296.742C297.56 137.18 298.263 136.997 298.852 136.633C299.445 136.263 299.904 135.753 300.227 135.102C300.549 134.451 300.711 133.695 300.711 132.836V131.773C300.711 131.117 300.617 130.523 300.43 129.992C300.247 129.461 299.984 129.008 299.641 128.633C299.297 128.253 298.885 127.961 298.406 127.758C297.932 127.555 297.401 127.453 296.812 127.453H294.117V126.625H296.812C297.521 126.625 298.169 126.747 298.758 126.992C299.352 127.232 299.865 127.581 300.297 128.039C300.734 128.492 301.07 129.036 301.305 129.672C301.544 130.307 301.664 131.016 301.664 131.797V132.836C301.664 133.617 301.544 134.326 301.305 134.961C301.07 135.596 300.734 136.141 300.297 136.594C299.859 137.047 299.341 137.396 298.742 137.641C298.143 137.88 297.477 138 296.742 138ZM294.594 126.625V138H293.633V126.625H294.594Z" fill="#161616"/>
<path d="M267.094 408.727V409.547H260.18V408.727H267.094ZM260.406 403.625V415H259.445V403.625H260.406ZM267.867 403.625V415H266.906V403.625H267.867ZM279.172 408.703V409.922C279.172 410.719 279.068 411.44 278.859 412.086C278.656 412.727 278.359 413.276 277.969 413.734C277.583 414.193 277.12 414.544 276.578 414.789C276.036 415.034 275.427 415.156 274.75 415.156C274.089 415.156 273.484 415.034 272.938 414.789C272.396 414.544 271.93 414.193 271.539 413.734C271.148 413.276 270.846 412.727 270.633 412.086C270.419 411.44 270.312 410.719 270.312 409.922V408.703C270.312 407.906 270.417 407.188 270.625 406.547C270.839 405.901 271.141 405.349 271.531 404.891C271.922 404.432 272.388 404.081 272.93 403.836C273.471 403.591 274.073 403.469 274.734 403.469C275.411 403.469 276.021 403.591 276.562 403.836C277.104 404.081 277.57 404.432 277.961 404.891C278.352 405.349 278.651 405.901 278.859 406.547C279.068 407.188 279.172 407.906 279.172 408.703ZM278.219 409.922V408.688C278.219 408.016 278.141 407.411 277.984 406.875C277.833 406.339 277.607 405.88 277.305 405.5C277.008 405.12 276.643 404.828 276.211 404.625C275.779 404.422 275.286 404.32 274.734 404.32C274.198 404.32 273.716 404.422 273.289 404.625C272.862 404.828 272.497 405.12 272.195 405.5C271.898 405.88 271.669 406.339 271.508 406.875C271.352 407.411 271.273 408.016 271.273 408.688V409.922C271.273 410.599 271.352 411.208 271.508 411.75C271.669 412.286 271.901 412.747 272.203 413.133C272.505 413.513 272.87 413.805 273.297 414.008C273.729 414.211 274.214 414.312 274.75 414.312C275.307 414.312 275.799 414.211 276.227 414.008C276.654 413.805 277.016 413.513 277.312 413.133C277.609 412.747 277.833 412.286 277.984 411.75C278.141 411.208 278.219 410.599 278.219 409.922ZM281.898 403.625H282.867L287.07 413.641L291.281 403.625H292.242L287.438 415H286.703L281.898 403.625ZM281.602 403.625H282.453L282.555 410.031V415H281.602V403.625ZM291.703 403.625H292.555V415H291.594V410.031L291.703 403.625ZM296.617 403.625V415H295.656V403.625H296.617ZM306.797 411.453H307.758C307.68 412.219 307.469 412.88 307.125 413.438C306.781 413.99 306.312 414.414 305.719 414.711C305.125 415.008 304.409 415.156 303.57 415.156C302.924 415.156 302.339 415.034 301.812 414.789C301.292 414.544 300.844 414.198 300.469 413.75C300.094 413.297 299.805 412.755 299.602 412.125C299.398 411.495 299.297 410.794 299.297 410.023V408.602C299.297 407.831 299.398 407.133 299.602 406.508C299.805 405.878 300.096 405.336 300.477 404.883C300.857 404.43 301.312 404.081 301.844 403.836C302.375 403.591 302.974 403.469 303.641 403.469C304.448 403.469 305.146 403.617 305.734 403.914C306.323 404.206 306.786 404.628 307.125 405.18C307.469 405.732 307.68 406.398 307.758 407.18H306.797C306.724 406.565 306.562 406.044 306.312 405.617C306.062 405.19 305.716 404.865 305.273 404.641C304.836 404.411 304.292 404.297 303.641 404.297C303.109 404.297 302.635 404.398 302.219 404.602C301.802 404.805 301.448 405.096 301.156 405.477C300.865 405.852 300.641 406.302 300.484 406.828C300.333 407.354 300.258 407.94 300.258 408.586V410.023C300.258 410.648 300.331 411.224 300.477 411.75C300.622 412.276 300.836 412.732 301.117 413.117C301.404 413.503 301.753 413.802 302.164 414.016C302.576 414.229 303.044 414.336 303.57 414.336C304.242 414.336 304.802 414.229 305.25 414.016C305.703 413.797 306.055 413.474 306.305 413.047C306.555 412.62 306.719 412.089 306.797 411.453ZM311.273 403.625V415H310.312V403.625H311.273ZM317.477 415H314.898L314.914 414.18H317.477C318.294 414.18 318.997 413.997 319.586 413.633C320.18 413.263 320.638 412.753 320.961 412.102C321.284 411.451 321.445 410.695 321.445 409.836V408.773C321.445 408.117 321.352 407.523 321.164 406.992C320.982 406.461 320.719 406.008 320.375 405.633C320.031 405.253 319.62 404.961 319.141 404.758C318.667 404.555 318.135 404.453 317.547 404.453H314.852V403.625H317.547C318.255 403.625 318.904 403.747 319.492 403.992C320.086 404.232 320.599 404.581 321.031 405.039C321.469 405.492 321.805 406.036 322.039 406.672C322.279 407.307 322.398 408.016 322.398 408.797V409.836C322.398 410.617 322.279 411.326 322.039 411.961C321.805 412.596 321.469 413.141 321.031 413.594C320.594 414.047 320.076 414.396 319.477 414.641C318.878 414.88 318.211 415 317.477 415ZM315.328 403.625V415H314.367V403.625H315.328ZM331.922 414.18V415H325.523V414.18H331.922ZM325.812 403.625V415H324.852V403.625H325.812ZM331.125 408.727V409.547H325.523V408.727H331.125ZM331.883 403.625V404.453H325.523V403.625H331.883Z" fill="#161616"/>
<path d="M278.742 706.625H279.711L283.914 716.641L288.125 706.625H289.086L284.281 718H283.547L278.742 706.625ZM278.445 706.625H279.297L279.398 713.031V718H278.445V706.625ZM288.547 706.625H289.398V718H288.438V713.031L288.547 706.625ZM300.688 711.703V712.922C300.688 713.719 300.583 714.44 300.375 715.086C300.172 715.727 299.875 716.276 299.484 716.734C299.099 717.193 298.635 717.544 298.094 717.789C297.552 718.034 296.943 718.156 296.266 718.156C295.604 718.156 295 718.034 294.453 717.789C293.911 717.544 293.445 717.193 293.055 716.734C292.664 716.276 292.362 715.727 292.148 715.086C291.935 714.44 291.828 713.719 291.828 712.922V711.703C291.828 710.906 291.932 710.188 292.141 709.547C292.354 708.901 292.656 708.349 293.047 707.891C293.438 707.432 293.904 707.081 294.445 706.836C294.987 706.591 295.589 706.469 296.25 706.469C296.927 706.469 297.536 706.591 298.078 706.836C298.62 707.081 299.086 707.432 299.477 707.891C299.867 708.349 300.167 708.901 300.375 709.547C300.583 710.188 300.688 710.906 300.688 711.703ZM299.734 712.922V711.688C299.734 711.016 299.656 710.411 299.5 709.875C299.349 709.339 299.122 708.88 298.82 708.5C298.523 708.12 298.159 707.828 297.727 707.625C297.294 707.422 296.802 707.32 296.25 707.32C295.714 707.32 295.232 707.422 294.805 707.625C294.378 707.828 294.013 708.12 293.711 708.5C293.414 708.88 293.185 709.339 293.023 709.875C292.867 710.411 292.789 711.016 292.789 711.688V712.922C292.789 713.599 292.867 714.208 293.023 714.75C293.185 715.286 293.417 715.747 293.719 716.133C294.021 716.513 294.385 716.805 294.812 717.008C295.245 717.211 295.729 717.312 296.266 717.312C296.823 717.312 297.315 717.211 297.742 717.008C298.169 716.805 298.531 716.513 298.828 716.133C299.125 715.747 299.349 715.286 299.5 714.75C299.656 714.208 299.734 713.599 299.734 712.922ZM311.586 706.625V718H310.617L304.078 708.281V718H303.117V706.625H304.078L310.633 716.344V706.625H311.586ZM321.562 717.18V718H315.164V717.18H321.562ZM315.453 706.625V718H314.492V706.625H315.453ZM320.766 711.727V712.547H315.164V711.727H320.766ZM321.523 706.625V707.453H315.164V706.625H321.523ZM323.484 706.625L326.93 712.82L330.406 706.625H331.516L327.414 713.711V718H326.453V713.711L322.344 706.625H323.484Z" fill="#161616"/>
<defs>
<linearGradient id="paint0_linear_67_152" x1="436.598" y1="3.10048" x2="-33.4312" y2="3.09825" gradientUnits="userSpaceOnUse">
<stop stop-color="#161616"/>
<stop offset="0.203125" stop-color="#161616"/>
<stop offset="1" stop-color="#E95122" stop-opacity="0.59"/>
</linearGradient>
<linearGradient id="paint1_linear_67_152" x1="436.5" y1="270.201" x2="-35.5" y2="270.2" gradientUnits="userSpaceOnUse">
<stop stop-color="#161616"/>
<stop offset="0.203125" stop-color="#161616"/>
<stop offset="1" stop-color="#E95122" stop-opacity="0.59"/>
</linearGradient>
<linearGradient id="paint2_linear_67_152" x1="436.5" y1="96.4019" x2="-35.5" y2="96.4014" gradientUnits="userSpaceOnUse">
<stop stop-color="#161616"/>
<stop offset="0.203125" stop-color="#161616"/>
<stop offset="1" stop-color="#E95122" stop-opacity="0.59"/>
</linearGradient>
<linearGradient id="paint3_linear_67_152" x1="436.5" y1="236.402" x2="-35.5" y2="236.401" gradientUnits="userSpaceOnUse">
<stop stop-color="#161616"/>
<stop offset="0.203125" stop-color="#161616"/>
<stop offset="1" stop-color="#E95122" stop-opacity="0.59"/>
</linearGradient>
<linearGradient id="paint4_linear_67_152" x1="436.598" y1="770.201" x2="-33.4312" y2="770.2" gradientUnits="userSpaceOnUse">
<stop stop-color="#161616"/>
<stop offset="0.203125" stop-color="#161616"/>
<stop offset="1" stop-color="#E95122" stop-opacity="0.59"/>
</linearGradient>
<linearGradient id="paint5_linear_67_152" x1="436.598" y1="826.201" x2="-33.4312" y2="826.2" gradientUnits="userSpaceOnUse">
<stop stop-color="#161616"/>
<stop offset="0.203125" stop-color="#161616"/>
<stop offset="1" stop-color="#E95122" stop-opacity="0.59"/>
</linearGradient>
<linearGradient id="paint6_linear_67_152" x1="436.598" y1="736.402" x2="-33.4312" y2="736.401" gradientUnits="userSpaceOnUse">
<stop stop-color="#161616"/>
<stop offset="0.203125" stop-color="#161616"/>
<stop offset="1" stop-color="#E95122" stop-opacity="0.59"/>
</linearGradient>
<linearGradient id="paint7_linear_67_152" x1="436.598" y1="652.402" x2="-33.4312" y2="652.401" gradientUnits="userSpaceOnUse">
<stop stop-color="#161616"/>
<stop offset="0.203125" stop-color="#161616"/>
<stop offset="1" stop-color="#E95122" stop-opacity="0.59"/>
</linearGradient>
<linearGradient id="paint8_linear_67_152" x1="436.5" y1="176.804" x2="-35.5" y2="176.804" gradientUnits="userSpaceOnUse">
<stop stop-color="#161616"/>
<stop offset="0.203125" stop-color="#161616"/>
<stop offset="1" stop-color="#E95122" stop-opacity="0.59"/>
</linearGradient>
<linearGradient id="paint9_linear_67_152" x1="436.597" y1="356.153" x2="-33.4482" y2="356.153" gradientUnits="userSpaceOnUse">
<stop stop-color="#161616"/>
<stop offset="0.203125" stop-color="#161616"/>
<stop offset="1" stop-color="#E95122" stop-opacity="0.59"/>
</linearGradient>
<linearGradient id="paint10_linear_67_152" x1="436.598" y1="448.804" x2="-33.4312" y2="448.804" gradientUnits="userSpaceOnUse">
<stop stop-color="#161616"/>
<stop offset="0.203125" stop-color="#161616"/>
<stop offset="1" stop-color="#E95122" stop-opacity="0.59"/>
</linearGradient>
<linearGradient id="paint11_linear_67_152" x1="436.598" y1="40.8038" x2="-33.4312" y2="40.8036" gradientUnits="userSpaceOnUse">
<stop stop-color="#161616"/>
<stop offset="0.203125" stop-color="#161616"/>
<stop offset="1" stop-color="#E95122" stop-opacity="0.59"/>
</linearGradient>
<linearGradient id="paint12_linear_67_152" x1="436.5" y1="300.402" x2="-35.5" y2="300.401" gradientUnits="userSpaceOnUse">
<stop stop-color="#161616"/>
<stop offset="0.203125" stop-color="#161616"/>
<stop offset="1" stop-color="#E95122" stop-opacity="0.59"/>
</linearGradient>
<linearGradient id="paint13_linear_67_152" x1="436.598" y1="799.1" x2="-33.4312" y2="799.098" gradientUnits="userSpaceOnUse">
<stop stop-color="#161616"/>
<stop offset="0.203125" stop-color="#161616"/>
<stop offset="1" stop-color="#E95122" stop-opacity="0.59"/>
</linearGradient>
<linearGradient id="paint14_linear_67_152" x1="436.598" y1="690.201" x2="-33.4312" y2="690.2" gradientUnits="userSpaceOnUse">
<stop stop-color="#161616"/>
<stop offset="0.203125" stop-color="#161616"/>
<stop offset="1" stop-color="#E95122" stop-opacity="0.59"/>
</linearGradient>
<linearGradient id="paint15_linear_67_152" x1="436.598" y1="520.402" x2="-33.4312" y2="520.401" gradientUnits="userSpaceOnUse">
<stop stop-color="#161616"/>
<stop offset="0.203125" stop-color="#161616"/>
<stop offset="1" stop-color="#E95122" stop-opacity="0.59"/>
</linearGradient>
<linearGradient id="paint16_linear_67_152" x1="436.598" y1="604.402" x2="-33.4312" y2="604.401" gradientUnits="userSpaceOnUse">
<stop stop-color="#161616"/>
<stop offset="0.203125" stop-color="#161616"/>
<stop offset="1" stop-color="#E95122" stop-opacity="0.59"/>
</linearGradient>
<linearGradient id="paint17_linear_67_152" x1="436.598" y1="570.201" x2="-33.4312" y2="570.2" gradientUnits="userSpaceOnUse">
<stop stop-color="#161616"/>
<stop offset="0.203125" stop-color="#161616"/>
<stop offset="1" stop-color="#E95122" stop-opacity="0.59"/>
</linearGradient>
</defs>
</svg>
