<svg width="640" height="861" viewBox="0 0 640 861" fill="none" xmlns="http://www.w3.org/2000/svg">
<rect x="515" y="860" width="808" height="8.00001" transform="rotate(-90 515 860)" fill="url(#paint0_linear_72_495)"/>
<rect x="531" y="860" width="808" height="8.00001" transform="rotate(-90 531 860)" fill="url(#paint1_linear_72_495)"/>
<rect x="595" y="860" width="775.518" height="4.00001" transform="rotate(-90 595 860)" fill="url(#paint2_linear_72_495)"/>
<rect x="627" y="860" width="775.518" height="4.00001" transform="rotate(-90 627 860)" fill="url(#paint3_linear_72_495)"/>
<rect x="636" y="860.518" width="775.518" height="4.00001" transform="rotate(-90 636 860.518)" fill="url(#paint4_linear_72_495)"/>
<rect x="563" y="860" width="791.759" height="16" transform="rotate(-90 563 860)" fill="url(#paint5_linear_72_495)"/>
<mask id="mask0_72_495" style="mask-type:alpha" maskUnits="userSpaceOnUse" x="0" y="0" width="515" height="860">
<path d="M74.6031 33.2268C83.6563 30.2422 91.5777 24.5217 94.4069 22.0345C98.9336 13.0807 140.301 4.62437 160.419 1.51541C172.993 5.55705 213.04 11.2154 272.64 1.51541C332.24 -8.18454 459.047 31.0505 515 51.8805V170.332V859.588C421.011 859.899 229.261 860.334 214.172 859.588C195.311 858.655 201.913 859.588 201.913 836.271C212.915 822.591 234.542 795.606 233.033 797.098C231.147 798.963 224.545 784.973 208.514 764.454C192.482 743.935 175.508 738.339 166.077 738.339H101.951C91.5775 738.339 83.0902 733.675 74.6031 729.012C66.1161 724.348 65.1725 694.502 61.4004 675.849C57.6283 657.195 41.5967 630.147 37.8245 626.416C34.0524 622.685 17.078 552.734 17.078 545.272V510.763C17.078 507.965 1.98937 495.84 1.98937 488.378C1.98937 480.917 10.4767 446.407 10.4767 438.946C10.4767 432.977 14.8776 427.754 17.078 425.888C17.078 417.494 15.7577 399.027 10.4767 392.312C3.87535 383.917 -3.66854 366.196 1.98937 351.273C7.64728 336.35 -6.49764 321.427 10.4767 301.841C18.964 291.581 10.4767 282.254 10.4767 276.658C10.4767 271.062 10.4767 254.274 17.078 249.61C23.6793 244.947 17.078 230.957 17.078 220.697C17.078 210.437 -3.66884 189.918 1.98937 185.255C6.51594 181.524 3.87544 173.752 1.98937 170.332V150.745C1.98937 142.351 7.64758 131.159 10.4767 121.832C13.3058 112.505 10.4768 105.044 17.078 100.38C23.6793 95.7169 16.135 83.5919 17.078 77.9958C18.0211 72.3997 19.9071 59.342 25.5653 51.8805C31.2235 44.419 35.9387 46.2844 47.2551 41.621C58.5715 36.9575 63.2867 36.9575 74.6031 33.2268Z" fill="#D9D9D9"/>
</mask>
<g mask="url(#mask0_72_495)">
<g filter="url(#filter0_d_72_495)">
<rect x="64.5" y="864" width="900.225" height="16" transform="rotate(-90 64.5 864)" fill="url(#paint6_linear_72_495)" shape-rendering="crispEdges"/>
</g>
<g filter="url(#filter1_d_72_495)">
<rect x="24.5" y="864" width="900.225" height="32" transform="rotate(-90 24.5 864)" fill="url(#paint7_linear_72_495)" shape-rendering="crispEdges"/>
</g>
<rect x="440.5" y="860.226" width="900.225" height="32" transform="rotate(-90 440.5 860.226)" fill="url(#paint8_linear_72_495)"/>
<rect x="-47.5" y="864" width="900.225" height="64" transform="rotate(-90 -47.5 864)" fill="url(#paint9_linear_72_495)"/>
<rect x="136" y="860" width="900" height="152" transform="rotate(-90 136 860)" fill="url(#paint10_linear_72_495)"/>
<g filter="url(#filter2_d_72_495)">
<rect x="88.5" y="864" width="900.225" height="32" transform="rotate(-90 88.5 864)" fill="url(#paint11_linear_72_495)" shape-rendering="crispEdges"/>
</g>
<rect x="484.5" y="860.226" width="900.225" height="16" transform="rotate(-90 484.5 860.226)" fill="url(#paint12_linear_72_495)"/>
<rect x="308.5" y="860.226" width="900.225" height="32" transform="rotate(-90 308.5 860.226)" fill="url(#paint13_linear_72_495)"/>
<rect x="392.5" y="860.226" width="900.225" height="32" transform="rotate(-90 392.5 860.226)" fill="url(#paint14_linear_72_495)"/>
<rect x="364.5" y="860.226" width="900.225" height="16" transform="rotate(-90 364.5 860.226)" fill="url(#paint15_linear_72_495)"/>
</g>
<path d="M160.727 93.9062L161.547 93.9062L161.547 100.82L160.727 100.82L160.727 93.9062ZM155.625 100.594L167 100.594L167 101.555L155.625 101.555L155.625 100.594ZM155.625 93.1328L167 93.1328L167 94.0937L155.625 94.0937L155.625 93.1328ZM160.703 81.8281L161.922 81.8281C162.719 81.8281 163.44 81.9323 164.086 82.1406C164.727 82.3437 165.276 82.6406 165.734 83.0312C166.193 83.4167 166.544 83.8802 166.789 84.4219C167.034 84.9635 167.156 85.5729 167.156 86.25C167.156 86.9115 167.034 87.5156 166.789 88.0625C166.544 88.6042 166.193 89.0703 165.734 89.4609C165.276 89.8516 164.727 90.1536 164.086 90.3672C163.44 90.5807 162.719 90.6875 161.922 90.6875L160.703 90.6875C159.906 90.6875 159.187 90.5833 158.547 90.375C157.901 90.1615 157.349 89.8594 156.891 89.4687C156.432 89.0781 156.081 88.612 155.836 88.0703C155.591 87.5286 155.469 86.9271 155.469 86.2656C155.469 85.5885 155.591 84.9792 155.836 84.4375C156.081 83.8958 156.432 83.4297 156.891 83.0391C157.349 82.6484 157.901 82.349 158.547 82.1406C159.187 81.9323 159.906 81.8281 160.703 81.8281ZM161.922 82.7812L160.687 82.7812C160.016 82.7812 159.411 82.8594 158.875 83.0156C158.339 83.1667 157.88 83.3932 157.5 83.6953C157.12 83.9922 156.828 84.3568 156.625 84.7891C156.422 85.2214 156.32 85.7135 156.32 86.2656C156.32 86.8021 156.422 87.2839 156.625 87.7109C156.828 88.138 157.12 88.5026 157.5 88.8047C157.88 89.1016 158.339 89.3307 158.875 89.4922C159.411 89.6484 160.016 89.7266 160.687 89.7266L161.922 89.7266C162.599 89.7266 163.208 89.6484 163.75 89.4922C164.286 89.3307 164.747 89.099 165.133 88.7969C165.513 88.4948 165.805 88.1302 166.008 87.7031C166.211 87.2708 166.312 86.7865 166.312 86.25C166.312 85.6927 166.211 85.2005 166.008 84.7734C165.805 84.3464 165.513 83.9844 165.133 83.6875C164.747 83.3906 164.286 83.1667 163.75 83.0156C163.208 82.8594 162.599 82.7812 161.922 82.7812ZM155.625 79.1016L155.625 78.1328L165.641 73.9297L155.625 69.7187L155.625 68.7578L167 73.5625L167 74.2969L155.625 79.1016ZM155.625 79.3984L155.625 78.5469L162.031 78.4453L167 78.4453L167 79.3984L155.625 79.3984ZM155.625 69.2969L155.625 68.4453L167 68.4453L167 69.4062L162.031 69.4062L155.625 69.2969ZM155.625 64.3828L167 64.3828L167 65.3437L155.625 65.3437L155.625 64.3828ZM163.453 54.2031L163.453 53.2422C164.219 53.3203 164.88 53.5312 165.437 53.875C165.99 54.2187 166.414 54.6875 166.711 55.2812C167.008 55.875 167.156 56.5911 167.156 57.4297C167.156 58.0755 167.034 58.6615 166.789 59.1875C166.544 59.7083 166.198 60.1562 165.75 60.5312C165.297 60.9062 164.755 61.1953 164.125 61.3984C163.495 61.6016 162.794 61.7031 162.023 61.7031L160.602 61.7031C159.831 61.7031 159.133 61.6016 158.508 61.3984C157.878 61.1953 157.336 60.9036 156.883 60.5234C156.43 60.1432 156.081 59.6875 155.836 59.1562C155.591 58.625 155.469 58.026 155.469 57.3594C155.469 56.5521 155.617 55.8542 155.914 55.2656C156.206 54.6771 156.628 54.2135 157.18 53.875C157.732 53.5312 158.398 53.3203 159.18 53.2422L159.18 54.2031C158.565 54.276 158.044 54.4375 157.617 54.6875C157.19 54.9375 156.865 55.2839 156.641 55.7266C156.411 56.1641 156.297 56.7083 156.297 57.3594C156.297 57.8906 156.398 58.3646 156.602 58.7812C156.805 59.1979 157.096 59.5521 157.477 59.8437C157.852 60.1354 158.302 60.3594 158.828 60.5156C159.354 60.6667 159.94 60.7422 160.586 60.7422L162.023 60.7422C162.648 60.7422 163.224 60.6693 163.75 60.5234C164.276 60.3776 164.732 60.1641 165.117 59.8828C165.503 59.5964 165.802 59.2474 166.016 58.8359C166.229 58.4245 166.336 57.9557 166.336 57.4297C166.336 56.7578 166.229 56.1979 166.016 55.75C165.797 55.2969 165.474 54.9453 165.047 54.6953C164.62 54.4453 164.089 54.2812 163.453 54.2031ZM155.625 49.7266L167 49.7266L167 50.6875L155.625 50.6875L155.625 49.7266ZM167 43.5234L167 46.1016L166.18 46.0859L166.18 43.5234C166.18 42.7057 165.997 42.0026 165.633 41.4141C165.263 40.8203 164.753 40.362 164.102 40.0391C163.451 39.7161 162.695 39.5547 161.836 39.5547L160.773 39.5547C160.117 39.5547 159.523 39.6484 158.992 39.8359C158.461 40.0182 158.008 40.2812 157.633 40.625C157.253 40.9687 156.961 41.3802 156.758 41.8594C156.555 42.3333 156.453 42.8646 156.453 43.4531L156.453 46.1484L155.625 46.1484L155.625 43.4531C155.625 42.7448 155.747 42.0964 155.992 41.5078C156.232 40.9141 156.581 40.401 157.039 39.9687C157.492 39.5312 158.036 39.1953 158.672 38.9609C159.307 38.7214 160.016 38.6016 160.797 38.6016L161.836 38.6016C162.617 38.6016 163.326 38.7214 163.961 38.9609C164.596 39.1953 165.141 39.5312 165.594 39.9687C166.047 40.4062 166.396 40.9245 166.641 41.5234C166.88 42.1224 167 42.7891 167 43.5234ZM155.625 45.6719L167 45.6719L167 46.6328L155.625 46.6328L155.625 45.6719ZM166.18 29.0781L167 29.0781L167 35.4766L166.18 35.4766L166.18 29.0781ZM155.625 35.1875L167 35.1875L167 36.1484L155.625 36.1484L155.625 35.1875ZM160.727 29.875L161.547 29.875L161.547 35.4766L160.727 35.4766L160.727 29.875ZM155.625 29.1172L156.453 29.1172L156.453 35.4766L155.625 35.4766L155.625 29.1172Z" fill="white"/>
<path d="M257.453 572.469L257.453 571.508C258.219 571.586 258.88 571.797 259.437 572.141C259.99 572.484 260.414 572.953 260.711 573.547C261.008 574.141 261.156 574.857 261.156 575.695C261.156 576.341 261.034 576.927 260.789 577.453C260.544 577.974 260.198 578.422 259.75 578.797C259.297 579.172 258.755 579.461 258.125 579.664C257.495 579.867 256.794 579.969 256.023 579.969L254.602 579.969C253.831 579.969 253.133 579.867 252.508 579.664C251.878 579.461 251.336 579.169 250.883 578.789C250.43 578.409 250.081 577.953 249.836 577.422C249.591 576.891 249.469 576.292 249.469 575.625C249.469 574.818 249.617 574.12 249.914 573.531C250.206 572.943 250.628 572.479 251.18 572.141C251.732 571.797 252.398 571.586 253.18 571.508L253.18 572.469C252.565 572.542 252.044 572.703 251.617 572.953C251.19 573.203 250.865 573.549 250.641 573.992C250.411 574.43 250.297 574.974 250.297 575.625C250.297 576.156 250.398 576.63 250.602 577.047C250.805 577.464 251.096 577.818 251.477 578.109C251.852 578.401 252.302 578.625 252.828 578.781C253.354 578.932 253.94 579.008 254.586 579.008L256.023 579.008C256.648 579.008 257.224 578.935 257.75 578.789C258.276 578.643 258.732 578.43 259.117 578.148C259.503 577.862 259.802 577.513 260.016 577.102C260.229 576.69 260.336 576.221 260.336 575.695C260.336 575.023 260.229 574.464 260.016 574.016C259.797 573.562 259.474 573.211 259.047 572.961C258.62 572.711 258.089 572.547 257.453 572.469ZM254.703 560.766L255.922 560.766C256.719 560.766 257.44 560.87 258.086 561.078C258.727 561.281 259.276 561.578 259.734 561.969C260.193 562.354 260.544 562.818 260.789 563.359C261.034 563.901 261.156 564.51 261.156 565.187C261.156 565.849 261.034 566.453 260.789 567C260.544 567.542 260.193 568.008 259.734 568.398C259.276 568.789 258.727 569.091 258.086 569.305C257.44 569.518 256.719 569.625 255.922 569.625L254.703 569.625C253.906 569.625 253.187 569.521 252.547 569.312C251.901 569.099 251.349 568.797 250.891 568.406C250.432 568.016 250.081 567.549 249.836 567.008C249.591 566.466 249.469 565.865 249.469 565.203C249.469 564.526 249.591 563.917 249.836 563.375C250.081 562.833 250.432 562.367 250.891 561.977C251.349 561.586 251.901 561.286 252.547 561.078C253.187 560.87 253.906 560.766 254.703 560.766ZM255.922 561.719L254.687 561.719C254.016 561.719 253.411 561.797 252.875 561.953C252.339 562.104 251.88 562.331 251.5 562.633C251.12 562.93 250.828 563.294 250.625 563.727C250.422 564.159 250.32 564.651 250.32 565.203C250.32 565.74 250.422 566.221 250.625 566.648C250.828 567.076 251.12 567.44 251.5 567.742C251.88 568.039 252.339 568.268 252.875 568.43C253.411 568.586 254.016 568.664 254.687 568.664L255.922 568.664C256.599 568.664 257.208 568.586 257.75 568.43C258.286 568.268 258.747 568.036 259.133 567.734C259.513 567.432 259.805 567.068 260.008 566.641C260.211 566.208 260.312 565.724 260.312 565.187C260.312 564.63 260.211 564.138 260.008 563.711C259.805 563.284 259.513 562.922 259.133 562.625C258.747 562.328 258.286 562.104 257.75 561.953C257.208 561.797 256.599 561.719 255.922 561.719ZM249.625 558.359L249.625 554.664C249.625 553.878 249.753 553.195 250.008 552.617C250.263 552.039 250.641 551.594 251.141 551.281C251.635 550.964 252.245 550.805 252.969 550.805C253.505 550.805 253.992 550.919 254.43 551.148C254.867 551.372 255.234 551.682 255.531 552.078C255.823 552.474 256.023 552.932 256.133 553.453L256.258 553.789L256.258 557.734L255.437 557.75L255.437 554.445C255.437 553.852 255.323 553.357 255.094 552.961C254.865 552.565 254.562 552.268 254.187 552.07C253.807 551.867 253.401 551.766 252.969 551.766C252.453 551.766 252.008 551.878 251.633 552.102C251.253 552.32 250.961 552.646 250.758 553.078C250.555 553.51 250.453 554.039 250.453 554.664L250.453 557.398L261 557.398L261 558.359L249.625 558.359ZM261 551.336L255.914 554.281L255.906 553.25L260.898 550.312L261 550.312L261 551.336ZM249.625 548.187L249.625 544.492C249.625 543.706 249.753 543.023 250.008 542.445C250.263 541.867 250.641 541.422 251.141 541.109C251.635 540.792 252.245 540.633 252.969 540.633C253.505 540.633 253.992 540.747 254.43 540.977C254.867 541.201 255.234 541.51 255.531 541.906C255.823 542.302 256.023 542.76 256.133 543.281L256.258 543.617L256.258 547.562L255.437 547.578L255.437 544.273C255.437 543.68 255.323 543.185 255.094 542.789C254.865 542.393 254.562 542.096 254.187 541.898C253.807 541.695 253.401 541.594 252.969 541.594C252.453 541.594 252.008 541.706 251.633 541.93C251.253 542.148 250.961 542.474 250.758 542.906C250.555 543.339 250.453 543.867 250.453 544.492L250.453 547.227L261 547.227L261 548.187L249.625 548.187ZM261 541.164L255.914 544.109L255.906 543.078L260.898 540.141L261 540.141L261 541.164ZM249.625 531.125L249.625 530.164L257.328 530.164C258.182 530.164 258.893 530.344 259.461 530.703C260.029 531.062 260.453 531.547 260.734 532.156C261.016 532.76 261.156 533.43 261.156 534.164C261.156 534.919 261.016 535.599 260.734 536.203C260.453 536.807 260.029 537.286 259.461 537.641C258.893 537.99 258.182 538.164 257.328 538.164L249.625 538.164L249.625 537.211L257.328 537.211C257.99 537.211 258.544 537.081 258.992 536.82C259.44 536.56 259.776 536.201 260 535.742C260.224 535.284 260.336 534.758 260.336 534.164C260.336 533.576 260.224 533.052 260 532.594C259.776 532.135 259.44 531.776 258.992 531.516C258.544 531.255 257.99 531.125 257.328 531.125L249.625 531.125ZM256.367 523.594L256.367 526.836L255.547 526.836L255.547 523.594C255.547 522.917 255.437 522.367 255.219 521.945C254.995 521.518 254.693 521.208 254.312 521.016C253.932 520.818 253.505 520.719 253.031 520.719C252.568 520.719 252.141 520.818 251.75 521.016C251.359 521.208 251.047 521.518 250.812 521.945C250.573 522.367 250.453 522.917 250.453 523.594L250.453 526.5L261 526.5L261 527.461L249.625 527.461L249.625 523.594C249.625 522.76 249.768 522.06 250.055 521.492C250.341 520.919 250.74 520.487 251.25 520.195C251.76 519.904 252.349 519.758 253.016 519.758C253.714 519.758 254.315 519.904 254.82 520.195C255.32 520.487 255.703 520.917 255.969 521.484C256.234 522.052 256.367 522.755 256.367 523.594ZM249.625 513.789L261 513.789L261 514.742L249.625 514.742L249.625 513.789ZM249.625 509.891L250.453 509.891L250.453 518.633L249.625 518.633L249.625 509.891ZM249.625 506.867L261 506.867L261 507.828L249.625 507.828L249.625 506.867ZM254.703 495.375L255.922 495.375C256.719 495.375 257.44 495.479 258.086 495.687C258.727 495.891 259.276 496.187 259.734 496.578C260.193 496.964 260.544 497.427 260.789 497.969C261.034 498.51 261.156 499.12 261.156 499.797C261.156 500.458 261.034 501.062 260.789 501.609C260.544 502.151 260.193 502.617 259.734 503.008C259.276 503.398 258.727 503.701 258.086 503.914C257.44 504.128 256.719 504.234 255.922 504.234L254.703 504.234C253.906 504.234 253.187 504.13 252.547 503.922C251.901 503.708 251.349 503.406 250.891 503.016C250.432 502.625 250.081 502.159 249.836 501.617C249.591 501.076 249.469 500.474 249.469 499.812C249.469 499.135 249.591 498.526 249.836 497.984C250.081 497.443 250.432 496.977 250.891 496.586C251.349 496.195 251.901 495.896 252.547 495.687C253.187 495.479 253.906 495.375 254.703 495.375ZM255.922 496.328L254.687 496.328C254.016 496.328 253.411 496.406 252.875 496.562C252.339 496.714 251.88 496.94 251.5 497.242C251.12 497.539 250.828 497.904 250.625 498.336C250.422 498.768 250.32 499.26 250.32 499.812C250.32 500.349 250.422 500.831 250.625 501.258C250.828 501.685 251.12 502.049 251.5 502.352C251.88 502.648 252.339 502.878 252.875 503.039C253.411 503.195 254.016 503.273 254.687 503.273L255.922 503.273C256.599 503.273 257.208 503.195 257.75 503.039C258.286 502.878 258.747 502.646 259.133 502.344C259.513 502.042 259.805 501.677 260.008 501.25C260.211 500.818 260.312 500.333 260.312 499.797C260.312 499.24 260.211 498.747 260.008 498.32C259.805 497.893 259.513 497.531 259.133 497.234C258.747 496.937 258.286 496.714 257.75 496.562C257.208 496.406 256.599 496.328 255.922 496.328ZM249.625 484.477L261 484.477L261 485.445L251.281 491.984L261 491.984L261 492.945L249.625 492.945L249.625 491.984L259.344 485.43L249.625 485.43L249.625 484.477Z" fill="white"/>
<path d="M456.367 309.687L456.367 312.93L455.547 312.93L455.547 309.687C455.547 309.01 455.437 308.461 455.219 308.039C454.995 307.612 454.693 307.302 454.312 307.109C453.932 306.911 453.505 306.812 453.031 306.812C452.568 306.812 452.141 306.911 451.75 307.109C451.359 307.302 451.047 307.612 450.812 308.039C450.573 308.461 450.453 309.01 450.453 309.687L450.453 312.594L461 312.594L461 313.555L449.625 313.555L449.625 309.687C449.625 308.854 449.768 308.154 450.055 307.586C450.341 307.013 450.74 306.581 451.25 306.289C451.76 305.997 452.349 305.852 453.016 305.852C453.714 305.852 454.315 305.997 454.82 306.289C455.32 306.581 455.703 307.01 455.969 307.578C456.234 308.146 456.367 308.849 456.367 309.687ZM449.625 303.719L449.625 300.023C449.625 299.237 449.753 298.555 450.008 297.977C450.263 297.398 450.641 296.953 451.141 296.641C451.635 296.323 452.245 296.164 452.969 296.164C453.505 296.164 453.992 296.279 454.43 296.508C454.867 296.732 455.234 297.042 455.531 297.437C455.823 297.833 456.023 298.292 456.133 298.812L456.258 299.148L456.258 303.094L455.437 303.109L455.437 299.805C455.437 299.211 455.323 298.716 455.094 298.32C454.865 297.924 454.562 297.628 454.187 297.43C453.807 297.227 453.401 297.125 452.969 297.125C452.453 297.125 452.008 297.237 451.633 297.461C451.253 297.68 450.961 298.005 450.758 298.437C450.555 298.87 450.453 299.398 450.453 300.023L450.453 302.758L461 302.758L461 303.719L449.625 303.719ZM461 296.695L455.914 299.641L455.906 298.609L460.898 295.672L461 295.672L461 296.695ZM449.625 292.352L461 292.352L461 293.312L449.625 293.312L449.625 292.352ZM458.203 282.82C457.891 282.82 457.612 282.872 457.367 282.977C457.122 283.081 456.904 283.253 456.711 283.492C456.513 283.727 456.331 284.044 456.164 284.445C455.992 284.841 455.823 285.336 455.656 285.93C455.495 286.497 455.318 287.01 455.125 287.469C454.932 287.927 454.711 288.32 454.461 288.648C454.211 288.971 453.919 289.219 453.586 289.391C453.247 289.562 452.854 289.648 452.406 289.648C451.969 289.648 451.57 289.555 451.211 289.367C450.852 289.18 450.542 288.917 450.281 288.578C450.021 288.234 449.82 287.831 449.68 287.367C449.539 286.898 449.469 286.385 449.469 285.828C449.469 285.031 449.62 284.344 449.922 283.766C450.224 283.182 450.633 282.732 451.148 282.414C451.659 282.091 452.232 281.93 452.867 281.93L452.867 282.891C452.372 282.891 451.932 283.008 451.547 283.242C451.156 283.471 450.852 283.805 450.633 284.242C450.409 284.674 450.297 285.203 450.297 285.828C450.297 286.453 450.393 286.979 450.586 287.406C450.773 287.828 451.026 288.148 451.344 288.367C451.656 288.581 452.005 288.687 452.391 288.687C452.661 288.687 452.911 288.635 453.141 288.531C453.365 288.427 453.576 288.258 453.773 288.023C453.966 287.784 454.148 287.469 454.32 287.078C454.487 286.687 454.646 286.206 454.797 285.633C454.964 285.029 455.148 284.492 455.352 284.023C455.555 283.555 455.789 283.159 456.055 282.836C456.315 282.513 456.62 282.268 456.969 282.102C457.318 281.935 457.724 281.852 458.187 281.852C458.651 281.852 459.068 281.951 459.437 282.148C459.802 282.341 460.112 282.615 460.367 282.969C460.622 283.318 460.818 283.732 460.953 284.211C461.089 284.685 461.156 285.203 461.156 285.766C461.156 286.271 461.091 286.773 460.961 287.273C460.831 287.773 460.63 288.232 460.359 288.648C460.083 289.06 459.729 289.391 459.297 289.641C458.865 289.885 458.349 290.008 457.75 290.008L457.75 289.055C458.229 289.055 458.633 288.958 458.961 288.766C459.289 288.573 459.555 288.318 459.758 288C459.961 287.677 460.109 287.323 460.203 286.937C460.292 286.547 460.336 286.156 460.336 285.766C460.336 285.167 460.247 284.648 460.07 284.211C459.893 283.768 459.646 283.427 459.328 283.187C459.005 282.943 458.63 282.82 458.203 282.82ZM454.703 271.375L455.922 271.375C456.719 271.375 457.44 271.479 458.086 271.687C458.727 271.891 459.276 272.187 459.734 272.578C460.193 272.964 460.544 273.427 460.789 273.969C461.034 274.51 461.156 275.12 461.156 275.797C461.156 276.458 461.034 277.062 460.789 277.609C460.544 278.151 460.193 278.617 459.734 279.008C459.276 279.398 458.727 279.701 458.086 279.914C457.44 280.128 456.719 280.234 455.922 280.234L454.703 280.234C453.906 280.234 453.187 280.13 452.547 279.922C451.901 279.708 451.349 279.406 450.891 279.016C450.432 278.625 450.081 278.159 449.836 277.617C449.591 277.076 449.469 276.474 449.469 275.812C449.469 275.135 449.591 274.526 449.836 273.984C450.081 273.443 450.432 272.977 450.891 272.586C451.349 272.195 451.901 271.896 452.547 271.687C453.187 271.479 453.906 271.375 454.703 271.375ZM455.922 272.328L454.687 272.328C454.016 272.328 453.411 272.406 452.875 272.562C452.339 272.714 451.88 272.94 451.5 273.242C451.12 273.539 450.828 273.904 450.625 274.336C450.422 274.768 450.32 275.26 450.32 275.812C450.32 276.349 450.422 276.831 450.625 277.258C450.828 277.685 451.12 278.049 451.5 278.352C451.88 278.648 452.339 278.878 452.875 279.039C453.411 279.195 454.016 279.273 454.687 279.273L455.922 279.273C456.599 279.273 457.208 279.195 457.75 279.039C458.286 278.878 458.747 278.646 459.133 278.344C459.513 278.042 459.805 277.677 460.008 277.25C460.211 276.818 460.312 276.333 460.312 275.797C460.312 275.24 460.211 274.747 460.008 274.32C459.805 273.893 459.513 273.531 459.133 273.234C458.747 272.937 458.286 272.714 457.75 272.562C457.208 272.406 456.599 272.328 455.922 272.328ZM449.625 260.477L461 260.477L461 261.445L451.281 267.984L461 267.984L461 268.945L449.625 268.945L449.625 267.984L459.344 261.43L449.625 261.43L449.625 260.477ZM449.625 250.164L461 250.164L461 251.117L449.625 251.117L449.625 250.164ZM449.625 246.266L450.453 246.266L450.453 255.008L449.625 255.008L449.625 246.266ZM449.625 243.242L461 243.242L461 244.203L449.625 244.203L449.625 243.242ZM449.625 239.852L449.625 238.883L459.641 234.68L449.625 230.469L449.625 229.508L461 234.312L461 235.047L449.625 239.852ZM449.625 240.148L449.625 239.297L456.031 239.195L461 239.195L461 240.148L449.625 240.148ZM449.625 230.047L449.625 229.195L461 229.195L461 230.156L456.031 230.156L449.625 230.047ZM460.18 219.234L461 219.234L461 225.633L460.18 225.633L460.18 219.234ZM449.625 225.344L461 225.344L461 226.305L449.625 226.305L449.625 225.344ZM454.727 220.031L455.547 220.031L455.547 225.633L454.727 225.633L454.727 220.031ZM449.625 219.273L450.453 219.273L450.453 225.633L449.625 225.633L449.625 219.273Z" fill="#FDFDFD"/>
<path d="M401.625 627.687L401.625 626.727L409.328 626.727C410.182 626.727 410.893 626.906 411.461 627.266C412.029 627.625 412.453 628.109 412.734 628.719C413.016 629.323 413.156 629.992 413.156 630.727C413.156 631.482 413.016 632.161 412.734 632.766C412.453 633.37 412.029 633.849 411.461 634.203C410.893 634.552 410.182 634.727 409.328 634.727L401.625 634.727L401.625 633.773L409.328 633.773C409.99 633.773 410.544 633.643 410.992 633.383C411.44 633.122 411.776 632.763 412 632.305C412.224 631.846 412.336 631.32 412.336 630.727C412.336 630.138 412.224 629.615 412 629.156C411.776 628.698 411.44 628.339 410.992 628.078C410.544 627.818 409.99 627.687 409.328 627.687L401.625 627.687ZM401.625 615.555L413 615.555L413 616.523L403.281 623.062L413 623.062L413 624.023L401.625 624.023L401.625 623.062L411.344 616.508L401.625 616.508L401.625 615.555ZM410.203 606.211C409.891 606.211 409.612 606.263 409.367 606.367C409.122 606.471 408.904 606.643 408.711 606.883C408.513 607.117 408.331 607.435 408.164 607.836C407.992 608.232 407.823 608.727 407.656 609.32C407.495 609.888 407.318 610.401 407.125 610.859C406.932 611.318 406.711 611.711 406.461 612.039C406.211 612.362 405.919 612.609 405.586 612.781C405.247 612.953 404.854 613.039 404.406 613.039C403.969 613.039 403.57 612.945 403.211 612.758C402.852 612.57 402.542 612.307 402.281 611.969C402.021 611.625 401.82 611.221 401.68 610.758C401.539 610.289 401.469 609.776 401.469 609.219C401.469 608.422 401.62 607.734 401.922 607.156C402.224 606.573 402.633 606.122 403.148 605.805C403.659 605.482 404.232 605.32 404.867 605.32L404.867 606.281C404.372 606.281 403.932 606.398 403.547 606.633C403.156 606.862 402.852 607.195 402.633 607.633C402.409 608.065 402.297 608.594 402.297 609.219C402.297 609.844 402.393 610.37 402.586 610.797C402.773 611.219 403.026 611.539 403.344 611.758C403.656 611.971 404.005 612.078 404.391 612.078C404.661 612.078 404.911 612.026 405.141 611.922C405.365 611.818 405.576 611.648 405.773 611.414C405.966 611.174 406.148 610.859 406.32 610.469C406.487 610.078 406.646 609.596 406.797 609.023C406.964 608.419 407.148 607.883 407.352 607.414C407.555 606.945 407.789 606.549 408.055 606.227C408.315 605.904 408.62 605.659 408.969 605.492C409.318 605.326 409.724 605.242 410.187 605.242C410.651 605.242 411.068 605.341 411.437 605.539C411.802 605.732 412.112 606.005 412.367 606.359C412.622 606.708 412.818 607.122 412.953 607.602C413.089 608.076 413.156 608.594 413.156 609.156C413.156 609.661 413.091 610.164 412.961 610.664C412.831 611.164 412.63 611.622 412.359 612.039C412.083 612.451 411.729 612.781 411.297 613.031C410.865 613.276 410.349 613.398 409.75 613.398L409.75 612.445C410.229 612.445 410.633 612.349 410.961 612.156C411.289 611.964 411.555 611.708 411.758 611.391C411.961 611.068 412.109 610.714 412.203 610.328C412.292 609.937 412.336 609.547 412.336 609.156C412.336 608.557 412.247 608.039 412.07 607.602C411.893 607.159 411.646 606.818 411.328 606.578C411.005 606.333 410.63 606.211 410.203 606.211ZM412.18 596.094L413 596.094L413 602.492L412.18 602.492L412.18 596.094ZM401.625 602.203L413 602.203L413 603.164L401.625 603.164L401.625 602.203ZM406.727 596.891L407.547 596.891L407.547 602.492L406.727 602.492L406.727 596.891ZM401.625 596.133L402.453 596.133L402.453 602.492L401.625 602.492L401.625 596.133ZM401.625 585.586L413 585.586L413 586.555L403.281 593.094L413 593.094L413 594.055L401.625 594.055L401.625 593.094L411.344 586.539L401.625 586.539L401.625 585.586ZM401.625 579.102L413 579.102L413 580.055L401.625 580.055L401.625 579.102ZM401.625 575.203L402.453 575.203L402.453 583.945L401.625 583.945L401.625 575.203ZM412.18 566.281L413 566.281L413 572.68L412.18 572.68L412.18 566.281ZM401.625 572.391L413 572.391L413 573.352L401.625 573.352L401.625 572.391ZM406.727 567.078L407.547 567.078L407.547 572.68L406.727 572.68L406.727 567.078ZM401.625 566.32L402.453 566.32L402.453 572.68L401.625 572.68L401.625 566.32ZM401.625 555.773L413 555.773L413 556.742L403.281 563.281L413 563.281L413 564.242L401.625 564.242L401.625 563.281L411.344 556.727L401.625 556.727L401.625 555.773ZM409.453 545.781L409.453 544.82C410.219 544.898 410.88 545.109 411.437 545.453C411.99 545.797 412.414 546.266 412.711 546.859C413.008 547.453 413.156 548.169 413.156 549.008C413.156 549.654 413.034 550.24 412.789 550.766C412.544 551.286 412.198 551.734 411.75 552.109C411.297 552.484 410.755 552.773 410.125 552.977C409.495 553.18 408.794 553.281 408.023 553.281L406.602 553.281C405.831 553.281 405.133 553.18 404.508 552.977C403.878 552.773 403.336 552.482 402.883 552.102C402.43 551.721 402.081 551.266 401.836 550.734C401.591 550.203 401.469 549.604 401.469 548.937C401.469 548.13 401.617 547.432 401.914 546.844C402.206 546.255 402.628 545.792 403.18 545.453C403.732 545.109 404.398 544.898 405.18 544.82L405.18 545.781C404.565 545.854 404.044 546.016 403.617 546.266C403.19 546.516 402.865 546.862 402.641 547.305C402.411 547.742 402.297 548.286 402.297 548.937C402.297 549.469 402.398 549.943 402.602 550.359C402.805 550.776 403.096 551.13 403.477 551.422C403.852 551.714 404.302 551.937 404.828 552.094C405.354 552.245 405.94 552.32 406.586 552.32L408.023 552.32C408.648 552.32 409.224 552.247 409.75 552.102C410.276 551.956 410.732 551.742 411.117 551.461C411.503 551.174 411.802 550.826 412.016 550.414C412.229 550.003 412.336 549.534 412.336 549.008C412.336 548.336 412.229 547.776 412.016 547.328C411.797 546.875 411.474 546.523 411.047 546.273C410.62 546.023 410.089 545.859 409.453 545.781ZM412.18 535.406L413 535.406L413 541.805L412.18 541.805L412.18 535.406ZM401.625 541.516L413 541.516L413 542.477L401.625 542.477L401.625 541.516ZM406.727 536.203L407.547 536.203L407.547 541.805L406.727 541.805L406.727 536.203ZM401.625 535.445L402.453 535.445L402.453 541.805L401.625 541.805L401.625 535.445ZM413 530.258L413 532.836L412.18 532.82L412.18 530.258C412.18 529.44 411.997 528.737 411.633 528.148C411.263 527.555 410.753 527.096 410.102 526.773C409.451 526.451 408.695 526.289 407.836 526.289L406.773 526.289C406.117 526.289 405.523 526.383 404.992 526.57C404.461 526.753 404.008 527.016 403.633 527.359C403.253 527.703 402.961 528.115 402.758 528.594C402.555 529.068 402.453 529.599 402.453 530.187L402.453 532.883L401.625 532.883L401.625 530.187C401.625 529.479 401.747 528.831 401.992 528.242C402.232 527.648 402.581 527.135 403.039 526.703C403.492 526.266 404.036 525.93 404.672 525.695C405.307 525.456 406.016 525.336 406.797 525.336L407.836 525.336C408.617 525.336 409.326 525.456 409.961 525.695C410.596 525.93 411.141 526.266 411.594 526.703C412.047 527.141 412.396 527.659 412.641 528.258C412.88 528.857 413 529.523 413 530.258ZM401.625 532.406L413 532.406L413 533.367L401.625 533.367L401.625 532.406Z" fill="white"/>
<path d="M107.367 694.687L107.367 697.93L106.547 697.93L106.547 694.687C106.547 694.01 106.437 693.461 106.219 693.039C105.995 692.612 105.693 692.302 105.312 692.109C104.932 691.911 104.505 691.812 104.031 691.812C103.568 691.812 103.141 691.911 102.75 692.109C102.359 692.302 102.047 692.612 101.812 693.039C101.573 693.461 101.453 694.01 101.453 694.687L101.453 697.594L112 697.594L112 698.555L100.625 698.555L100.625 694.687C100.625 693.854 100.768 693.154 101.055 692.586C101.341 692.013 101.74 691.581 102.25 691.289C102.76 690.997 103.349 690.852 104.016 690.852C104.714 690.852 105.315 690.997 105.82 691.289C106.32 691.581 106.703 692.01 106.969 692.578C107.234 693.146 107.367 693.849 107.367 694.687ZM111.18 681.625L112 681.625L112 688.023L111.18 688.023L111.18 681.625ZM100.625 687.734L112 687.734L112 688.695L100.625 688.695L100.625 687.734ZM105.727 682.422L106.547 682.422L106.547 688.023L105.727 688.023L105.727 682.422ZM100.625 681.664L101.453 681.664L101.453 688.023L100.625 688.023L100.625 681.664ZM100.625 679.609L100.625 675.914C100.625 675.128 100.753 674.445 101.008 673.867C101.263 673.289 101.641 672.844 102.141 672.531C102.635 672.214 103.245 672.055 103.969 672.055C104.505 672.055 104.992 672.169 105.43 672.398C105.867 672.622 106.234 672.932 106.531 673.328C106.823 673.724 107.023 674.182 107.133 674.703L107.258 675.039L107.258 678.984L106.437 679L106.437 675.695C106.437 675.102 106.323 674.607 106.094 674.211C105.865 673.815 105.562 673.518 105.187 673.32C104.807 673.117 104.401 673.016 103.969 673.016C103.453 673.016 103.008 673.128 102.633 673.352C102.253 673.57 101.961 673.896 101.758 674.328C101.555 674.76 101.453 675.289 101.453 675.914L101.453 678.648L112 678.648L112 679.609L100.625 679.609ZM112 672.586L106.914 675.531L106.906 674.5L111.898 671.562L112 671.562L112 672.586ZM108.453 662.328L108.453 661.367C109.219 661.445 109.88 661.656 110.437 662C110.99 662.344 111.414 662.812 111.711 663.406C112.008 664 112.156 664.716 112.156 665.555C112.156 666.201 112.034 666.786 111.789 667.312C111.544 667.833 111.198 668.281 110.75 668.656C110.297 669.031 109.755 669.32 109.125 669.523C108.495 669.727 107.794 669.828 107.023 669.828L105.602 669.828C104.831 669.828 104.133 669.727 103.508 669.523C102.878 669.32 102.336 669.029 101.883 668.648C101.43 668.268 101.081 667.812 100.836 667.281C100.591 666.75 100.469 666.151 100.469 665.484C100.469 664.677 100.617 663.979 100.914 663.391C101.206 662.802 101.628 662.339 102.18 662C102.732 661.656 103.398 661.445 104.18 661.367L104.18 662.328C103.565 662.401 103.044 662.562 102.617 662.812C102.19 663.062 101.865 663.409 101.641 663.852C101.411 664.289 101.297 664.833 101.297 665.484C101.297 666.016 101.398 666.49 101.602 666.906C101.805 667.323 102.096 667.677 102.477 667.969C102.852 668.26 103.302 668.484 103.828 668.641C104.354 668.792 104.94 668.867 105.586 668.867L107.023 668.867C107.648 668.867 108.224 668.794 108.75 668.648C109.276 668.503 109.732 668.289 110.117 668.008C110.503 667.721 110.802 667.372 111.016 666.961C111.229 666.549 111.336 666.081 111.336 665.555C111.336 664.883 111.229 664.323 111.016 663.875C110.797 663.422 110.474 663.07 110.047 662.82C109.62 662.57 109.089 662.406 108.453 662.328ZM111.18 651.953L112 651.953L112 658.352L111.18 658.352L111.18 651.953ZM100.625 658.062L112 658.062L112 659.023L100.625 659.023L100.625 658.062ZM105.727 652.75L106.547 652.75L106.547 658.352L105.727 658.352L105.727 652.75ZM100.625 651.992L101.453 651.992L101.453 658.352L100.625 658.352L100.625 651.992ZM107.367 646.047L107.367 649.289L106.547 649.289L106.547 646.047C106.547 645.37 106.437 644.82 106.219 644.398C105.995 643.971 105.693 643.661 105.312 643.469C104.932 643.271 104.505 643.172 104.031 643.172C103.568 643.172 103.141 643.271 102.75 643.469C102.359 643.661 102.047 643.971 101.812 644.398C101.573 644.82 101.453 645.37 101.453 646.047L101.453 648.953L112 648.953L112 649.914L100.625 649.914L100.625 646.047C100.625 645.214 100.768 644.513 101.055 643.945C101.341 643.372 101.74 642.94 102.25 642.648C102.76 642.357 103.349 642.211 104.016 642.211C104.714 642.211 105.315 642.357 105.82 642.648C106.32 642.94 106.703 643.37 106.969 643.937C107.234 644.505 107.367 645.208 107.367 646.047ZM100.625 636.242L112 636.242L112 637.195L100.625 637.195L100.625 636.242ZM100.625 632.344L101.453 632.344L101.453 641.086L100.625 641.086L100.625 632.344ZM100.625 629.32L112 629.32L112 630.281L100.625 630.281L100.625 629.32ZM105.703 617.828L106.922 617.828C107.719 617.828 108.44 617.932 109.086 618.141C109.727 618.344 110.276 618.641 110.734 619.031C111.193 619.417 111.544 619.88 111.789 620.422C112.034 620.964 112.156 621.573 112.156 622.25C112.156 622.911 112.034 623.516 111.789 624.062C111.544 624.604 111.193 625.07 110.734 625.461C110.276 625.852 109.727 626.154 109.086 626.367C108.44 626.581 107.719 626.687 106.922 626.687L105.703 626.687C104.906 626.687 104.187 626.583 103.547 626.375C102.901 626.161 102.349 625.859 101.891 625.469C101.432 625.078 101.081 624.612 100.836 624.07C100.591 623.529 100.469 622.927 100.469 622.266C100.469 621.589 100.591 620.979 100.836 620.437C101.081 619.896 101.432 619.43 101.891 619.039C102.349 618.648 102.901 618.349 103.547 618.141C104.187 617.932 104.906 617.828 105.703 617.828ZM106.922 618.781L105.687 618.781C105.016 618.781 104.411 618.859 103.875 619.016C103.339 619.167 102.88 619.393 102.5 619.695C102.12 619.992 101.828 620.357 101.625 620.789C101.422 621.221 101.32 621.714 101.32 622.266C101.32 622.802 101.422 623.284 101.625 623.711C101.828 624.138 102.12 624.503 102.5 624.805C102.88 625.102 103.339 625.331 103.875 625.492C104.411 625.648 105.016 625.727 105.687 625.727L106.922 625.727C107.599 625.727 108.208 625.648 108.75 625.492C109.286 625.331 109.747 625.099 110.133 624.797C110.513 624.495 110.805 624.13 111.008 623.703C111.211 623.271 111.312 622.786 111.312 622.25C111.312 621.693 111.211 621.201 111.008 620.773C110.805 620.346 110.513 619.984 110.133 619.687C109.747 619.391 109.286 619.167 108.75 619.016C108.208 618.859 107.599 618.781 106.922 618.781ZM100.625 606.93L112 606.93L112 607.898L102.281 614.437L112 614.437L112 615.398L100.625 615.398L100.625 614.437L110.344 607.883L100.625 607.883L100.625 606.93Z" fill="white"/>
<path d="M326.203 218.117C325.891 218.117 325.612 218.169 325.367 218.273C325.122 218.378 324.904 218.549 324.711 218.789C324.513 219.023 324.331 219.341 324.164 219.742C323.992 220.138 323.823 220.633 323.656 221.227C323.495 221.794 323.318 222.307 323.125 222.766C322.932 223.224 322.711 223.617 322.461 223.945C322.211 224.268 321.919 224.516 321.586 224.687C321.247 224.859 320.854 224.945 320.406 224.945C319.969 224.945 319.57 224.852 319.211 224.664C318.852 224.477 318.542 224.214 318.281 223.875C318.021 223.531 317.82 223.128 317.68 222.664C317.539 222.195 317.469 221.682 317.469 221.125C317.469 220.328 317.62 219.641 317.922 219.062C318.224 218.479 318.633 218.029 319.148 217.711C319.659 217.388 320.232 217.227 320.867 217.227L320.867 218.187C320.372 218.187 319.932 218.305 319.547 218.539C319.156 218.768 318.852 219.102 318.633 219.539C318.409 219.971 318.297 220.5 318.297 221.125C318.297 221.75 318.393 222.276 318.586 222.703C318.773 223.125 319.026 223.445 319.344 223.664C319.656 223.878 320.005 223.984 320.391 223.984C320.661 223.984 320.911 223.932 321.141 223.828C321.365 223.724 321.576 223.555 321.773 223.32C321.966 223.081 322.148 222.766 322.32 222.375C322.487 221.984 322.646 221.503 322.797 220.93C322.964 220.326 323.148 219.789 323.352 219.32C323.555 218.852 323.789 218.456 324.055 218.133C324.315 217.81 324.62 217.565 324.969 217.398C325.318 217.232 325.724 217.148 326.187 217.148C326.651 217.148 327.068 217.247 327.437 217.445C327.802 217.638 328.112 217.911 328.367 218.266C328.622 218.615 328.818 219.029 328.953 219.508C329.089 219.982 329.156 220.5 329.156 221.062C329.156 221.568 329.091 222.07 328.961 222.57C328.831 223.07 328.63 223.529 328.359 223.945C328.083 224.357 327.729 224.687 327.297 224.937C326.865 225.182 326.349 225.305 325.75 225.305L325.75 224.352C326.229 224.352 326.633 224.255 326.961 224.062C327.289 223.87 327.555 223.615 327.758 223.297C327.961 222.974 328.109 222.62 328.203 222.234C328.292 221.844 328.336 221.453 328.336 221.062C328.336 220.464 328.247 219.945 328.07 219.508C327.893 219.065 327.646 218.724 327.328 218.484C327.005 218.24 326.63 218.117 326.203 218.117ZM317.625 208.203L317.625 207.242L325.328 207.242C326.182 207.242 326.893 207.422 327.461 207.781C328.029 208.141 328.453 208.625 328.734 209.234C329.016 209.839 329.156 210.508 329.156 211.242C329.156 211.997 329.016 212.677 328.734 213.281C328.453 213.885 328.029 214.365 327.461 214.719C326.893 215.068 326.182 215.242 325.328 215.242L317.625 215.242L317.625 214.289L325.328 214.289C325.99 214.289 326.544 214.159 326.992 213.898C327.44 213.638 327.776 213.279 328 212.82C328.224 212.362 328.336 211.836 328.336 211.242C328.336 210.654 328.224 210.13 328 209.672C327.776 209.214 327.44 208.854 326.992 208.594C326.544 208.333 325.99 208.203 325.328 208.203L317.625 208.203ZM317.625 203.367L329 203.367L329 204.328L317.625 204.328L317.625 203.367ZM325.453 193.187L325.453 192.227C326.219 192.305 326.88 192.516 327.437 192.859C327.99 193.203 328.414 193.672 328.711 194.266C329.008 194.859 329.156 195.576 329.156 196.414C329.156 197.06 329.034 197.646 328.789 198.172C328.544 198.693 328.198 199.141 327.75 199.516C327.297 199.891 326.755 200.18 326.125 200.383C325.495 200.586 324.794 200.687 324.023 200.687L322.602 200.687C321.831 200.687 321.133 200.586 320.508 200.383C319.878 200.18 319.336 199.888 318.883 199.508C318.43 199.128 318.081 198.672 317.836 198.141C317.591 197.609 317.469 197.01 317.469 196.344C317.469 195.536 317.617 194.839 317.914 194.25C318.206 193.661 318.628 193.198 319.18 192.859C319.732 192.516 320.398 192.305 321.18 192.227L321.18 193.187C320.565 193.26 320.044 193.422 319.617 193.672C319.19 193.922 318.865 194.268 318.641 194.711C318.411 195.148 318.297 195.693 318.297 196.344C318.297 196.875 318.398 197.349 318.602 197.766C318.805 198.182 319.096 198.536 319.477 198.828C319.852 199.12 320.302 199.344 320.828 199.5C321.354 199.651 321.94 199.727 322.586 199.727L324.023 199.727C324.648 199.727 325.224 199.654 325.75 199.508C326.276 199.362 326.732 199.148 327.117 198.867C327.503 198.581 327.802 198.232 328.016 197.82C328.229 197.409 328.336 196.94 328.336 196.414C328.336 195.742 328.229 195.182 328.016 194.734C327.797 194.281 327.474 193.93 327.047 193.68C326.62 193.43 326.089 193.266 325.453 193.187ZM317.625 188.711L329 188.711L329 189.672L317.625 189.672L317.625 188.711ZM329 182.508L329 185.086L328.18 185.07L328.18 182.508C328.18 181.69 327.997 180.987 327.633 180.398C327.263 179.805 326.753 179.346 326.102 179.023C325.451 178.701 324.695 178.539 323.836 178.539L322.773 178.539C322.117 178.539 321.523 178.633 320.992 178.82C320.461 179.003 320.008 179.266 319.633 179.609C319.253 179.953 318.961 180.365 318.758 180.844C318.555 181.318 318.453 181.849 318.453 182.437L318.453 185.133L317.625 185.133L317.625 182.437C317.625 181.729 317.747 181.081 317.992 180.492C318.232 179.898 318.581 179.385 319.039 178.953C319.492 178.516 320.036 178.18 320.672 177.945C321.307 177.706 322.016 177.586 322.797 177.586L323.836 177.586C324.617 177.586 325.326 177.706 325.961 177.945C326.596 178.18 327.141 178.516 327.594 178.953C328.047 179.391 328.396 179.909 328.641 180.508C328.88 181.107 329 181.773 329 182.508ZM317.625 184.656L329 184.656L329 185.617L317.625 185.617L317.625 184.656ZM328.18 168.062L329 168.062L329 174.461L328.18 174.461L328.18 168.062ZM317.625 174.172L329 174.172L329 175.133L317.625 175.133L317.625 174.172ZM322.727 168.859L323.547 168.859L323.547 174.461L322.727 174.461L322.727 168.859ZM317.625 168.102L318.453 168.102L318.453 174.461L317.625 174.461L317.625 168.102Z" fill="white"/>
<path d="M211.453 320.469L211.453 319.508C212.219 319.586 212.88 319.797 213.437 320.141C213.99 320.484 214.414 320.953 214.711 321.547C215.008 322.141 215.156 322.857 215.156 323.695C215.156 324.341 215.034 324.927 214.789 325.453C214.544 325.974 214.198 326.422 213.75 326.797C213.297 327.172 212.755 327.461 212.125 327.664C211.495 327.867 210.794 327.969 210.023 327.969L208.602 327.969C207.831 327.969 207.133 327.867 206.508 327.664C205.878 327.461 205.336 327.169 204.883 326.789C204.43 326.409 204.081 325.953 203.836 325.422C203.591 324.891 203.469 324.292 203.469 323.625C203.469 322.818 203.617 322.12 203.914 321.531C204.206 320.943 204.628 320.479 205.18 320.141C205.732 319.797 206.398 319.586 207.18 319.508L207.18 320.469C206.565 320.542 206.044 320.703 205.617 320.953C205.19 321.203 204.865 321.549 204.641 321.992C204.411 322.43 204.297 322.974 204.297 323.625C204.297 324.156 204.398 324.63 204.602 325.047C204.805 325.464 205.096 325.818 205.477 326.109C205.852 326.401 206.302 326.625 206.828 326.781C207.354 326.932 207.94 327.008 208.586 327.008L210.023 327.008C210.648 327.008 211.224 326.935 211.75 326.789C212.276 326.643 212.732 326.43 213.117 326.148C213.503 325.862 213.802 325.513 214.016 325.102C214.229 324.69 214.336 324.221 214.336 323.695C214.336 323.023 214.229 322.464 214.016 322.016C213.797 321.562 213.474 321.211 213.047 320.961C212.62 320.711 212.089 320.547 211.453 320.469ZM203.625 317.187L203.625 313.492C203.625 312.706 203.753 312.023 204.008 311.445C204.263 310.867 204.641 310.422 205.141 310.109C205.635 309.792 206.245 309.633 206.969 309.633C207.505 309.633 207.992 309.747 208.43 309.977C208.867 310.201 209.234 310.51 209.531 310.906C209.823 311.302 210.023 311.76 210.133 312.281L210.258 312.617L210.258 316.562L209.437 316.578L209.437 313.273C209.437 312.68 209.323 312.185 209.094 311.789C208.865 311.393 208.562 311.096 208.187 310.898C207.807 310.695 207.401 310.594 206.969 310.594C206.453 310.594 206.008 310.706 205.633 310.93C205.253 311.148 204.961 311.474 204.758 311.906C204.555 312.339 204.453 312.867 204.453 313.492L204.453 316.227L215 316.227L215 317.187L203.625 317.187ZM215 310.164L209.914 313.109L209.906 312.078L214.898 309.141L215 309.141L215 310.164ZM203.625 305.82L215 305.82L215 306.781L203.625 306.781L203.625 305.82ZM203.625 302.43L203.625 301.461L213.641 297.258L203.625 293.047L203.625 292.086L215 296.891L215 297.625L203.625 302.43ZM203.625 302.727L203.625 301.875L210.031 301.773L215 301.773L215 302.727L203.625 302.727ZM203.625 292.625L203.625 291.773L215 291.773L215 292.734L210.031 292.734L203.625 292.625ZM214.18 281.812L215 281.812L215 288.211L214.18 288.211L214.18 281.812ZM203.625 287.922L215 287.922L215 288.883L203.625 288.883L203.625 287.922ZM208.727 282.609L209.547 282.609L209.547 288.211L208.727 288.211L208.727 282.609ZM203.625 281.852L204.453 281.852L204.453 288.211L203.625 288.211L203.625 281.852Z" fill="white"/>
<path d="M41.6094 317.531L33.625 317.531L33.625 316.57L41.6094 316.57C42.375 316.57 43.0208 316.721 43.5469 317.023C44.0729 317.32 44.474 317.727 44.75 318.242C45.0208 318.758 45.1562 319.346 45.1562 320.008C45.1562 320.685 45.0365 321.284 44.7969 321.805C44.5573 322.32 44.1953 322.721 43.7109 323.008C43.2214 323.294 42.6042 323.437 41.8594 323.437L41.8594 322.477C42.4062 322.477 42.8646 322.38 43.2344 322.187C43.599 321.99 43.875 321.706 44.0625 321.336C44.2448 320.966 44.3359 320.523 44.3359 320.008C44.3359 319.544 44.2344 319.128 44.0312 318.758C43.8229 318.383 43.5182 318.086 43.1172 317.867C42.7109 317.643 42.2083 317.531 41.6094 317.531ZM33.625 306.875L33.625 305.914L41.3281 305.914C42.1823 305.914 42.8932 306.094 43.4609 306.453C44.0286 306.812 44.4531 307.297 44.7344 307.906C45.0156 308.51 45.1562 309.18 45.1562 309.914C45.1562 310.669 45.0156 311.349 44.7344 311.953C44.4531 312.557 44.0286 313.036 43.4609 313.391C42.8932 313.74 42.1823 313.914 41.3281 313.914L33.625 313.914L33.625 312.961L41.3281 312.961C41.9896 312.961 42.5443 312.831 42.9922 312.57C43.4401 312.31 43.776 311.951 44 311.492C44.224 311.034 44.3359 310.508 44.3359 309.914C44.3359 309.326 44.224 308.802 44 308.344C43.776 307.885 43.4401 307.526 42.9922 307.266C42.5443 307.005 41.9896 306.875 41.3281 306.875L33.625 306.875ZM42.2031 296.773C41.8906 296.773 41.612 296.826 41.3672 296.93C41.1224 297.034 40.9036 297.206 40.7109 297.445C40.513 297.68 40.3307 297.997 40.1641 298.398C39.9922 298.794 39.8229 299.289 39.6562 299.883C39.4948 300.451 39.3177 300.964 39.125 301.422C38.9323 301.88 38.7109 302.273 38.4609 302.602C38.2109 302.924 37.9193 303.172 37.5859 303.344C37.2474 303.516 36.8542 303.602 36.4062 303.602C35.9687 303.602 35.5703 303.508 35.2109 303.32C34.8516 303.133 34.5417 302.87 34.2812 302.531C34.0208 302.187 33.8203 301.784 33.6797 301.32C33.5391 300.852 33.4687 300.339 33.4687 299.781C33.4687 298.984 33.6198 298.297 33.9219 297.719C34.224 297.135 34.6328 296.685 35.1484 296.367C35.6589 296.044 36.2318 295.883 36.8672 295.883L36.8672 296.844C36.3724 296.844 35.9323 296.961 35.5469 297.195C35.1562 297.424 34.8516 297.758 34.6328 298.195C34.4089 298.628 34.2969 299.156 34.2969 299.781C34.2969 300.406 34.3932 300.932 34.5859 301.359C34.7734 301.781 35.026 302.102 35.3437 302.32C35.6562 302.534 36.0052 302.641 36.3906 302.641C36.6615 302.641 36.9115 302.589 37.1406 302.484C37.3646 302.38 37.5755 302.211 37.7734 301.977C37.9661 301.737 38.1484 301.422 38.3203 301.031C38.487 300.641 38.6458 300.159 38.7969 299.586C38.9635 298.982 39.1484 298.445 39.3516 297.977C39.5547 297.508 39.7891 297.112 40.0547 296.789C40.3151 296.466 40.6198 296.221 40.9687 296.055C41.3177 295.888 41.724 295.805 42.1875 295.805C42.651 295.805 43.0677 295.904 43.4375 296.102C43.8021 296.294 44.112 296.568 44.3672 296.922C44.6224 297.271 44.8177 297.685 44.9531 298.164C45.0885 298.638 45.1562 299.156 45.1562 299.719C45.1562 300.224 45.0911 300.727 44.9609 301.227C44.8307 301.727 44.6302 302.185 44.3594 302.602C44.0833 303.013 43.7292 303.344 43.2969 303.594C42.8646 303.839 42.349 303.961 41.75 303.961L41.75 303.008C42.2292 303.008 42.6328 302.911 42.9609 302.719C43.2891 302.526 43.5547 302.271 43.7578 301.953C43.9609 301.63 44.1094 301.276 44.2031 300.891C44.2917 300.5 44.3359 300.109 44.3359 299.719C44.3359 299.12 44.2474 298.602 44.0703 298.164C43.8932 297.721 43.6458 297.38 43.3281 297.141C43.0052 296.896 42.6302 296.773 42.2031 296.773ZM33.625 289.914L45 289.914L45 290.867L33.625 290.867L33.625 289.914ZM33.625 286.016L34.4531 286.016L34.4531 294.758L33.625 294.758L33.625 286.016ZM33.625 282.992L45 282.992L45 283.953L33.625 283.953L33.625 282.992ZM41.4531 272.812L41.4531 271.852C42.2187 271.93 42.8802 272.141 43.4375 272.484C43.9896 272.828 44.4141 273.297 44.7109 273.891C45.0078 274.484 45.1562 275.201 45.1562 276.039C45.1562 276.685 45.0339 277.271 44.7891 277.797C44.5443 278.318 44.1979 278.766 43.75 279.141C43.2969 279.516 42.7552 279.805 42.125 280.008C41.4948 280.211 40.7943 280.312 40.0234 280.312L38.6016 280.312C37.8307 280.312 37.1328 280.211 36.5078 280.008C35.8776 279.805 35.3359 279.513 34.8828 279.133C34.4297 278.753 34.0807 278.297 33.8359 277.766C33.5911 277.234 33.4687 276.635 33.4687 275.969C33.4687 275.161 33.6172 274.464 33.9141 273.875C34.2057 273.286 34.6276 272.823 35.1797 272.484C35.7318 272.141 36.3984 271.93 37.1797 271.852L37.1797 272.812C36.5651 272.885 36.0443 273.047 35.6172 273.297C35.1901 273.547 34.8646 273.893 34.6406 274.336C34.4115 274.773 34.2969 275.318 34.2969 275.969C34.2969 276.5 34.3984 276.974 34.6016 277.391C34.8047 277.807 35.0964 278.161 35.4766 278.453C35.8516 278.745 36.3021 278.969 36.8281 279.125C37.3542 279.276 37.9401 279.352 38.5859 279.352L40.0234 279.352C40.6484 279.352 41.224 279.279 41.75 279.133C42.276 278.987 42.7318 278.773 43.1172 278.492C43.5026 278.206 43.8021 277.857 44.0156 277.445C44.2292 277.034 44.3359 276.565 44.3359 276.039C44.3359 275.367 44.2292 274.807 44.0156 274.359C43.7969 273.906 43.474 273.555 43.0469 273.305C42.6198 273.055 42.0885 272.891 41.4531 272.812ZM44.1797 262.437L45 262.437L45 268.836L44.1797 268.836L44.1797 262.437ZM33.625 268.547L45 268.547L45 269.508L33.625 269.508L33.625 268.547ZM38.7266 263.234L39.5469 263.234L39.5469 268.836L38.7266 268.836L38.7266 263.234ZM33.625 262.477L34.4531 262.477L34.4531 268.836L33.625 268.836L33.625 262.477Z" fill="white"/>
<defs>
<filter id="filter0_d_72_495" x="60.5" y="-36.2254" width="24" height="908.225" filterUnits="userSpaceOnUse" color-interpolation-filters="sRGB">
<feFlood flood-opacity="0" result="BackgroundImageFix"/>
<feColorMatrix in="SourceAlpha" type="matrix" values="0 0 0 0 0 0 0 0 0 0 0 0 0 0 0 0 0 0 127 0" result="hardAlpha"/>
<feOffset dy="4"/>
<feGaussianBlur stdDeviation="2"/>
<feComposite in2="hardAlpha" operator="out"/>
<feColorMatrix type="matrix" values="0 0 0 0 0 0 0 0 0 0 0 0 0 0 0 0 0 0 0.25 0"/>
<feBlend mode="normal" in2="BackgroundImageFix" result="effect1_dropShadow_72_495"/>
<feBlend mode="normal" in="SourceGraphic" in2="effect1_dropShadow_72_495" result="shape"/>
</filter>
<filter id="filter1_d_72_495" x="20.5" y="-36.2254" width="40" height="908.225" filterUnits="userSpaceOnUse" color-interpolation-filters="sRGB">
<feFlood flood-opacity="0" result="BackgroundImageFix"/>
<feColorMatrix in="SourceAlpha" type="matrix" values="0 0 0 0 0 0 0 0 0 0 0 0 0 0 0 0 0 0 127 0" result="hardAlpha"/>
<feOffset dy="4"/>
<feGaussianBlur stdDeviation="2"/>
<feComposite in2="hardAlpha" operator="out"/>
<feColorMatrix type="matrix" values="0 0 0 0 0 0 0 0 0 0 0 0 0 0 0 0 0 0 0.25 0"/>
<feBlend mode="normal" in2="BackgroundImageFix" result="effect1_dropShadow_72_495"/>
<feBlend mode="normal" in="SourceGraphic" in2="effect1_dropShadow_72_495" result="shape"/>
</filter>
<filter id="filter2_d_72_495" x="84.5" y="-36.2254" width="40" height="908.225" filterUnits="userSpaceOnUse" color-interpolation-filters="sRGB">
<feFlood flood-opacity="0" result="BackgroundImageFix"/>
<feColorMatrix in="SourceAlpha" type="matrix" values="0 0 0 0 0 0 0 0 0 0 0 0 0 0 0 0 0 0 127 0" result="hardAlpha"/>
<feOffset dy="4"/>
<feGaussianBlur stdDeviation="2"/>
<feComposite in2="hardAlpha" operator="out"/>
<feColorMatrix type="matrix" values="0 0 0 0 0 0 0 0 0 0 0 0 0 0 0 0 0 0 0.25 0"/>
<feBlend mode="normal" in2="BackgroundImageFix" result="effect1_dropShadow_72_495"/>
<feBlend mode="normal" in="SourceGraphic" in2="effect1_dropShadow_72_495" result="shape"/>
</filter>
<linearGradient id="paint0_linear_72_495" x1="1339.03" y1="862.106" x2="444.46" y2="862.203" gradientUnits="userSpaceOnUse">
<stop stop-color="#081725"/>
<stop offset="1" stop-color="#E95122" stop-opacity="0.57"/>
</linearGradient>
<linearGradient id="paint1_linear_72_495" x1="1355.03" y1="862.106" x2="460.46" y2="862.203" gradientUnits="userSpaceOnUse">
<stop stop-color="#081725"/>
<stop offset="1" stop-color="#E95122" stop-opacity="0.57"/>
</linearGradient>
<linearGradient id="paint2_linear_72_495" x1="1385.9" y1="861.053" x2="527.296" y2="861.232" gradientUnits="userSpaceOnUse">
<stop stop-color="#081725"/>
<stop offset="1" stop-color="#E95122" stop-opacity="0.57"/>
</linearGradient>
<linearGradient id="paint3_linear_72_495" x1="1417.9" y1="861.053" x2="559.296" y2="861.232" gradientUnits="userSpaceOnUse">
<stop stop-color="#081725"/>
<stop offset="1" stop-color="#E95122" stop-opacity="0.57"/>
</linearGradient>
<linearGradient id="paint4_linear_72_495" x1="1426.9" y1="861.57" x2="568.296" y2="861.75" gradientUnits="userSpaceOnUse">
<stop stop-color="#081725"/>
<stop offset="1" stop-color="#E95122" stop-opacity="0.57"/>
</linearGradient>
<linearGradient id="paint5_linear_72_495" x1="1370.47" y1="864.211" x2="493.878" y2="864.258" gradientUnits="userSpaceOnUse">
<stop stop-color="#081725"/>
<stop offset="1" stop-color="#E95122" stop-opacity="0.57"/>
</linearGradient>
<linearGradient id="paint6_linear_72_495" x1="920.926" y1="870.201" x2="41.2023" y2="870.197" gradientUnits="userSpaceOnUse">
<stop offset="0.21875" stop-color="#081725"/>
<stop offset="1" stop-color="#E95122" stop-opacity="0.51"/>
</linearGradient>
<linearGradient id="paint7_linear_72_495" x1="880.926" y1="876.402" x2="1.20226" y2="876.4" gradientUnits="userSpaceOnUse">
<stop offset="0.21875" stop-color="#081725"/>
<stop offset="1" stop-color="#E95122" stop-opacity="0.51"/>
</linearGradient>
<linearGradient id="paint8_linear_72_495" x1="1296.93" y1="872.627" x2="417.202" y2="872.626" gradientUnits="userSpaceOnUse">
<stop offset="0.21875" stop-color="#081725"/>
<stop offset="1" stop-color="#E95122" stop-opacity="0.51"/>
</linearGradient>
<linearGradient id="paint9_linear_72_495" x1="808.926" y1="888.804" x2="-70.7977" y2="888.803" gradientUnits="userSpaceOnUse">
<stop offset="0.21875" stop-color="#081725"/>
<stop offset="1" stop-color="#E95122" stop-opacity="0.51"/>
</linearGradient>
<linearGradient id="paint10_linear_72_495" x1="992.211" y1="918.909" x2="112.708" y2="918.909" gradientUnits="userSpaceOnUse">
<stop offset="0.21875" stop-color="#081725"/>
<stop offset="1" stop-color="#E95122" stop-opacity="0.51"/>
</linearGradient>
<linearGradient id="paint11_linear_72_495" x1="944.926" y1="876.402" x2="65.2023" y2="876.4" gradientUnits="userSpaceOnUse">
<stop offset="0.21875" stop-color="#081725"/>
<stop offset="1" stop-color="#E95122" stop-opacity="0.51"/>
</linearGradient>
<linearGradient id="paint12_linear_72_495" x1="1340.93" y1="866.427" x2="461.202" y2="866.423" gradientUnits="userSpaceOnUse">
<stop offset="0.21875" stop-color="#081725"/>
<stop offset="1" stop-color="#E95122" stop-opacity="0.51"/>
</linearGradient>
<linearGradient id="paint13_linear_72_495" x1="1164.93" y1="872.627" x2="285.202" y2="872.625" gradientUnits="userSpaceOnUse">
<stop offset="0.21875" stop-color="#081725"/>
<stop offset="1" stop-color="#E95122" stop-opacity="0.51"/>
</linearGradient>
<linearGradient id="paint14_linear_72_495" x1="1248.93" y1="872.627" x2="369.202" y2="872.625" gradientUnits="userSpaceOnUse">
<stop offset="0.21875" stop-color="#081725"/>
<stop offset="1" stop-color="#E95122" stop-opacity="0.51"/>
</linearGradient>
<linearGradient id="paint15_linear_72_495" x1="1220.93" y1="866.426" x2="341.202" y2="866.423" gradientUnits="userSpaceOnUse">
<stop offset="0.21875" stop-color="#081725"/>
<stop offset="1" stop-color="#E95122" stop-opacity="0.51"/>
</linearGradient>
</defs>
</svg>
