<svg width="77" height="834" viewBox="0 0 77 834" fill="none" xmlns="http://www.w3.org/2000/svg">
<rect x="-0.000976562" width="76" height="2" fill="#161616"/>
<rect x="51.999" y="16" width="24" height="1" fill="#161616"/>
<rect x="51.999" y="32" width="24" height="1" fill="#161616"/>
<rect x="51.999" y="48" width="24" height="1" fill="#161616"/>
<rect x="51.999" y="64" width="24" height="1" fill="#161616"/>
<rect x="51.999" y="80" width="24" height="1" fill="#161616"/>
<rect x="51.999" y="96" width="24" height="1" fill="#161616"/>
<rect x="51.999" y="112" width="24" height="1" fill="#161616"/>
<rect x="51.999" y="128" width="24" height="1" fill="#161616"/>
<rect x="51.999" y="144" width="24" height="1" fill="#161616"/>
<rect x="51.999" y="160" width="24" height="1" fill="#161616"/>
<rect x="51.999" y="176" width="24" height="1" fill="#161616"/>
<rect x="51.999" y="192" width="24" height="1" fill="#161616"/>
<rect x="51.999" y="224" width="24" height="1" fill="#161616"/>
<rect x="51.999" y="240" width="24" height="1" fill="#161616"/>
<rect x="51.999" y="256" width="24" height="1" fill="#161616"/>
<rect x="51.999" y="272" width="24" height="1" fill="#161616"/>
<rect x="51.999" y="288" width="24" height="1" fill="#161616"/>
<rect x="51.999" y="304" width="24" height="1" fill="#161616"/>
<rect x="51.999" y="320" width="24" height="1" fill="#161616"/>
<rect x="51.999" y="336" width="24" height="1" fill="#161616"/>
<rect x="51.999" y="352" width="24" height="1" fill="#161616"/>
<rect x="51.999" y="368" width="24" height="1" fill="#161616"/>
<rect x="51.999" y="384" width="24" height="1" fill="#161616"/>
<rect x="51.999" y="400" width="24" height="1" fill="#161616"/>
<rect x="0.999023" y="208" width="76" height="2" fill="#161616"/>
<rect x="0.999023" y="416" width="76" height="2" fill="#161616"/>
<rect x="0.999023" y="624" width="76" height="2" fill="#161616"/>
<rect x="0.999023" y="832" width="76" height="2" fill="#161616"/>
<path d="M27.9678 51.3457L29.999 51.3457L29.999 60.9746L28.2607 60.9746L23.2705 56.3555C22.7236 55.8737 22.2484 55.4928 21.8447 55.2129C21.4411 54.9329 21.0765 54.7344 20.751 54.6172C20.4189 54.4935 20.1032 54.4316 19.8037 54.4316C19.3675 54.4316 18.9867 54.5098 18.6611 54.666C18.3291 54.8223 18.0719 55.0501 17.8896 55.3496C17.7074 55.6426 17.6162 56.0039 17.6162 56.4336C17.6162 56.9089 17.7269 57.3158 17.9482 57.6543C18.1631 57.9863 18.4626 58.2402 18.8467 58.416C19.2308 58.5853 19.6702 58.6699 20.165 58.6699L20.165 61.2578C19.3252 61.2578 18.5602 61.0625 17.8701 60.6719C17.1735 60.2812 16.6169 59.7214 16.2002 58.9922C15.7835 58.263 15.5752 57.3971 15.5752 56.3945C15.5752 55.418 15.738 54.5911 16.0635 53.9141C16.3825 53.237 16.8382 52.7227 17.4307 52.3711C18.0231 52.0195 18.7295 51.8437 19.5498 51.8437C20.0055 51.8437 20.4548 51.9186 20.8975 52.0684C21.3402 52.2181 21.7796 52.4297 22.2158 52.7031C22.6455 52.9701 23.0817 53.2891 23.5244 53.6602C23.9671 54.0312 24.4196 54.4447 24.8818 54.9004L27.9678 57.6738L27.9678 51.3457ZM21.6689 40.1348L24.0615 40.1348C25.1553 40.1348 26.0895 40.2454 26.8643 40.4668C27.639 40.6882 28.2738 41.0072 28.7686 41.4238C29.2568 41.8405 29.6182 42.3385 29.8525 42.918C30.0804 43.4974 30.1943 44.1419 30.1943 44.8516C30.1943 45.418 30.1227 45.9453 29.9795 46.4336C29.8298 46.9219 29.6019 47.3613 29.2959 47.752C28.9834 48.1361 28.5863 48.4681 28.1045 48.748C27.6227 49.0215 27.0465 49.2331 26.376 49.3828C25.7054 49.526 24.9339 49.5977 24.0615 49.5977L21.6689 49.5977C20.5752 49.5977 19.6442 49.487 18.876 49.2656C18.1077 49.0378 17.4795 48.7155 16.9912 48.2988C16.5029 47.8822 16.1481 47.3841 15.9268 46.8047C15.6989 46.2253 15.585 45.5807 15.585 44.8711C15.585 44.2982 15.6566 43.7708 15.7998 43.2891C15.943 42.8008 16.1676 42.3646 16.4736 41.9805C16.7731 41.5898 17.1637 41.2578 17.6455 40.9844C18.1208 40.7109 18.6937 40.5026 19.3643 40.3594C20.0283 40.2096 20.7965 40.1348 21.6689 40.1348ZM24.4131 42.7129L21.3076 42.7129C20.7607 42.7129 20.2855 42.7454 19.8818 42.8105C19.4717 42.8691 19.1234 42.957 18.8369 43.0742C18.5505 43.1914 18.3193 43.3379 18.1436 43.5137C17.9613 43.6895 17.8278 43.8913 17.7432 44.1191C17.6585 44.347 17.6162 44.5977 17.6162 44.8711C17.6162 45.2096 17.6846 45.5124 17.8213 45.7793C17.9515 46.0462 18.1598 46.2708 18.4463 46.4531C18.7327 46.6354 19.1136 46.7754 19.5889 46.873C20.0576 46.9642 20.6305 47.0098 21.3076 47.0098L24.4131 47.0098C24.96 47.0098 25.4385 46.9805 25.8486 46.9219C26.2588 46.8568 26.6104 46.7656 26.9033 46.6484C27.1963 46.5247 27.4372 46.3783 27.626 46.209C27.8083 46.0332 27.945 45.8314 28.0361 45.6035C28.1208 45.3757 28.1631 45.125 28.1631 44.8516C28.1631 44.5065 28.0947 44.2038 27.958 43.9434C27.8213 43.6764 27.6064 43.4518 27.3135 43.2695C27.014 43.0872 26.6266 42.9505 26.1514 42.8594C25.6696 42.7617 25.0902 42.7129 24.4131 42.7129ZM15.7412 31.4824L29.999 31.4824L29.999 34.0703L18.7588 34.0703L19.8916 37.498L17.8018 37.498L15.7412 31.7754L15.7412 31.4824ZM15.6631 19.5195L15.6631 19.168L17.7432 19.168L17.7432 19.334C17.7432 20.1217 17.8636 20.8151 18.1045 21.4141C18.3454 22.0065 18.6839 22.5013 19.1201 22.8984C19.5498 23.2891 20.0609 23.5853 20.6533 23.7871C21.2393 23.9889 21.8805 24.0898 22.5771 24.0898L24.8818 24.0898C25.4222 24.0898 25.8975 24.0345 26.3076 23.9238C26.7113 23.8066 27.0531 23.6471 27.333 23.4453C27.6064 23.237 27.8115 22.9961 27.9482 22.7227C28.085 22.4427 28.1533 22.1367 28.1533 21.8047C28.1533 21.4727 28.085 21.1732 27.9482 20.9062C27.8115 20.6393 27.6195 20.4115 27.3721 20.2227C27.1182 20.0273 26.8219 19.8809 26.4834 19.7832C26.1449 19.679 25.7738 19.627 25.3701 19.627C24.973 19.627 24.6051 19.6758 24.2666 19.7734C23.9281 19.8711 23.6318 20.0143 23.3779 20.2031C23.1175 20.3919 22.9189 20.6263 22.7822 20.9062C22.639 21.1797 22.5674 21.4922 22.5674 21.8437C22.5674 22.2995 22.6748 22.7064 22.8896 23.0645C23.098 23.4225 23.3714 23.7057 23.71 23.9141C24.0485 24.1224 24.4066 24.2363 24.7842 24.2559L24.3545 25.125C23.8011 25.0924 23.2933 24.9753 22.8311 24.7734C22.3688 24.5651 21.9652 24.2884 21.6201 23.9434C21.2751 23.5918 21.0081 23.1784 20.8193 22.7031C20.6305 22.2214 20.5361 21.6875 20.5361 21.1016C20.5361 20.4245 20.6663 19.832 20.9268 19.3242C21.1807 18.8164 21.529 18.3965 21.9717 18.0645C22.4144 17.7259 22.9255 17.472 23.5049 17.3027C24.0778 17.1335 24.6833 17.0488 25.3213 17.0488C26.0049 17.0488 26.6429 17.1595 27.2353 17.3809C27.8278 17.5957 28.3454 17.9082 28.7881 18.3184C29.2308 18.7285 29.5758 19.2233 29.8232 19.8027C30.0706 20.3822 30.1943 21.0332 30.1943 21.7559C30.1943 22.5176 30.0511 23.2012 29.7646 23.8066C29.4782 24.4056 29.0811 24.9199 28.5732 25.3496C28.0654 25.7793 27.473 26.1081 26.7959 26.3359C26.1188 26.5638 25.3864 26.6777 24.5986 26.6777L23.5635 26.6777C22.4502 26.6777 21.415 26.5247 20.458 26.2187C19.501 25.9128 18.6644 25.4603 17.9482 24.8613C17.2256 24.2559 16.6657 23.5072 16.2686 22.6152C15.8649 21.7233 15.6631 20.6914 15.6631 19.5195Z" fill="#161616"/>
<path d="M26.9678 259.346L28.999 259.346L28.999 268.975L27.2607 268.975L22.2705 264.355C21.7236 263.874 21.2484 263.493 20.8447 263.213C20.4411 262.933 20.0765 262.734 19.751 262.617C19.4189 262.493 19.1032 262.432 18.8037 262.432C18.3675 262.432 17.9867 262.51 17.6611 262.666C17.3291 262.822 17.0719 263.05 16.8896 263.35C16.7074 263.643 16.6162 264.004 16.6162 264.434C16.6162 264.909 16.7269 265.316 16.9482 265.654C17.1631 265.986 17.4626 266.24 17.8467 266.416C18.2308 266.585 18.6702 266.67 19.165 266.67L19.165 269.258C18.3252 269.258 17.5602 269.062 16.8701 268.672C16.1735 268.281 15.6169 267.721 15.2002 266.992C14.7835 266.263 14.5752 265.397 14.5752 264.395C14.5752 263.418 14.738 262.591 15.0635 261.914C15.3825 261.237 15.8382 260.723 16.4307 260.371C17.0231 260.02 17.7295 259.844 18.5498 259.844C19.0055 259.844 19.4548 259.919 19.8975 260.068C20.3402 260.218 20.7796 260.43 21.2158 260.703C21.6455 260.97 22.0817 261.289 22.5244 261.66C22.9671 262.031 23.4196 262.445 23.8818 262.9L26.9678 265.674L26.9678 259.346ZM20.6689 248.135L23.0615 248.135C24.1553 248.135 25.0895 248.245 25.8643 248.467C26.639 248.688 27.2738 249.007 27.7686 249.424C28.2568 249.84 28.6182 250.339 28.8525 250.918C29.0804 251.497 29.1943 252.142 29.1943 252.852C29.1943 253.418 29.1227 253.945 28.9795 254.434C28.8298 254.922 28.6019 255.361 28.2959 255.752C27.9834 256.136 27.5863 256.468 27.1045 256.748C26.6227 257.021 26.0465 257.233 25.376 257.383C24.7054 257.526 23.9339 257.598 23.0615 257.598L20.6689 257.598C19.5752 257.598 18.6442 257.487 17.876 257.266C17.1077 257.038 16.4795 256.715 15.9912 256.299C15.5029 255.882 15.1481 255.384 14.9268 254.805C14.6989 254.225 14.585 253.581 14.585 252.871C14.585 252.298 14.6566 251.771 14.7998 251.289C14.943 250.801 15.1676 250.365 15.4736 249.98C15.7731 249.59 16.1637 249.258 16.6455 248.984C17.1208 248.711 17.6937 248.503 18.3643 248.359C19.0283 248.21 19.7965 248.135 20.6689 248.135ZM23.4131 250.713L20.3076 250.713C19.7607 250.713 19.2855 250.745 18.8818 250.811C18.4717 250.869 18.1234 250.957 17.8369 251.074C17.5505 251.191 17.3193 251.338 17.1436 251.514C16.9613 251.689 16.8278 251.891 16.7432 252.119C16.6585 252.347 16.6162 252.598 16.6162 252.871C16.6162 253.21 16.6846 253.512 16.8213 253.779C16.9515 254.046 17.1598 254.271 17.4463 254.453C17.7327 254.635 18.1136 254.775 18.5889 254.873C19.0576 254.964 19.6305 255.01 20.3076 255.01L23.4131 255.01C23.96 255.01 24.4385 254.98 24.8486 254.922C25.2588 254.857 25.6104 254.766 25.9033 254.648C26.1963 254.525 26.4372 254.378 26.626 254.209C26.8083 254.033 26.945 253.831 27.0361 253.604C27.1208 253.376 27.1631 253.125 27.1631 252.852C27.1631 252.507 27.0947 252.204 26.958 251.943C26.8213 251.676 26.6064 251.452 26.3135 251.27C26.014 251.087 25.6266 250.951 25.1514 250.859C24.6696 250.762 24.0902 250.713 23.4131 250.713ZM14.7412 239.482L28.999 239.482L28.999 242.07L17.7588 242.07L18.8916 245.498L16.8018 245.498L14.7412 239.775L14.7412 239.482ZM14.7803 225.146L16.1865 225.146L28.999 230.732L28.999 233.457L16.8115 227.871L16.8115 235.098L14.7803 235.098L14.7803 225.146Z" fill="#161616"/>
<path d="M26.9678 467.346L28.999 467.346L28.999 476.975L27.2607 476.975L22.2705 472.355C21.7236 471.874 21.2484 471.493 20.8447 471.213C20.4411 470.933 20.0765 470.734 19.751 470.617C19.4189 470.493 19.1032 470.432 18.8037 470.432C18.3675 470.432 17.9867 470.51 17.6611 470.666C17.3291 470.822 17.0719 471.05 16.8896 471.35C16.7074 471.643 16.6162 472.004 16.6162 472.434C16.6162 472.909 16.7269 473.316 16.9482 473.654C17.1631 473.986 17.4626 474.24 17.8467 474.416C18.2308 474.585 18.6702 474.67 19.165 474.67L19.165 477.258C18.3252 477.258 17.5602 477.062 16.8701 476.672C16.1735 476.281 15.6169 475.721 15.2002 474.992C14.7835 474.263 14.5752 473.397 14.5752 472.395C14.5752 471.418 14.738 470.591 15.0635 469.914C15.3825 469.237 15.8382 468.723 16.4307 468.371C17.0231 468.02 17.7295 467.844 18.5498 467.844C19.0055 467.844 19.4548 467.919 19.8975 468.068C20.3402 468.218 20.7796 468.43 21.2158 468.703C21.6455 468.97 22.0817 469.289 22.5244 469.66C22.9671 470.031 23.4196 470.445 23.8818 470.9L26.9678 473.674L26.9678 467.346ZM20.6689 456.135L23.0615 456.135C24.1553 456.135 25.0895 456.245 25.8643 456.467C26.639 456.688 27.2738 457.007 27.7686 457.424C28.2568 457.84 28.6182 458.339 28.8525 458.918C29.0804 459.497 29.1943 460.142 29.1943 460.852C29.1943 461.418 29.1227 461.945 28.9795 462.434C28.8298 462.922 28.6019 463.361 28.2959 463.752C27.9834 464.136 27.5863 464.468 27.1045 464.748C26.6227 465.021 26.0465 465.233 25.376 465.383C24.7054 465.526 23.9339 465.598 23.0615 465.598L20.6689 465.598C19.5752 465.598 18.6442 465.487 17.876 465.266C17.1077 465.038 16.4795 464.715 15.9912 464.299C15.5029 463.882 15.1481 463.384 14.9268 462.805C14.6989 462.225 14.585 461.581 14.585 460.871C14.585 460.298 14.6566 459.771 14.7998 459.289C14.943 458.801 15.1676 458.365 15.4736 457.98C15.7731 457.59 16.1637 457.258 16.6455 456.984C17.1208 456.711 17.6937 456.503 18.3643 456.359C19.0283 456.21 19.7965 456.135 20.6689 456.135ZM23.4131 458.713L20.3076 458.713C19.7607 458.713 19.2855 458.745 18.8818 458.811C18.4717 458.869 18.1234 458.957 17.8369 459.074C17.5505 459.191 17.3193 459.338 17.1436 459.514C16.9613 459.689 16.8278 459.891 16.7432 460.119C16.6585 460.347 16.6162 460.598 16.6162 460.871C16.6162 461.21 16.6846 461.512 16.8213 461.779C16.9515 462.046 17.1598 462.271 17.4463 462.453C17.7327 462.635 18.1136 462.775 18.5889 462.873C19.0576 462.964 19.6305 463.01 20.3076 463.01L23.4131 463.01C23.96 463.01 24.4385 462.98 24.8486 462.922C25.2588 462.857 25.6104 462.766 25.9033 462.648C26.1963 462.525 26.4372 462.378 26.626 462.209C26.8083 462.033 26.945 461.831 27.0361 461.604C27.1208 461.376 27.1631 461.125 27.1631 460.852C27.1631 460.507 27.0947 460.204 26.958 459.943C26.8213 459.676 26.6064 459.452 26.3135 459.27C26.014 459.087 25.6266 458.951 25.1514 458.859C24.6696 458.762 24.0902 458.713 23.4131 458.713ZM14.7412 447.482L28.999 447.482L28.999 450.07L17.7588 450.07L18.8916 453.498L16.8018 453.498L14.7412 447.775L14.7412 447.482ZM25.1123 433.264C25.9977 433.264 26.7464 433.472 27.3584 433.889C27.9639 434.299 28.4228 434.862 28.7353 435.578C29.0413 436.288 29.1943 437.095 29.1943 438C29.1943 438.898 29.0413 439.709 28.7353 440.432C28.4228 441.148 27.9639 441.717 27.3584 442.141C26.7464 442.557 25.9977 442.766 25.1123 442.766C24.5199 442.766 23.9827 442.648 23.501 442.414C23.0192 442.173 22.6058 441.841 22.2607 441.418C21.9092 440.995 21.6423 440.493 21.46 439.914C21.2712 439.335 21.1768 438.703 21.1768 438.02C21.1768 437.108 21.3428 436.294 21.6748 435.578C22.0003 434.855 22.4593 434.289 23.0518 433.879C23.6377 433.469 24.3245 433.264 25.1123 433.264ZM24.9561 435.861C24.5003 435.861 24.1064 435.952 23.7744 436.135C23.4359 436.311 23.1755 436.561 22.9932 436.887C22.8109 437.212 22.7197 437.59 22.7197 438.02C22.7197 438.456 22.8109 438.837 22.9932 439.162C23.1755 439.481 23.4359 439.732 23.7744 439.914C24.1064 440.09 24.5003 440.178 24.9561 440.178C25.4183 440.178 25.8154 440.09 26.1475 439.914C26.473 439.732 26.7236 439.478 26.8994 439.152C27.0752 438.827 27.1631 438.443 27.1631 438C27.1631 437.557 27.0752 437.176 26.8994 436.857C26.7236 436.538 26.473 436.294 26.1475 436.125C25.8154 435.949 25.4183 435.861 24.9561 435.861ZM18.5303 433.576C19.2464 433.576 19.8844 433.765 20.4443 434.143C20.9977 434.52 21.4307 435.044 21.7432 435.715C22.0557 436.379 22.2119 437.141 22.2119 438C22.2119 438.859 22.0557 439.628 21.7432 440.305C21.4307 440.975 20.9977 441.503 20.4443 441.887C19.8844 442.264 19.2464 442.453 18.5303 442.453C17.6839 442.453 16.9678 442.261 16.3818 441.877C15.7894 441.493 15.3402 440.969 15.0342 440.305C14.7282 439.634 14.5752 438.872 14.5752 438.02C14.5752 437.154 14.7282 436.385 15.0342 435.715C15.3402 435.044 15.7894 434.52 16.3818 434.143C16.9678 433.765 17.6839 433.576 18.5303 433.576ZM18.6377 436.154C18.234 436.154 17.8825 436.229 17.583 436.379C17.277 436.529 17.0394 436.743 16.8701 437.023C16.7008 437.297 16.6162 437.629 16.6162 438.02C16.6162 438.397 16.6976 438.723 16.8603 438.996C17.0231 439.27 17.2575 439.481 17.5635 439.631C17.863 439.781 18.221 439.855 18.6377 439.855C19.0478 439.855 19.4059 439.781 19.7119 439.631C20.0179 439.481 20.2588 439.27 20.4346 438.996C20.6038 438.716 20.6885 438.384 20.6885 438C20.6885 437.616 20.6038 437.287 20.4346 437.014C20.2588 436.74 20.0179 436.529 19.7119 436.379C19.4059 436.229 19.0478 436.154 18.6377 436.154Z" fill="#161616"/>
<path d="M26.9687 675.346L29 675.346L29 684.975L27.2617 684.975L22.2715 680.355C21.7246 679.874 21.2493 679.493 20.8457 679.213C20.4421 678.933 20.0775 678.734 19.752 678.617C19.4199 678.493 19.1042 678.432 18.8047 678.432C18.3685 678.432 17.9876 678.51 17.6621 678.666C17.3301 678.822 17.0729 679.05 16.8906 679.35C16.7083 679.643 16.6172 680.004 16.6172 680.434C16.6172 680.909 16.7279 681.316 16.9492 681.654C17.1641 681.986 17.4635 682.24 17.8477 682.416C18.2318 682.585 18.6712 682.67 19.166 682.67L19.166 685.258C18.3262 685.258 17.5612 685.062 16.8711 684.672C16.1745 684.281 15.6178 683.721 15.2012 682.992C14.7845 682.263 14.5762 681.397 14.5762 680.395C14.5762 679.418 14.7389 678.591 15.0645 677.914C15.3835 677.237 15.8392 676.723 16.4316 676.371C17.0241 676.02 17.7305 675.844 18.5508 675.844C19.0065 675.844 19.4557 675.919 19.8984 676.068C20.3411 676.218 20.7806 676.43 21.2168 676.703C21.6465 676.97 22.0827 677.289 22.5254 677.66C22.9681 678.031 23.4206 678.445 23.8828 678.9L26.9687 681.674L26.9687 675.346ZM20.6699 664.135L23.0625 664.135C24.1562 664.135 25.0905 664.245 25.8652 664.467C26.64 664.688 27.2747 665.007 27.7695 665.424C28.2578 665.84 28.6191 666.339 28.8535 666.918C29.0814 667.497 29.1953 668.142 29.1953 668.852C29.1953 669.418 29.1237 669.945 28.9805 670.434C28.8307 670.922 28.6029 671.361 28.2969 671.752C27.9844 672.136 27.5872 672.468 27.1055 672.748C26.6237 673.021 26.0475 673.233 25.377 673.383C24.7064 673.526 23.9349 673.598 23.0625 673.598L20.6699 673.598C19.5762 673.598 18.6452 673.487 17.877 673.266C17.1087 673.038 16.4805 672.715 15.9922 672.299C15.5039 671.882 15.1491 671.384 14.9277 670.805C14.6999 670.225 14.5859 669.581 14.5859 668.871C14.5859 668.298 14.6576 667.771 14.8008 667.289C14.944 666.801 15.1686 666.365 15.4746 665.98C15.7741 665.59 16.1647 665.258 16.6465 664.984C17.1217 664.711 17.6947 664.503 18.3652 664.359C19.0293 664.21 19.7975 664.135 20.6699 664.135ZM23.4141 666.713L20.3086 666.713C19.7617 666.713 19.2865 666.745 18.8828 666.811C18.4727 666.869 18.1243 666.957 17.8379 667.074C17.5514 667.191 17.3203 667.338 17.1445 667.514C16.9622 667.689 16.8288 667.891 16.7441 668.119C16.6595 668.347 16.6172 668.598 16.6172 668.871C16.6172 669.21 16.6855 669.512 16.8223 669.779C16.9525 670.046 17.1608 670.271 17.4473 670.453C17.7337 670.635 18.1146 670.775 18.5898 670.873C19.0586 670.964 19.6315 671.01 20.3086 671.01L23.4141 671.01C23.9609 671.01 24.4395 670.98 24.8496 670.922C25.2598 670.857 25.6113 670.766 25.9043 670.648C26.1973 670.525 26.4382 670.378 26.627 670.209C26.8092 670.033 26.946 669.831 27.0371 669.604C27.1217 669.376 27.1641 669.125 27.1641 668.852C27.1641 668.507 27.0957 668.204 26.959 667.943C26.8223 667.676 26.6074 667.452 26.3145 667.27C26.015 667.087 25.6276 666.951 25.1523 666.859C24.6706 666.762 24.0911 666.713 23.4141 666.713ZM14.7422 655.482L29 655.482L29 658.07L17.7598 658.07L18.8926 661.498L16.8027 661.498L14.7422 655.775L14.7422 655.482ZM26.998 648.754L26.998 648.568C26.998 647.729 26.8906 647.019 26.6758 646.439C26.4609 645.854 26.1582 645.382 25.7676 645.023C25.3704 644.659 24.8984 644.395 24.3516 644.232C23.7982 644.063 23.1862 643.979 22.5156 643.979L19.9375 643.979C19.3906 643.979 18.9121 644.034 18.502 644.145C18.0853 644.255 17.737 644.411 17.457 644.613C17.1771 644.809 16.9687 645.04 16.832 645.307C16.6888 645.574 16.6172 645.86 16.6172 646.166C16.6172 646.505 16.6953 646.804 16.8516 647.064C17.0078 647.325 17.2227 647.546 17.4961 647.729C17.763 647.904 18.0723 648.041 18.4238 648.139C18.7754 648.23 19.1465 648.275 19.5371 648.275C19.9147 648.275 20.276 648.233 20.6211 648.148C20.9661 648.057 21.2721 647.924 21.5391 647.748C21.806 647.566 22.0176 647.338 22.1738 647.064C22.3236 646.791 22.3984 646.472 22.3984 646.107C22.3984 645.762 22.3333 645.45 22.2031 645.17C22.0664 644.883 21.8874 644.636 21.666 644.428C21.4381 644.219 21.1875 644.06 20.9141 643.949C20.6341 643.832 20.3509 643.767 20.0645 643.754L20.4551 642.846C20.9303 642.846 21.3991 642.947 21.8613 643.148C22.3236 643.344 22.7435 643.62 23.1211 643.979C23.4922 644.33 23.7917 644.74 24.0195 645.209C24.2409 645.678 24.3516 646.182 24.3516 646.723C24.3516 647.393 24.2279 647.986 23.9805 648.5C23.7331 649.014 23.3913 649.447 22.9551 649.799C22.5124 650.144 22.0046 650.404 21.4316 650.58C20.8522 650.756 20.2337 650.844 19.5762 650.844C18.8926 650.844 18.2513 650.736 17.6523 650.521C17.0469 650.307 16.5163 649.997 16.0605 649.594C15.5983 649.184 15.237 648.689 14.9766 648.109C14.7096 647.53 14.5762 646.879 14.5762 646.156C14.5762 645.408 14.7227 644.74 15.0156 644.154C15.3086 643.568 15.7155 643.07 16.2363 642.66C16.7506 642.25 17.3594 641.937 18.0625 641.723C18.7656 641.501 19.5339 641.391 20.3672 641.391L21.2754 641.391C22.1543 641.391 22.9876 641.479 23.7754 641.654C24.5631 641.83 25.2826 642.1 25.9336 642.465C26.5846 642.829 27.1478 643.295 27.623 643.861C28.0983 644.421 28.4661 645.092 28.7266 645.873C28.9805 646.648 29.1074 647.533 29.1074 648.529L29.1074 648.754L26.998 648.754Z" fill="#161616"/>
<rect x="52.999" y="432" width="24" height="1" fill="#161616"/>
<rect x="52.999" y="448" width="24" height="1" fill="#161616"/>
<rect x="52.999" y="464" width="24" height="1" fill="#161616"/>
<rect x="52.999" y="480" width="24" height="1" fill="#161616"/>
<rect x="52.999" y="496" width="24" height="1" fill="#161616"/>
<rect x="52.999" y="512" width="24" height="1" fill="#161616"/>
<rect x="52.999" y="528" width="24" height="1" fill="#161616"/>
<rect x="52.999" y="544" width="24" height="1" fill="#161616"/>
<rect x="52.999" y="560" width="24" height="1" fill="#161616"/>
<rect x="52.999" y="576" width="24" height="1" fill="#161616"/>
<rect x="52.999" y="592" width="24" height="1" fill="#161616"/>
<rect x="52.999" y="608" width="24" height="1" fill="#161616"/>
<rect x="52.999" y="640" width="24" height="1" fill="#161616"/>
<rect x="52.999" y="656" width="24" height="1" fill="#161616"/>
<rect x="52.999" y="672" width="24" height="1" fill="#161616"/>
<rect x="52.999" y="688" width="24" height="1" fill="#161616"/>
<rect x="52.999" y="704" width="24" height="1" fill="#161616"/>
<rect x="52.999" y="720" width="24" height="1" fill="#161616"/>
<rect x="52.999" y="736" width="24" height="1" fill="#161616"/>
<rect x="52.999" y="752" width="24" height="1" fill="#161616"/>
<rect x="52.999" y="768" width="24" height="1" fill="#161616"/>
<rect x="52.999" y="784" width="24" height="1" fill="#161616"/>
<rect x="52.999" y="800" width="24" height="1" fill="#161616"/>
<rect x="52.999" y="816" width="24" height="1" fill="#161616"/>
</svg>
