<svg width="77" height="836" viewBox="0 0 77 836" fill="none" xmlns="http://www.w3.org/2000/svg">
<rect width="76" height="4" fill="#161616"/>
<rect x="52" y="16" width="24" height="4" fill="#081725"/>
<rect x="52" y="32" width="24" height="4" fill="#081725"/>
<rect x="52" y="48" width="24" height="4" fill="#081725"/>
<rect x="52" y="64" width="24" height="4" fill="#081725"/>
<rect x="52" y="80" width="24" height="4" fill="#081725"/>
<rect x="52" y="96" width="24" height="4" fill="#081725"/>
<rect x="52" y="112" width="24" height="4" fill="#081725"/>
<rect x="52" y="128" width="24" height="4" fill="#081725"/>
<rect x="52" y="144" width="24" height="4" fill="#081725"/>
<rect x="52" y="160" width="24" height="4" fill="#081725"/>
<rect x="52" y="176" width="24" height="4" fill="#081725"/>
<rect x="52" y="192" width="24" height="4" fill="#081725"/>
<rect x="52" y="224" width="24" height="4" fill="#081725"/>
<rect x="52" y="240" width="24" height="4" fill="#081725"/>
<rect x="52" y="256" width="24" height="4" fill="#081725"/>
<rect x="52" y="272" width="24" height="4" fill="#081725"/>
<rect x="52" y="288" width="24" height="4" fill="#081725"/>
<rect x="52" y="304" width="24" height="4" fill="#081725"/>
<rect x="52" y="320" width="24" height="4" fill="#081725"/>
<rect x="52" y="336" width="24" height="4" fill="#081725"/>
<rect x="52" y="352" width="24" height="4" fill="#081725"/>
<rect x="52" y="368" width="24" height="4" fill="#081725"/>
<rect x="52" y="384" width="24" height="4" fill="#081725"/>
<rect x="52" y="400" width="24" height="4" fill="#081725"/>
<rect x="1" y="208" width="76" height="4" fill="#161616"/>
<rect x="1" y="416" width="76" height="4" fill="#161616"/>
<rect x="1" y="624" width="76" height="4" fill="#161616"/>
<rect x="1" y="832" width="76" height="4" fill="#161616"/>
<path d="M10.7031 31.8027V34H0.976562V32.125L5.57617 27.1934C6.03841 26.679 6.40299 26.2266 6.66992 25.8359C6.93685 25.4388 7.12891 25.084 7.24609 24.7715C7.36979 24.4525 7.43164 24.1497 7.43164 23.8633C7.43164 23.4336 7.36003 23.0658 7.2168 22.7598C7.07357 22.4473 6.86198 22.2064 6.58203 22.0371C6.30859 21.8678 5.97005 21.7832 5.56641 21.7832C5.13672 21.7832 4.76562 21.8874 4.45312 22.0957C4.14714 22.304 3.91276 22.5938 3.75 22.9648C3.59375 23.3359 3.51562 23.7559 3.51562 24.2246H0.693359C0.693359 23.3783 0.895182 22.6035 1.29883 21.9004C1.70247 21.1908 2.27214 20.6276 3.00781 20.2109C3.74349 19.7878 4.61589 19.5762 5.625 19.5762C6.62109 19.5762 7.46094 19.7389 8.14453 20.0645C8.83464 20.3835 9.35547 20.8457 9.70703 21.4512C10.0651 22.0501 10.2441 22.7663 10.2441 23.5996C10.2441 24.0684 10.1693 24.5273 10.0195 24.9766C9.86979 25.4193 9.65495 25.862 9.375 26.3047C9.10156 26.7409 8.76953 27.1836 8.37891 27.6328C7.98828 28.082 7.55534 28.5475 7.08008 29.0293L4.60938 31.8027H10.7031ZM22.0312 25.6406V28.1016C22.0312 29.1693 21.9173 30.0905 21.6895 30.8652C21.4616 31.6335 21.1328 32.265 20.7031 32.7598C20.2799 33.248 19.7754 33.6094 19.1895 33.8438C18.6035 34.0781 17.9525 34.1953 17.2363 34.1953C16.6634 34.1953 16.1296 34.1237 15.6348 33.9805C15.14 33.8307 14.694 33.5996 14.2969 33.2871C13.9062 32.9746 13.5677 32.5807 13.2812 32.1055C13.0013 31.6237 12.7865 31.0508 12.6367 30.3867C12.487 29.7227 12.4121 28.9609 12.4121 28.1016V25.6406C12.4121 24.5729 12.526 23.6582 12.7539 22.8965C12.9883 22.1283 13.3171 21.5 13.7402 21.0117C14.1699 20.5234 14.6777 20.1654 15.2637 19.9375C15.8496 19.7031 16.5007 19.5859 17.2168 19.5859C17.7897 19.5859 18.3203 19.6608 18.8086 19.8105C19.3034 19.9538 19.7493 20.1784 20.1465 20.4844C20.5436 20.7904 20.8822 21.1842 21.1621 21.666C21.4421 22.1413 21.6569 22.7109 21.8066 23.375C21.9564 24.0326 22.0312 24.7878 22.0312 25.6406ZM19.209 28.4727V25.2598C19.209 24.7454 19.1797 24.2962 19.1211 23.9121C19.069 23.528 18.9876 23.2025 18.877 22.9355C18.7663 22.6621 18.6296 22.4408 18.4668 22.2715C18.304 22.1022 18.1185 21.9785 17.9102 21.9004C17.7018 21.8223 17.4707 21.7832 17.2168 21.7832C16.8978 21.7832 16.6146 21.8451 16.3672 21.9688C16.1263 22.0924 15.9212 22.291 15.752 22.5645C15.5827 22.8314 15.4525 23.1895 15.3613 23.6387C15.2767 24.0814 15.2344 24.6217 15.2344 25.2598V28.4727C15.2344 28.987 15.2604 29.4395 15.3125 29.8301C15.3711 30.2207 15.4557 30.556 15.5664 30.8359C15.6836 31.1094 15.8203 31.334 15.9766 31.5098C16.1393 31.679 16.3249 31.8027 16.5332 31.8809C16.748 31.959 16.9824 31.998 17.2363 31.998C17.5488 31.998 17.8255 31.9362 18.0664 31.8125C18.3138 31.6823 18.5221 31.4805 18.6914 31.207C18.8672 30.9271 18.9974 30.5625 19.082 30.1133C19.1667 29.6641 19.209 29.1172 19.209 28.4727ZM30.8008 19.752V34H27.9883V22.9941L24.6094 24.0684V21.8516L30.498 19.752H30.8008ZM42.6855 19.6348H43.0957V21.8809H42.9297C42.1875 21.8809 41.5267 21.9915 40.9473 22.2129C40.3678 22.4342 39.8763 22.75 39.4727 23.1602C39.0755 23.5638 38.7695 24.0521 38.5547 24.625C38.3464 25.1979 38.2422 25.8392 38.2422 26.5488V28.9121C38.2422 29.4199 38.291 29.8691 38.3887 30.2598C38.4928 30.6439 38.6393 30.9661 38.8281 31.2266C39.0234 31.4805 39.2513 31.6725 39.5117 31.8027C39.7721 31.9264 40.0651 31.9883 40.3906 31.9883C40.6966 31.9883 40.9733 31.9232 41.2207 31.793C41.4746 31.6628 41.6895 31.4805 41.8652 31.2461C42.0475 31.0052 42.1842 30.7253 42.2754 30.4062C42.373 30.0807 42.4219 29.7259 42.4219 29.3418C42.4219 28.9577 42.373 28.6029 42.2754 28.2773C42.1842 27.9518 42.0475 27.6719 41.8652 27.4375C41.6829 27.1966 41.4616 27.0111 41.2012 26.8809C40.9408 26.7507 40.6478 26.6855 40.3223 26.6855C39.8796 26.6855 39.4889 26.7897 39.1504 26.998C38.8184 27.1999 38.5579 27.4603 38.3691 27.7793C38.1803 28.0983 38.0794 28.4336 38.0664 28.7852L37.2168 28.2383C37.2363 27.737 37.3405 27.2617 37.5293 26.8125C37.7246 26.3633 37.9915 25.9661 38.3301 25.6211C38.6751 25.2695 39.0885 24.9961 39.5703 24.8008C40.0521 24.599 40.5957 24.498 41.2012 24.498C41.8652 24.498 42.4479 24.625 42.9492 24.8789C43.457 25.1328 43.8802 25.4811 44.2188 25.9238C44.5573 26.3665 44.8112 26.8776 44.9805 27.457C45.1497 28.0365 45.2344 28.6549 45.2344 29.3125C45.2344 30.0026 45.1204 30.6439 44.8926 31.2363C44.6712 31.8288 44.349 32.3464 43.9258 32.7891C43.5091 33.2318 43.0078 33.5768 42.4219 33.8242C41.8359 34.0716 41.1784 34.1953 40.4492 34.1953C39.694 34.1953 39.0072 34.0586 38.3887 33.7852C37.7767 33.5052 37.2493 33.1146 36.8066 32.6133C36.3639 32.112 36.0221 31.5163 35.7812 30.8262C35.5469 30.1361 35.4297 29.3809 35.4297 28.5605V27.4668C35.4297 26.321 35.5957 25.2728 35.9277 24.3223C36.2663 23.3652 36.7513 22.5384 37.3828 21.8418C38.0143 21.1387 38.776 20.5951 39.668 20.2109C40.5599 19.8268 41.5658 19.6348 42.6855 19.6348Z" fill="#E95122"/>
<path d="M10.7031 239.803V242H0.976562V240.125L5.57617 235.193C6.03841 234.679 6.40299 234.227 6.66992 233.836C6.93685 233.439 7.12891 233.084 7.24609 232.771C7.36979 232.452 7.43164 232.15 7.43164 231.863C7.43164 231.434 7.36003 231.066 7.2168 230.76C7.07357 230.447 6.86198 230.206 6.58203 230.037C6.30859 229.868 5.97005 229.783 5.56641 229.783C5.13672 229.783 4.76562 229.887 4.45312 230.096C4.14714 230.304 3.91276 230.594 3.75 230.965C3.59375 231.336 3.51562 231.756 3.51562 232.225H0.693359C0.693359 231.378 0.895182 230.604 1.29883 229.9C1.70247 229.191 2.27214 228.628 3.00781 228.211C3.74349 227.788 4.61589 227.576 5.625 227.576C6.62109 227.576 7.46094 227.739 8.14453 228.064C8.83464 228.383 9.35547 228.846 9.70703 229.451C10.0651 230.05 10.2441 230.766 10.2441 231.6C10.2441 232.068 10.1693 232.527 10.0195 232.977C9.86979 233.419 9.65495 233.862 9.375 234.305C9.10156 234.741 8.76953 235.184 8.37891 235.633C7.98828 236.082 7.55534 236.548 7.08008 237.029L4.60938 239.803H10.7031ZM22.0312 233.641V236.102C22.0312 237.169 21.9173 238.09 21.6895 238.865C21.4616 239.633 21.1328 240.265 20.7031 240.76C20.2799 241.248 19.7754 241.609 19.1895 241.844C18.6035 242.078 17.9525 242.195 17.2363 242.195C16.6634 242.195 16.1296 242.124 15.6348 241.98C15.14 241.831 14.694 241.6 14.2969 241.287C13.9062 240.975 13.5677 240.581 13.2812 240.105C13.0013 239.624 12.7865 239.051 12.6367 238.387C12.487 237.723 12.4121 236.961 12.4121 236.102V233.641C12.4121 232.573 12.526 231.658 12.7539 230.896C12.9883 230.128 13.3171 229.5 13.7402 229.012C14.1699 228.523 14.6777 228.165 15.2637 227.938C15.8496 227.703 16.5007 227.586 17.2168 227.586C17.7897 227.586 18.3203 227.661 18.8086 227.811C19.3034 227.954 19.7493 228.178 20.1465 228.484C20.5436 228.79 20.8822 229.184 21.1621 229.666C21.4421 230.141 21.6569 230.711 21.8066 231.375C21.9564 232.033 22.0312 232.788 22.0312 233.641ZM19.209 236.473V233.26C19.209 232.745 19.1797 232.296 19.1211 231.912C19.069 231.528 18.9876 231.202 18.877 230.936C18.7663 230.662 18.6296 230.441 18.4668 230.271C18.304 230.102 18.1185 229.979 17.9102 229.9C17.7018 229.822 17.4707 229.783 17.2168 229.783C16.8978 229.783 16.6146 229.845 16.3672 229.969C16.1263 230.092 15.9212 230.291 15.752 230.564C15.5827 230.831 15.4525 231.189 15.3613 231.639C15.2767 232.081 15.2344 232.622 15.2344 233.26V236.473C15.2344 236.987 15.2604 237.439 15.3125 237.83C15.3711 238.221 15.4557 238.556 15.5664 238.836C15.6836 239.109 15.8203 239.334 15.9766 239.51C16.1393 239.679 16.3249 239.803 16.5332 239.881C16.748 239.959 16.9824 239.998 17.2363 239.998C17.5488 239.998 17.8255 239.936 18.0664 239.812C18.3138 239.682 18.5221 239.48 18.6914 239.207C18.8672 238.927 18.9974 238.562 19.082 238.113C19.1667 237.664 19.209 237.117 19.209 236.473ZM30.8008 227.752V242H27.9883V230.994L24.6094 232.068V229.852L30.498 227.752H30.8008ZM45.0879 227.781V229.295L39.5898 242H36.6211L42.1191 229.979H35.0391V227.781H45.0879Z" fill="#E95122"/>
<path d="M10.7031 447.803V450H0.976562V448.125L5.57617 443.193C6.03841 442.679 6.40299 442.227 6.66992 441.836C6.93685 441.439 7.12891 441.084 7.24609 440.771C7.36979 440.452 7.43164 440.15 7.43164 439.863C7.43164 439.434 7.36003 439.066 7.2168 438.76C7.07357 438.447 6.86198 438.206 6.58203 438.037C6.30859 437.868 5.97005 437.783 5.56641 437.783C5.13672 437.783 4.76562 437.887 4.45312 438.096C4.14714 438.304 3.91276 438.594 3.75 438.965C3.59375 439.336 3.51562 439.756 3.51562 440.225H0.693359C0.693359 439.378 0.895182 438.604 1.29883 437.9C1.70247 437.191 2.27214 436.628 3.00781 436.211C3.74349 435.788 4.61589 435.576 5.625 435.576C6.62109 435.576 7.46094 435.739 8.14453 436.064C8.83464 436.383 9.35547 436.846 9.70703 437.451C10.0651 438.05 10.2441 438.766 10.2441 439.6C10.2441 440.068 10.1693 440.527 10.0195 440.977C9.86979 441.419 9.65495 441.862 9.375 442.305C9.10156 442.741 8.76953 443.184 8.37891 443.633C7.98828 444.082 7.55534 444.548 7.08008 445.029L4.60938 447.803H10.7031ZM22.0312 441.641V444.102C22.0312 445.169 21.9173 446.09 21.6895 446.865C21.4616 447.633 21.1328 448.265 20.7031 448.76C20.2799 449.248 19.7754 449.609 19.1895 449.844C18.6035 450.078 17.9525 450.195 17.2363 450.195C16.6634 450.195 16.1296 450.124 15.6348 449.98C15.14 449.831 14.694 449.6 14.2969 449.287C13.9062 448.975 13.5677 448.581 13.2812 448.105C13.0013 447.624 12.7865 447.051 12.6367 446.387C12.487 445.723 12.4121 444.961 12.4121 444.102V441.641C12.4121 440.573 12.526 439.658 12.7539 438.896C12.9883 438.128 13.3171 437.5 13.7402 437.012C14.1699 436.523 14.6777 436.165 15.2637 435.938C15.8496 435.703 16.5007 435.586 17.2168 435.586C17.7897 435.586 18.3203 435.661 18.8086 435.811C19.3034 435.954 19.7493 436.178 20.1465 436.484C20.5436 436.79 20.8822 437.184 21.1621 437.666C21.4421 438.141 21.6569 438.711 21.8066 439.375C21.9564 440.033 22.0312 440.788 22.0312 441.641ZM19.209 444.473V441.26C19.209 440.745 19.1797 440.296 19.1211 439.912C19.069 439.528 18.9876 439.202 18.877 438.936C18.7663 438.662 18.6296 438.441 18.4668 438.271C18.304 438.102 18.1185 437.979 17.9102 437.9C17.7018 437.822 17.4707 437.783 17.2168 437.783C16.8978 437.783 16.6146 437.845 16.3672 437.969C16.1263 438.092 15.9212 438.291 15.752 438.564C15.5827 438.831 15.4525 439.189 15.3613 439.639C15.2767 440.081 15.2344 440.622 15.2344 441.26V444.473C15.2344 444.987 15.2604 445.439 15.3125 445.83C15.3711 446.221 15.4557 446.556 15.5664 446.836C15.6836 447.109 15.8203 447.334 15.9766 447.51C16.1393 447.679 16.3249 447.803 16.5332 447.881C16.748 447.959 16.9824 447.998 17.2363 447.998C17.5488 447.998 17.8255 447.936 18.0664 447.812C18.3138 447.682 18.5221 447.48 18.6914 447.207C18.8672 446.927 18.9974 446.562 19.082 446.113C19.1667 445.664 19.209 445.117 19.209 444.473ZM30.8008 435.752V450H27.9883V438.994L24.6094 440.068V437.852L30.498 435.752H30.8008ZM45.0098 446.104C45.0098 446.995 44.8014 447.747 44.3848 448.359C43.9681 448.965 43.3952 449.424 42.666 449.736C41.9434 450.042 41.123 450.195 40.2051 450.195C39.2871 450.195 38.4635 450.042 37.7344 449.736C37.0052 449.424 36.429 448.965 36.0059 448.359C35.5827 447.747 35.3711 446.995 35.3711 446.104C35.3711 445.505 35.4915 444.964 35.7324 444.482C35.9733 443.994 36.3086 443.577 36.7383 443.232C37.1745 442.881 37.6855 442.614 38.2715 442.432C38.8574 442.243 39.4954 442.148 40.1855 442.148C41.11 442.148 41.9368 442.311 42.666 442.637C43.3952 442.962 43.9681 443.421 44.3848 444.014C44.8014 444.606 45.0098 445.303 45.0098 446.104ZM42.1777 445.918C42.1777 445.482 42.0931 445.107 41.9238 444.795C41.7611 444.476 41.5299 444.232 41.2305 444.062C40.931 443.893 40.5827 443.809 40.1855 443.809C39.7884 443.809 39.4401 443.893 39.1406 444.062C38.8411 444.232 38.6068 444.476 38.4375 444.795C38.2747 445.107 38.1934 445.482 38.1934 445.918C38.1934 446.348 38.2747 446.719 38.4375 447.031C38.6068 447.344 38.8411 447.585 39.1406 447.754C39.4466 447.917 39.8014 447.998 40.2051 447.998C40.6087 447.998 40.957 447.917 41.25 447.754C41.5495 447.585 41.7773 447.344 41.9336 447.031C42.0964 446.719 42.1777 446.348 42.1777 445.918ZM44.707 439.551C44.707 440.273 44.515 440.915 44.1309 441.475C43.7467 442.028 43.2129 442.461 42.5293 442.773C41.8522 443.086 41.0775 443.242 40.2051 443.242C39.3262 443.242 38.5449 443.086 37.8613 442.773C37.1777 442.461 36.6439 442.028 36.2598 441.475C35.8757 440.915 35.6836 440.273 35.6836 439.551C35.6836 438.691 35.8757 437.969 36.2598 437.383C36.6504 436.79 37.1842 436.341 37.8613 436.035C38.5449 435.729 39.3197 435.576 40.1855 435.576C41.0645 435.576 41.8424 435.729 42.5195 436.035C43.2031 436.341 43.737 436.79 44.1211 437.383C44.5117 437.969 44.707 438.691 44.707 439.551ZM41.8945 439.678C41.8945 439.294 41.8262 438.962 41.6895 438.682C41.5527 438.395 41.3574 438.174 41.1035 438.018C40.8561 437.861 40.5501 437.783 40.1855 437.783C39.834 437.783 39.5312 437.858 39.2773 438.008C39.0299 438.158 38.8379 438.376 38.7012 438.662C38.571 438.942 38.5059 439.281 38.5059 439.678C38.5059 440.062 38.571 440.4 38.7012 440.693C38.8379 440.98 39.0332 441.204 39.2871 441.367C39.541 441.53 39.847 441.611 40.2051 441.611C40.5632 441.611 40.8659 441.53 41.1133 441.367C41.3672 441.204 41.5592 440.98 41.6895 440.693C41.8262 440.4 41.8945 440.062 41.8945 439.678Z" fill="#E95122"/>
<path d="M10.7031 655.803V658H0.976562V656.125L5.57617 651.193C6.03841 650.679 6.40299 650.227 6.66992 649.836C6.93685 649.439 7.12891 649.084 7.24609 648.771C7.36979 648.452 7.43164 648.15 7.43164 647.863C7.43164 647.434 7.36003 647.066 7.2168 646.76C7.07357 646.447 6.86198 646.206 6.58203 646.037C6.30859 645.868 5.97005 645.783 5.56641 645.783C5.13672 645.783 4.76562 645.887 4.45312 646.096C4.14714 646.304 3.91276 646.594 3.75 646.965C3.59375 647.336 3.51562 647.756 3.51562 648.225H0.693359C0.693359 647.378 0.895182 646.604 1.29883 645.9C1.70247 645.191 2.27214 644.628 3.00781 644.211C3.74349 643.788 4.61589 643.576 5.625 643.576C6.62109 643.576 7.46094 643.739 8.14453 644.064C8.83464 644.383 9.35547 644.846 9.70703 645.451C10.0651 646.05 10.2441 646.766 10.2441 647.6C10.2441 648.068 10.1693 648.527 10.0195 648.977C9.86979 649.419 9.65495 649.862 9.375 650.305C9.10156 650.741 8.76953 651.184 8.37891 651.633C7.98828 652.082 7.55534 652.548 7.08008 653.029L4.60938 655.803H10.7031ZM22.0312 649.641V652.102C22.0312 653.169 21.9173 654.09 21.6895 654.865C21.4616 655.633 21.1328 656.265 20.7031 656.76C20.2799 657.248 19.7754 657.609 19.1895 657.844C18.6035 658.078 17.9525 658.195 17.2363 658.195C16.6634 658.195 16.1296 658.124 15.6348 657.98C15.14 657.831 14.694 657.6 14.2969 657.287C13.9062 656.975 13.5677 656.581 13.2812 656.105C13.0013 655.624 12.7865 655.051 12.6367 654.387C12.487 653.723 12.4121 652.961 12.4121 652.102V649.641C12.4121 648.573 12.526 647.658 12.7539 646.896C12.9883 646.128 13.3171 645.5 13.7402 645.012C14.1699 644.523 14.6777 644.165 15.2637 643.938C15.8496 643.703 16.5007 643.586 17.2168 643.586C17.7897 643.586 18.3203 643.661 18.8086 643.811C19.3034 643.954 19.7493 644.178 20.1465 644.484C20.5436 644.79 20.8822 645.184 21.1621 645.666C21.4421 646.141 21.6569 646.711 21.8066 647.375C21.9564 648.033 22.0312 648.788 22.0312 649.641ZM19.209 652.473V649.26C19.209 648.745 19.1797 648.296 19.1211 647.912C19.069 647.528 18.9876 647.202 18.877 646.936C18.7663 646.662 18.6296 646.441 18.4668 646.271C18.304 646.102 18.1185 645.979 17.9102 645.9C17.7018 645.822 17.4707 645.783 17.2168 645.783C16.8978 645.783 16.6146 645.845 16.3672 645.969C16.1263 646.092 15.9212 646.291 15.752 646.564C15.5827 646.831 15.4525 647.189 15.3613 647.639C15.2767 648.081 15.2344 648.622 15.2344 649.26V652.473C15.2344 652.987 15.2604 653.439 15.3125 653.83C15.3711 654.221 15.4557 654.556 15.5664 654.836C15.6836 655.109 15.8203 655.334 15.9766 655.51C16.1393 655.679 16.3249 655.803 16.5332 655.881C16.748 655.959 16.9824 655.998 17.2363 655.998C17.5488 655.998 17.8255 655.936 18.0664 655.812C18.3138 655.682 18.5221 655.48 18.6914 655.207C18.8672 654.927 18.9974 654.562 19.082 654.113C19.1667 653.664 19.209 653.117 19.209 652.473ZM30.8008 643.752V658H27.9883V646.994L24.6094 648.068V645.852L30.498 643.752H30.8008ZM37.4219 655.861H37.6074C38.3887 655.861 39.0592 655.767 39.6191 655.578C40.1855 655.383 40.651 655.103 41.0156 654.738C41.3802 654.374 41.6504 653.928 41.8262 653.4C42.002 652.867 42.0898 652.261 42.0898 651.584V648.889C42.0898 648.374 42.0378 647.922 41.9336 647.531C41.8359 647.141 41.6927 646.818 41.5039 646.564C41.3216 646.304 41.1068 646.109 40.8594 645.979C40.6185 645.848 40.3516 645.783 40.0586 645.783C39.7461 645.783 39.4694 645.861 39.2285 646.018C38.9876 646.167 38.7826 646.372 38.6133 646.633C38.4505 646.893 38.3236 647.193 38.2324 647.531C38.1478 647.863 38.1055 648.212 38.1055 648.576C38.1055 648.941 38.1478 649.289 38.2324 649.621C38.3171 649.947 38.444 650.236 38.6133 650.49C38.7826 650.738 38.9941 650.936 39.248 651.086C39.502 651.229 39.8014 651.301 40.1465 651.301C40.4785 651.301 40.7747 651.239 41.0352 651.115C41.3021 650.985 41.5267 650.816 41.709 650.607C41.8978 650.399 42.041 650.168 42.1387 649.914C42.2428 649.66 42.2949 649.403 42.2949 649.143L43.2227 649.65C43.2227 650.106 43.125 650.555 42.9297 650.998C42.7344 651.441 42.4609 651.844 42.1094 652.209C41.7643 652.567 41.3639 652.854 40.9082 653.068C40.4525 653.283 39.9642 653.391 39.4434 653.391C38.7793 653.391 38.1901 653.27 37.6758 653.029C37.1615 652.782 36.7253 652.443 36.3672 652.014C36.0156 651.577 35.7487 651.07 35.5664 650.49C35.3841 649.911 35.293 649.283 35.293 648.605C35.293 647.915 35.4036 647.268 35.625 646.662C35.8529 646.057 36.1751 645.523 36.5918 645.061C37.015 644.598 37.5195 644.237 38.1055 643.977C38.6979 643.71 39.3555 643.576 40.0781 643.576C40.8008 643.576 41.4583 643.716 42.0508 643.996C42.6432 644.276 43.151 644.673 43.5742 645.188C43.9974 645.695 44.3229 646.304 44.5508 647.014C44.7852 647.723 44.9023 648.511 44.9023 649.377V650.354C44.9023 651.278 44.8014 652.137 44.5996 652.932C44.4043 653.726 44.1081 654.445 43.7109 655.09C43.3203 655.728 42.832 656.275 42.2461 656.73C41.6667 657.186 40.9928 657.535 40.2246 657.775C39.4564 658.016 38.597 658.137 37.6465 658.137H37.4219V655.861Z" fill="#E95122"/>
<rect x="53" y="432" width="24" height="4" fill="#081725"/>
<rect x="53" y="448" width="24" height="4" fill="#081725"/>
<rect x="53" y="464" width="24" height="4" fill="#081725"/>
<rect x="53" y="480" width="24" height="4" fill="#081725"/>
<rect x="53" y="496" width="24" height="4" fill="#081725"/>
<rect x="53" y="512" width="24" height="4" fill="#081725"/>
<rect x="53" y="528" width="24" height="4" fill="#081725"/>
<rect x="53" y="544" width="24" height="4" fill="#081725"/>
<rect x="53" y="560" width="24" height="4" fill="#081725"/>
<rect x="53" y="576" width="24" height="4" fill="#081725"/>
<rect x="53" y="592" width="24" height="4" fill="#081725"/>
<rect x="53" y="608" width="24" height="4" fill="#081725"/>
<rect x="53" y="640" width="24" height="4" fill="#081725"/>
<rect x="53" y="656" width="24" height="4" fill="#081725"/>
<rect x="53" y="672" width="24" height="4" fill="#081725"/>
<rect x="53" y="688" width="24" height="4" fill="#081725"/>
<rect x="53" y="704" width="24" height="4" fill="#081725"/>
<rect x="53" y="720" width="24" height="4" fill="#081725"/>
<rect x="53" y="736" width="24" height="4" fill="#081725"/>
<rect x="53" y="752" width="24" height="4" fill="#081725"/>
<rect x="53" y="768" width="24" height="4" fill="#081725"/>
<rect x="53" y="784" width="24" height="4" fill="#081725"/>
<rect x="53" y="800" width="24" height="4" fill="#081725"/>
<rect x="53" y="816" width="24" height="4" fill="#081725"/>
</svg>
