<svg width="90" height="90" viewBox="0 0 90 90" fill="none" xmlns="http://www.w3.org/2000/svg">
<mask id="mask0_131_272" style="mask-type:alpha" maskUnits="userSpaceOnUse" x="0" y="0" width="90" height="90">
<rect width="90" height="90" fill="#D9D9D9"/>
</mask>
<g mask="url(#mask0_131_272)">
<path d="M42.1875 78.75C41.125 78.75 40.2344 78.3906 39.5156 77.6719C38.7969 76.9531 38.4375 76.0625 38.4375 75V56.4375L22.3125 65.7188C21.4375 66.2188 20.4844 66.3438 19.4531 66.0938C18.4219 65.8437 17.6562 65.25 17.1562 64.3125L14.3438 59.4375C13.8438 58.5625 13.7187 57.625 13.9688 56.625C14.2188 55.625 14.8125 54.875 15.75 54.375L31.875 45L15.8438 35.7188C14.9063 35.2188 14.3125 34.4531 14.0625 33.4219C13.8125 32.3906 13.9375 31.4375 14.4375 30.5625L17.25 25.6875C17.75 24.8125 18.5 24.25 19.5 24C20.5 23.75 21.4688 23.875 22.4063 24.375L38.4375 33.6562V15C38.4375 13.9375 38.7969 13.0469 39.5156 12.3281C40.2344 11.6094 41.125 11.25 42.1875 11.25H47.8125C48.875 11.25 49.7656 11.6094 50.4844 12.3281C51.2031 13.0469 51.5625 13.9375 51.5625 15V33.6562L67.6875 24.375C68.5625 23.8125 69.5156 23.6719 70.5469 23.9531C71.5781 24.2344 72.3437 24.8438 72.8437 25.7812L75.5625 30.5625C76.0625 31.4375 76.1719 32.3906 75.8906 33.4219C75.6094 34.4531 75.0313 35.2188 74.1563 35.7188L58.125 45L74.1563 54.375C75.0938 54.9375 75.6875 55.7187 75.9375 56.7188C76.1875 57.7188 76.0625 58.6562 75.5625 59.5312L72.75 64.4063C72.25 65.2813 71.4844 65.8437 70.4531 66.0938C69.4219 66.3438 68.4687 66.2188 67.5937 65.7188L51.5625 56.4375V75C51.5625 76.0625 51.2031 76.9531 50.4844 77.6719C49.7656 78.3906 48.875 78.75 47.8125 78.75H42.1875Z" fill="#E95122"/>
</g>
</svg>
