<svg width="90" height="90" viewBox="0 0 90 90" fill="none" xmlns="http://www.w3.org/2000/svg">
<mask id="mask0_171_181" style="mask-type:alpha" maskUnits="userSpaceOnUse" x="0" y="0" width="90" height="90">
<rect width="90" height="90" fill="#D9D9D9"/>
</mask>
<g mask="url(#mask0_171_181)">
<path d="M71.2499 56.7188V47.8124H18.7499V56.7188H71.2499ZM71.2499 42.1876V33.2813H18.7499V42.1876H71.2499ZM71.2499 27.6564V19.904C71.2499 19.5674 71.1417 19.291 70.9253 19.0746C70.709 18.8582 70.4325 18.75 70.0959 18.75H19.9039C19.5673 18.75 19.2908 18.8582 19.0745 19.0746C18.8581 19.291 18.7499 19.5674 18.7499 19.904V27.6564H71.2499ZM19.9039 76.8749C18.0096 76.8749 16.4063 76.2187 15.0938 74.9062C13.7813 73.5937 13.125 71.9903 13.125 70.0961V19.904C13.125 18.0097 13.7813 16.4064 15.0938 15.0939C16.4063 13.7814 18.0096 13.1251 19.9039 13.1251H70.0959C71.9902 13.1251 73.5936 13.7814 74.9061 15.0939C76.2186 16.4064 76.8748 18.0097 76.8748 19.904V70.0961C76.8748 71.9903 76.2186 73.5937 74.9061 74.9062C73.5936 76.2187 71.9902 76.8749 70.0959 76.8749H19.9039ZM71.2499 70.0961V62.3437H18.7499V70.0961C18.7499 70.4326 18.8581 70.7091 19.0745 70.9255C19.2908 71.1418 19.5673 71.25 19.9039 71.25H70.0959C70.4325 71.25 70.709 71.1418 70.9253 70.9255C71.1417 70.7091 71.2499 70.4326 71.2499 70.0961Z" fill="#1C1B1F"/>
</g>
</svg>
