<svg width="81" height="44" viewBox="0 0 81 44" fill="none" xmlns="http://www.w3.org/2000/svg">
<path d="M6.75 43.5624C4.92787 43.5624 3.37863 42.9242 2.10225 41.6478C0.82575 40.3714 0.1875 38.8222 0.1875 37C0.1875 35.1779 0.825718 33.6287 2.10216 32.3523C3.37859 31.0758 4.92787 30.4376 6.75 30.4376C7.17306 30.4376 7.55528 30.4557 7.89666 30.4917C8.23803 30.5278 8.57697 30.6444 8.91347 30.8415L26.8415 12.9135C26.6443 12.577 26.5278 12.2381 26.4917 11.8967C26.4556 11.5553 26.4376 11.1731 26.4376 10.75C26.4376 8.9279 27.0758 7.37865 28.3523 6.10228C29.6286 4.82584 31.1779 4.18762 33 4.18762C34.8221 4.18762 36.3714 4.82584 37.6477 6.10228C38.9242 7.37865 39.5624 8.9279 39.5624 10.75C39.5624 10.9712 39.4518 11.6683 39.2307 12.8414L49.6586 23.2693C49.9952 23.1203 50.3221 23.0278 50.6394 22.9917C50.9567 22.9557 51.3269 22.9376 51.75 22.9376C52.1731 22.9376 52.5493 22.9557 52.8787 22.9917C53.208 23.0278 53.5289 23.1444 53.8414 23.3415L68.0915 9.0914C67.8943 8.7789 67.7778 8.458 67.7417 8.12868C67.7056 7.79931 67.6876 7.42309 67.6876 7.00003C67.6876 5.1779 68.3258 3.62865 69.6023 2.35228C70.8786 1.07584 72.4279 0.437622 74.25 0.437622C76.0721 0.437622 77.6214 1.07584 78.8978 2.35228C80.1742 3.62865 80.8124 5.1779 80.8124 7.00003C80.8124 8.82215 80.1742 10.3714 78.8978 11.6478C77.6214 12.9242 76.0721 13.5624 74.25 13.5624C73.8269 13.5624 73.4507 13.5444 73.1213 13.5083C72.792 13.4723 72.4711 13.3557 72.1586 13.1586L57.9085 27.4087C58.1057 27.7212 58.2222 28.0421 58.2583 28.3714C58.2944 28.7007 58.3124 29.077 58.3124 29.5C58.3124 31.3222 57.6742 32.8714 56.3977 34.1478C55.1214 35.4242 53.5721 36.0624 51.75 36.0624C49.9279 36.0624 48.3786 35.4242 47.1023 34.1478C45.8258 32.8714 45.1876 31.3222 45.1876 29.5C45.1876 29.077 45.2056 28.6947 45.2417 28.3534C45.2778 28.012 45.3943 27.6731 45.5915 27.3366L35.1635 16.9086C34.827 17.1057 34.488 17.2223 34.1467 17.2583C33.8053 17.2944 33.4231 17.3124 33 17.3124C32.7788 17.3124 32.0817 17.2019 30.9086 16.9807L12.9807 34.9087C13.1297 35.2452 13.2222 35.5722 13.2583 35.8895C13.2944 36.2068 13.3124 36.577 13.3124 37C13.3124 38.8222 12.6742 40.3714 11.3978 41.6478C10.1214 42.9242 8.57213 43.5624 6.75 43.5624Z" fill="#161616"/>
</svg>
