<svg width="91" height="90" viewBox="0 0 91 90" fill="none" xmlns="http://www.w3.org/2000/svg">
<mask id="mask0_171_193" style="mask-type:alpha" maskUnits="userSpaceOnUse" x="0" y="0" width="91" height="90">
<rect x="0.5" width="90" height="90" fill="#D9D9D9"/>
</mask>
<g mask="url(#mask0_171_193)">
<path d="M11.75 66.5624C9.92787 66.5624 8.37863 65.9242 7.10225 64.6478C5.82575 63.3714 5.1875 61.8222 5.1875 60C5.1875 58.1779 5.82572 56.6287 7.10216 55.3523C8.37859 54.0758 9.92787 53.4376 11.75 53.4376C12.1731 53.4376 12.5553 53.4557 12.8967 53.4917C13.238 53.5278 13.577 53.6444 13.9135 53.8415L31.8415 35.9135C31.6443 35.577 31.5278 35.2381 31.4917 34.8967C31.4556 34.5553 31.4376 34.1731 31.4376 33.75C31.4376 31.9279 32.0758 30.3787 33.3523 29.1023C34.6286 27.8258 36.1779 27.1876 38 27.1876C39.8221 27.1876 41.3714 27.8258 42.6477 29.1023C43.9242 30.3787 44.5624 31.9279 44.5624 33.75C44.5624 33.9712 44.4518 34.6683 44.2307 35.8414L54.6586 46.2693C54.9952 46.1203 55.3221 46.0278 55.6394 45.9917C55.9567 45.9557 56.3269 45.9376 56.75 45.9376C57.1731 45.9376 57.5493 45.9557 57.8787 45.9917C58.208 46.0278 58.5289 46.1444 58.8414 46.3415L73.0915 32.0914C72.8943 31.7789 72.7778 31.458 72.7417 31.1287C72.7056 30.7993 72.6876 30.4231 72.6876 30C72.6876 28.1779 73.3258 26.6287 74.6023 25.3523C75.8786 24.0758 77.4279 23.4376 79.25 23.4376C81.0721 23.4376 82.6214 24.0758 83.8978 25.3523C85.1742 26.6287 85.8124 28.1779 85.8124 30C85.8124 31.8222 85.1742 33.3714 83.8978 34.6478C82.6214 35.9242 81.0721 36.5624 79.25 36.5624C78.8269 36.5624 78.4507 36.5444 78.1213 36.5083C77.792 36.4723 77.4711 36.3557 77.1586 36.1586L62.9085 50.4087C63.1057 50.7212 63.2222 51.0421 63.2583 51.3714C63.2944 51.7007 63.3124 52.077 63.3124 52.5C63.3124 54.3222 62.6742 55.8714 61.3977 57.1478C60.1214 58.4242 58.5721 59.0624 56.75 59.0624C54.9279 59.0624 53.3786 58.4242 52.1023 57.1478C50.8258 55.8714 50.1876 54.3222 50.1876 52.5C50.1876 52.077 50.2056 51.6947 50.2417 51.3534C50.2778 51.012 50.3943 50.6731 50.5915 50.3366L40.1635 39.9086C39.827 40.1057 39.488 40.2223 39.1467 40.2583C38.8053 40.2944 38.4231 40.3124 38 40.3124C37.7788 40.3124 37.0817 40.2019 35.9086 39.9807L17.9807 57.9087C18.1297 58.2452 18.2222 58.5722 18.2583 58.8895C18.2944 59.2068 18.3124 59.577 18.3124 60C18.3124 61.8222 17.6742 63.3714 16.3978 64.6478C15.1214 65.9242 13.5721 66.5624 11.75 66.5624Z" fill="#1C1B1F"/>
</g>
</svg>
